<svg xmlns="http://www.w3.org/2000/svg" xmlns:xlink="http://www.w3.org/1999/xlink" contentStyleType="text/css" height="1035px" preserveAspectRatio="none" style="width:519px;height:1035px;" version="1.1" viewBox="0 0 519 1035" width="519px" zoomAndPan="magnify"><defs/><g><!--class Classificatie--><a href="#Classificatie" target="_top" title="#Classificatie" xlink:actuate="onRequest" xlink:href="#Classificatie" xlink:show="new" xlink:title="#Classificatie" xlink:type="simple"><g id="elem_Classificatie"><rect codeLine="31" fill="#FFFFFF" height="43.2979" id="Classificatie" rx="2.5" ry="2.5" style="stroke:#000000;stroke-width:0.5;" width="97.3333" x="248.83" y="7"/><text fill="#080000" font-family="Times New Roman" font-size="11" font-weight="bold" lengthAdjust="spacing" textLength="3" x="262.9967" y="22.5032">&#160;</text><text fill="#080000" font-family="Times New Roman" font-size="11" font-weight="bold" lengthAdjust="spacing" textLength="66" x="265.9967" y="22.5032">Classificatie</text><line style="stroke:#000000;stroke-width:0.5;" x1="249.83" x2="345.1633" y1="29.6489" y2="29.6489"/><ellipse cx="259.83" cy="41.4734" fill="none" rx="3" ry="3" style="stroke:#038048;stroke-width:1.0;"/><path d="M272.8717,36.2145 C271.6067,36.2145 270.58,37.2412 270.58,38.5062 C270.58,38.6529 270.58,38.7995 270.6075,38.937 L267.83,41.7145 L267.83,43.5479 L270.58,43.5479 L270.58,41.7145 L272.4133,41.7145 L272.4133,40.7979 L272.4408,40.7704 C272.5783,40.7979 272.725,40.7979 272.8717,40.7979 C274.1367,40.7979 275.1633,39.7712 275.1633,38.5062 C275.1633,37.2412 274.1367,36.2145 272.8717,36.2145 M273.33,37.1312 C273.8342,37.1312 274.2467,37.5437 274.2467,38.0479 C274.2467,38.552 273.8342,38.9645 273.33,38.9645 C272.8258,38.9645 272.4133,38.552 272.4133,38.0479 C272.4133,37.5437 272.8258,37.1312 273.33,37.1312 " fill="#FFA500" style="stroke:;stroke-width:0.0;stroke-dasharray:;"/><text fill="#080000" font-family="Times New Roman" font-size="11" lengthAdjust="spacing" textLength="53" x="276.1633" y="44.1521">classificatie</text><text fill="#080000" font-family="Times New Roman" font-size="11" lengthAdjust="spacing" textLength="3" x="329.1633" y="44.1521">&#160;</text><text fill="#080000" font-family="Times New Roman" font-size="11" lengthAdjust="spacing" textLength="8" x="332.1633" y="44.1521">id</text></g></a><!--class Gegevensleveringsspecificatie--><a href="#Gegevensleveringsspecificatie" target="_top" title="#Gegevensleveringsspecificatie" xlink:actuate="onRequest" xlink:href="#Gegevensleveringsspecificatie" xlink:show="new" xlink:title="#Gegevensleveringsspecificatie" xlink:type="simple"><g id="elem_Gegevensleveringsspecificatie"><rect codeLine="35" fill="#FFFFFF" height="96.578" id="Gegevensleveringsspecificatie" rx="2.5" ry="2.5" style="stroke:#000000;stroke-width:0.5;" width="216" x="31.5" y="490.23"/><text fill="#080000" font-family="Times New Roman" font-size="11" font-weight="bold" lengthAdjust="spacing" textLength="3" x="59.5" y="505.7332">&#160;</text><text fill="#080000" font-family="Times New Roman" font-size="11" font-weight="bold" lengthAdjust="spacing" textLength="157" x="62.5" y="505.7332">Gegevensleveringsspecificatie</text><line style="stroke:#000000;stroke-width:0.5;" x1="32.5" x2="246.5" y1="512.8789" y2="512.8789"/><ellipse cx="42.5" cy="524.7034" fill="none" rx="3" ry="3" style="stroke:#038048;stroke-width:1.0;"/><text fill="#080000" font-family="Times New Roman" font-size="11" lengthAdjust="spacing" textLength="19" x="49.5" y="527.3821">GLS</text><text fill="#080000" font-family="Times New Roman" font-size="11" lengthAdjust="spacing" textLength="3" x="68.5" y="527.3821">&#160;</text><text fill="#080000" font-family="Times New Roman" font-size="11" lengthAdjust="spacing" textLength="24" x="71.5" y="527.3821">heeft</text><text fill="#080000" font-family="Times New Roman" font-size="11" lengthAdjust="spacing" textLength="3" x="95.5" y="527.3821">&#160;</text><text fill="#080000" font-family="Times New Roman" font-size="11" lengthAdjust="spacing" textLength="24" x="98.5" y="527.3821">LGM</text><ellipse cx="42.5" cy="537.3523" fill="none" rx="3" ry="3" style="stroke:#038048;stroke-width:1.0;"/><path d="M55.5417,532.0934 C54.2767,532.0934 53.25,533.1201 53.25,534.3851 C53.25,534.5318 53.25,534.6784 53.2775,534.8159 L50.5,537.5934 L50.5,539.4268 L53.25,539.4268 L53.25,537.5934 L55.0833,537.5934 L55.0833,536.6768 L55.1108,536.6493 C55.2483,536.6768 55.395,536.6768 55.5417,536.6768 C56.8067,536.6768 57.8333,535.6501 57.8333,534.3851 C57.8333,533.1201 56.8067,532.0934 55.5417,532.0934 M56,533.0101 C56.5042,533.0101 56.9167,533.4226 56.9167,533.9268 C56.9167,534.4309 56.5042,534.8434 56,534.8434 C55.4958,534.8434 55.0833,534.4309 55.0833,533.9268 C55.0833,533.4226 55.4958,533.0101 56,533.0101 " fill="#FFA500" style="stroke:;stroke-width:0.0;stroke-dasharray:;"/><text fill="#080000" font-family="Times New Roman" font-size="11" lengthAdjust="spacing" textLength="37" x="58.8333" y="540.031">gls-code</text><path d="M50.5,542.1768 L50.5,543.0934 L57.8333,543.0934 L57.8333,542.1768 L50.5,542.1768 M50.5,544.8993 L50.5,545.8159 L57.8333,545.8159 L57.8333,544.8993 L50.5,544.8993 M50.5,547.6493 L50.5,548.5659 L57.8333,548.5659 L57.8333,547.6493 L50.5,547.6493 " fill="#080000" style="stroke:;stroke-width:0.0;stroke-dasharray:;"/><line style="stroke:#000000;stroke-width:0.5;" x1="32.5" x2="246.5" y1="553.5101" y2="553.5101"/><polygon fill="#4177AF" points="42.5,567.659,38.5,573.659,46.5,573.659" style="stroke:#1963A0;stroke-width:1.0;"/><text fill="#080000" font-family="Times New Roman" font-size="11" lengthAdjust="spacing" textLength="192" x="49.5" y="568.0133">CHECK_374(Gegevensleveringsprotocol,</text><text fill="#080000" font-family="Times New Roman" font-size="11" lengthAdjust="spacing" textLength="121" x="49.5" y="580.6622">Verwerkersovereenkomst)</text></g></a><!--class Gegevensleversetspecificatie--><a href="#Gegevensleversetspecificatie" target="_top" title="#Gegevensleversetspecificatie" xlink:actuate="onRequest" xlink:href="#Gegevensleversetspecificatie" xlink:show="new" xlink:title="#Gegevensleversetspecificatie" xlink:type="simple"><g id="elem_Gegevensleversetspecificatie"><rect codeLine="43" fill="#FFFFFF" height="75.929" id="Gegevensleversetspecificatie" rx="2.5" ry="2.5" style="stroke:#000000;stroke-width:0.5;" width="210" x="192.5" y="232.3"/><text fill="#080000" font-family="Times New Roman" font-size="11" font-weight="bold" lengthAdjust="spacing" textLength="3" x="221" y="247.8032">&#160;</text><text fill="#080000" font-family="Times New Roman" font-size="11" font-weight="bold" lengthAdjust="spacing" textLength="150" x="224" y="247.8032">Gegevensleversetspecificatie</text><line style="stroke:#000000;stroke-width:0.5;" x1="193.5" x2="401.5" y1="254.9489" y2="254.9489"/><ellipse cx="203.5" cy="266.7734" fill="none" rx="3" ry="3" style="stroke:#038048;stroke-width:1.0;"/><text fill="#080000" font-family="Times New Roman" font-size="11" lengthAdjust="spacing" textLength="19" x="210.5" y="269.4521">GLS</text><text fill="#080000" font-family="Times New Roman" font-size="11" lengthAdjust="spacing" textLength="3" x="229.5" y="269.4521">&#160;</text><text fill="#080000" font-family="Times New Roman" font-size="11" lengthAdjust="spacing" textLength="30" x="232.5" y="269.4521">omvat</text><text fill="#080000" font-family="Times New Roman" font-size="11" lengthAdjust="spacing" textLength="3" x="262.5" y="269.4521">&#160;</text><text fill="#080000" font-family="Times New Roman" font-size="11" lengthAdjust="spacing" textLength="131" x="265.5" y="269.4521">Gegevensleversetspecificatie</text><ellipse cx="203.5" cy="279.4223" fill="none" rx="3" ry="3" style="stroke:#038048;stroke-width:1.0;"/><text fill="#080000" font-family="Times New Roman" font-size="11" lengthAdjust="spacing" textLength="131" x="210.5" y="282.101">Gegevensleversetspecificatie</text><text fill="#080000" font-family="Times New Roman" font-size="11" lengthAdjust="spacing" textLength="3" x="341.5" y="282.101">&#160;</text><text fill="#080000" font-family="Times New Roman" font-size="11" lengthAdjust="spacing" textLength="24" x="344.5" y="282.101">heeft</text><text fill="#080000" font-family="Times New Roman" font-size="11" lengthAdjust="spacing" textLength="3" x="368.5" y="282.101">&#160;</text><text fill="#080000" font-family="Times New Roman" font-size="11" lengthAdjust="spacing" textLength="24" x="371.5" y="282.101">LGM</text><ellipse cx="203.5" cy="292.0712" fill="none" rx="3" ry="3" style="stroke:#038048;stroke-width:1.0;"/><path d="M216.5417,286.8124 C215.2767,286.8124 214.25,287.839 214.25,289.104 C214.25,289.2507 214.25,289.3974 214.2775,289.5349 L211.5,292.3124 L211.5,294.1457 L214.25,294.1457 L214.25,292.3124 L216.0833,292.3124 L216.0833,291.3957 L216.1108,291.3682 C216.2483,291.3957 216.395,291.3957 216.5417,291.3957 C217.8067,291.3957 218.8333,290.369 218.8333,289.104 C218.8333,287.839 217.8067,286.8124 216.5417,286.8124 M217,287.729 C217.5042,287.729 217.9167,288.1415 217.9167,288.6457 C217.9167,289.1499 217.5042,289.5624 217,289.5624 C216.4958,289.5624 216.0833,289.1499 216.0833,288.6457 C216.0833,288.1415 216.4958,287.729 217,287.729 " fill="#FFA500" style="stroke:;stroke-width:0.0;stroke-dasharray:;"/><text fill="#080000" font-family="Times New Roman" font-size="11" lengthAdjust="spacing" textLength="150" x="219.8333" y="294.75">gegevensleversetspecificatiecode</text><path d="M211.5,296.8957 L211.5,297.8124 L218.8333,297.8124 L218.8333,296.8957 L211.5,296.8957 M211.5,299.6182 L211.5,300.5349 L218.8333,300.5349 L218.8333,299.6182 L211.5,299.6182 M211.5,302.3682 L211.5,303.2849 L218.8333,303.2849 L218.8333,302.3682 L211.5,302.3682 " fill="#080000" style="stroke:;stroke-width:0.0;stroke-dasharray:;"/></g></a><!--class Gegevenstype--><a href="#Gegevenstype" target="_top" title="#Gegevenstype" xlink:actuate="onRequest" xlink:href="#Gegevenstype" xlink:show="new" xlink:title="#Gegevenstype" xlink:type="simple"><g id="elem_Gegevenstype"><rect codeLine="50" fill="#FFFFFF" height="22.6489" id="Gegevenstype" rx="2.5" ry="2.5" style="stroke:#000000;stroke-width:0.5;" width="81" x="333" y="1006.75"/><text fill="#080000" font-family="Times New Roman" font-size="11" font-weight="bold" lengthAdjust="spacing" textLength="3" x="336" y="1022.2532">&#160;</text><text fill="#080000" font-family="Times New Roman" font-size="11" font-weight="bold" lengthAdjust="spacing" textLength="72" x="339" y="1022.2532">Gegevenstype</text></g></a><!--class Logisch_Gegevensmodel--><a href="#Logisch+Gegevensmodel" target="_top" title="#Logisch+Gegevensmodel" xlink:actuate="onRequest" xlink:href="#Logisch+Gegevensmodel" xlink:show="new" xlink:title="#Logisch+Gegevensmodel" xlink:type="simple"><g id="elem_Logisch_Gegevensmodel"><rect codeLine="53" fill="#FFFFFF" height="55.9468" id="Logisch_Gegevensmodel" rx="2.5" ry="2.5" style="stroke:#000000;stroke-width:0.5;" width="222" x="180.5" y="768.8"/><text fill="#080000" font-family="Times New Roman" font-size="11" font-weight="bold" lengthAdjust="spacing" textLength="3" x="227.5" y="784.3032">&#160;</text><text fill="#080000" font-family="Times New Roman" font-size="11" font-weight="bold" lengthAdjust="spacing" textLength="40" x="230.5" y="784.3032">Logisch</text><text fill="#080000" font-family="Times New Roman" font-size="11" font-weight="bold" lengthAdjust="spacing" textLength="3" x="270.5" y="784.3032">&#160;</text><text fill="#080000" font-family="Times New Roman" font-size="11" font-weight="bold" lengthAdjust="spacing" textLength="82" x="273.5" y="784.3032">Gegevensmodel</text><line style="stroke:#000000;stroke-width:0.5;" x1="181.5" x2="401.5" y1="791.4489" y2="791.4489"/><polygon fill="#4177AF" points="191.5,805.5979,187.5,811.5979,195.5,811.5979" style="stroke:#1963A0;stroke-width:1.0;"/><text fill="#080000" font-family="Times New Roman" font-size="11" lengthAdjust="spacing" textLength="198" x="198.5" y="805.9521">CHECK_83(Gegevensleveringsspecificatie,</text><text fill="#080000" font-family="Times New Roman" font-size="11" lengthAdjust="spacing" textLength="135" x="198.5" y="818.601">Gegevensleversetspecificatie)</text></g></a><!--link Classificatie to Gegevensleveringsspecificatie--><g id="link_Classificatie_Gegevensleveringsspecificatie"><path codeLine="60" d="M248.76,29.4 C193.8,29.4 112,29.4 112,29.4 C112,29.4 112,357.08 112,484.16 " fill="none" id="Classificatie-to-Gegevensleveringsspecificatie" style="stroke:#000000;stroke-width:1.0;"/><polygon fill="#000000" points="112,490.16,116,481.16,112,485.16,108,481.16,112,490.16" style="stroke:#000000;stroke-width:1.0;"/><text fill="#080000" font-family="Times New Roman" font-size="11" lengthAdjust="spacing" textLength="104" x="7" y="188.9032">GLS heeft Classificatie</text><text fill="#080000" font-family="Times New Roman" font-size="11" lengthAdjust="spacing" textLength="18" x="223.0016" y="27.2414">0..1</text><text fill="#080000" font-family="Times New Roman" font-size="11" lengthAdjust="spacing" textLength="18" x="88.1828" y="480.0514">0..*</text></g><!--link Gegevensleveringsspecificatie to Logisch_Gegevensmodel--><g id="link_Gegevensleveringsspecificatie_Logisch_Gegevensmodel"><path codeLine="61" d="M214,587.09 C214,640.57 214,718.74 214,762.4 " fill="none" id="Gegevensleveringsspecificatie-to-Logisch_Gegevensmodel" style="stroke:#000000;stroke-width:1.0;"/><polygon fill="#000000" points="214,768.4,218,759.4,214,763.4,210,759.4,214,768.4" style="stroke:#000000;stroke-width:1.0;"/><text fill="#080000" font-family="Times New Roman" font-size="11" lengthAdjust="spacing" textLength="73" x="140" y="675.2432">GLS heeft LGM</text><text fill="#080000" font-family="Times New Roman" font-size="11" lengthAdjust="spacing" textLength="18" x="205.2109" y="605.3129">0..*</text><text fill="#080000" font-family="Times New Roman" font-size="11" lengthAdjust="spacing" textLength="6" x="188.3781" y="758.6037">1</text></g><!--link Gegevensleversetspecificatie to Gegevensleveringsspecificatie--><g id="link_Gegevensleversetspecificatie_Gegevensleveringsspecificatie"><path codeLine="62" d="M220,308.7 C220,356.5 220,438.16 220,490.16 " fill="none" id="Gegevensleversetspecificatie-Gegevensleveringsspecificatie" style="stroke:#000000;stroke-width:1.0;"/><text fill="#080000" font-family="Times New Roman" font-size="11" lengthAdjust="spacing" textLength="186" x="33" y="396.9332">GLS omvat Gegevensleversetspecificatie</text><text fill="#080000" font-family="Times New Roman" font-size="11" lengthAdjust="spacing" textLength="18" x="187.6734" y="326.6165">1..*</text><text fill="#080000" font-family="Times New Roman" font-size="11" lengthAdjust="spacing" textLength="6" x="226.3516" y="480.0514">1</text></g><!--link Classificatie to Gegevensleversetspecificatie--><g id="link_Classificatie_Gegevensleversetspecificatie"><path codeLine="63" d="M297.5,50.52 C297.5,91.64 297.5,174.94 297.5,226.15 " fill="none" id="Classificatie-to-Gegevensleversetspecificatie" style="stroke:#000000;stroke-width:1.0;"/><polygon fill="#000000" points="297.5,232.15,301.5,223.15,297.5,227.15,293.5,223.15,297.5,232.15" style="stroke:#000000;stroke-width:1.0;"/><text fill="#080000" font-family="Times New Roman" font-size="11" lengthAdjust="spacing" textLength="216" x="80.5" y="138.8332">Gegevensleversetspecificatie heeft Classificatie</text><text fill="#080000" font-family="Times New Roman" font-size="11" lengthAdjust="spacing" textLength="18" x="276.9697" y="68.9532">0..1</text><text fill="#080000" font-family="Times New Roman" font-size="11" lengthAdjust="spacing" textLength="18" x="277.7281" y="222.032">0..*</text></g><!--link Gegevensleversetspecificatie to Logisch_Gegevensmodel--><g id="link_Gegevensleversetspecificatie_Logisch_Gegevensmodel"><path codeLine="64" d="M325,308.55 C325,409.36 325,674.4 325,762.61 " fill="none" id="Gegevensleversetspecificatie-to-Logisch_Gegevensmodel" style="stroke:#000000;stroke-width:1.0;"/><polygon fill="#000000" points="325,768.61,329,759.61,325,763.61,321,759.61,325,768.61" style="stroke:#000000;stroke-width:1.0;"/><text fill="#080000" font-family="Times New Roman" font-size="11" lengthAdjust="spacing" textLength="185" x="326" y="536.0832">Gegevensleversetspecificatie heeft LGM</text><text fill="#080000" font-family="Times New Roman" font-size="11" lengthAdjust="spacing" textLength="18" x="310.1797" y="326.7205">0..*</text><text fill="#080000" font-family="Times New Roman" font-size="11" lengthAdjust="spacing" textLength="6" x="326.4344" y="758.8649">1</text></g><!--link Classificatie to Gegevenstype--><g id="link_Classificatie_Gegevenstype"><path codeLine="65" d="M346.4,29.4 C376.07,29.4 408.25,29.4 408.25,29.4 C408.25,29.4 408.25,888.74 408.25,1000.28 " fill="none" id="Classificatie-to-Gegevenstype" style="stroke:#000000;stroke-width:1.0;"/><polygon fill="#000000" points="408.25,1006.28,412.25,997.28,408.25,1001.28,404.25,997.28,408.25,1006.28" style="stroke:#000000;stroke-width:1.0;"/><text fill="#080000" font-family="Times New Roman" font-size="11" lengthAdjust="spacing" textLength="149" x="258.25" y="484.4232">Gegevenstype heeft Classificatie</text><text fill="#080000" font-family="Times New Roman" font-size="11" lengthAdjust="spacing" textLength="18" x="354.1808" y="27.2414">0..1</text><text fill="#080000" font-family="Times New Roman" font-size="11" lengthAdjust="spacing" textLength="18" x="402.1594" y="996.7033">0..*</text></g><!--link Logisch_Gegevensmodel to Gegevenstype--><g id="link_Logisch_Gegevensmodel_Gegevenstype"><path codeLine="66" d="M367.75,824.81 C367.75,873.65 367.75,972.41 367.75,1006.33 " fill="none" id="Logisch_Gegevensmodel-Gegevenstype" style="stroke:#000000;stroke-width:1.0;"/><text fill="#080000" font-family="Times New Roman" font-size="11" lengthAdjust="spacing" textLength="119" x="247.75" y="913.0732">LGM bevat Gegevenstype</text><text fill="#080000" font-family="Times New Roman" font-size="11" lengthAdjust="spacing" textLength="18" x="365.3016" y="843.2592">0..*</text><text fill="#080000" font-family="Times New Roman" font-size="11" lengthAdjust="spacing" textLength="18" x="342.9281" y="996.7764">1..*</text></g><!--SRC=[lLHTRzem57tFhxW2gUkWws1CNOTGf8qDAetnCFRnK5N89BU9HM97jYbYK_VRvpY1EW6vyB8yHF4zr-VSU-mRkQGi8uAa46OKtbzvCGqH0Yg218jlgL0WLvkiN6EQgGsac2vGI4_kzYUKOPu5NAYOMy1QaEmN3LKClKx7YYz8i8m4Nx5mo1CkG0d2f8QGAIjBnYJaQyeY6954eeKG8VYwsDhicCS2GxmdgqJ17mzWn9cQaXJXEqrHmXJNy8sdX9NGZFv6w7RBrPRmsX02VEGYH56LqT5QxSsHURn7guGfLrZL_o0eIMpLguEYDiam8LB-xou07ZqlCCgDLgkeWTxJW2YAq6erWCXQ46vlcvN8tHsOgjk3m51pVRWH-eEp9MxymMiJz8CA1mthmcECy06PJFHRw2iWPOP1lH1tKbwOCsDNw7WoWnZnNi5a_FMvogD43dwqEvqtd_o0XwZJ1sSfifMll-Pp_VexlFay_3BllNjxlYUV2Qwuvhc0doZMA9PwaBZ64DcIfrAzTFeWKJrhGprdpuLQGiK4dZuGvUGpcIwzutrqiEmPUz0JyykfUM1YTizvODjZXMN28og3UBSprPh9bgu4vrKmvosHTWNP2fH7VzqxTrwy2wV5vHq0U06pLOOYxq02OI78rS8i2h3uFmXCz2REP4mpsTT0TJeRdSlBRWFWbNvyC4lTeNjm-l0q41KspUxUMTBlrBJoOITjYUAkE2zLe_l4Mz0Uqy5Hj_bak-grzU68UN3QkDVj2IuUEugdj6bcg5zT7cxZS5bs_R0zkngvhWeMQ9zF3lm3]--></g></svg>