<?xml version="1.0" encoding="UTF-8"?><svg xmlns="http://www.w3.org/2000/svg" xmlns:xlink="http://www.w3.org/1999/xlink" fill-opacity="1" color-rendering="auto" color-interpolation="auto" text-rendering="auto" stroke="black" stroke-linecap="square" width="791" stroke-miterlimit="10" shape-rendering="auto" stroke-opacity="1" fill="black" stroke-dasharray="none" font-weight="normal" stroke-width="1" height="735" font-family="'Dialog'" font-style="normal" stroke-linejoin="miter" font-size="12px" stroke-dashoffset="0" image-rendering="auto">
  <!--Generated by ySVG 2.6-->
  <defs id="genericDefs"/>
  <g>
    <defs id="defs1">
      <clipPath clipPathUnits="userSpaceOnUse" id="clipPath1">
        <path d="M0 0 L791 0 L791 735 L0 735 L0 0 Z"/>
      </clipPath>
      <clipPath clipPathUnits="userSpaceOnUse" id="clipPath2">
        <path d="M49 -174 L840 -174 L840 561 L49 561 L49 -174 Z"/>
      </clipPath>
      <clipPath clipPathUnits="userSpaceOnUse" id="clipPath3">
        <path d="M326 19 L493 19 L493 77 L326 77 L326 19 Z"/>
      </clipPath>
      <clipPath clipPathUnits="userSpaceOnUse" id="clipPath4">
        <path d="M259 -158 L562 -158 L562 -68 L259 -68 L259 -158 Z"/>
      </clipPath>
      <clipPath clipPathUnits="userSpaceOnUse" id="clipPath5">
        <path d="M514 241 L823 241 L823 320 L514 320 L514 241 Z"/>
      </clipPath>
      <clipPath clipPathUnits="userSpaceOnUse" id="clipPath6">
        <path d="M251 459 L570 459 L570 545 L251 545 L251 459 Z"/>
      </clipPath>
      <clipPath clipPathUnits="userSpaceOnUse" id="clipPath7">
        <path d="M64 238 L313 238 L313 320 L64 320 L64 238 Z"/>
      </clipPath>
    </defs>
    <g fill="white" text-rendering="geometricPrecision" shape-rendering="geometricPrecision" transform="translate(-49,174)" stroke="white">
      <rect x="49" width="791" height="735" y="-174" clip-path="url(#clipPath2)" stroke="none"/>
    </g>
    <g id="y.node.0">
      <a target="_blank" xlink:type="simple" xlink:href="urn:fbm:facttype:Gegevensdeling" xlink:show="new">
        <g fill="rgb(255,255,199)" text-rendering="geometricPrecision" shape-rendering="geometricPrecision" transform="matrix(1,0,0,1,-49,174)" stroke="rgb(255,255,199)">
          <rect x="326.9657" width="167.8392" height="58.0585" y="19.9525" stroke="none"/>
        </g>
        <g text-rendering="geometricPrecision" stroke-miterlimit="1.45" shape-rendering="geometricPrecision" transform="matrix(1,0,0,1,-49,174)" stroke-linecap="butt">
          <rect fill="none" x="326.9657" width="167.8392" height="58.0585" y="19.9525"/>
          <text x="368.188" xml:space="preserve" y="37.0169" clip-path="url(#clipPath3)" font-family="sans-serif" stroke="none">&lt;&lt;Objecttype&gt;&gt;</text>
        </g>
        <g>
          <g font-size="13px" stroke-linecap="butt" transform="matrix(1,0,0,1,-49,174)" text-rendering="geometricPrecision" font-family="sans-serif" shape-rendering="geometricPrecision" font-weight="bold" stroke-miterlimit="1.45">
            <text x="360.6753" xml:space="preserve" y="61.7235" clip-path="url(#clipPath3)" stroke="none">Gegevensdeling</text>
          </g>
        </g>
      </a>
    </g>
    <g id="y.node.1">
      <a target="_blank" xlink:type="simple" xlink:href="urn:fbm:facttype:Gegevensverwerking" xlink:show="new">
        <g fill="rgb(255,255,199)" text-rendering="geometricPrecision" shape-rendering="geometricPrecision" transform="matrix(1,0,0,1,-49,174)" stroke="rgb(255,255,199)">
          <rect x="259.09" width="303.5906" height="90" y="-158.0267" stroke="none"/>
        </g>
        <g text-rendering="geometricPrecision" stroke-miterlimit="1.45" shape-rendering="geometricPrecision" transform="matrix(1,0,0,1,-49,174)" stroke-linecap="butt">
          <rect fill="none" x="259.09" width="303.5906" height="90" y="-158.0267"/>
          <text x="368.188" xml:space="preserve" y="-140.9622" clip-path="url(#clipPath4)" font-family="sans-serif" stroke="none">&lt;&lt;Objecttype&gt;&gt;</text>
        </g>
        <g>
          <g font-size="13px" stroke-linecap="butt" transform="matrix(1,0,0,1,-49,174)" text-rendering="geometricPrecision" font-family="sans-serif" shape-rendering="geometricPrecision" font-weight="bold" stroke-miterlimit="1.45">
            <text x="345.4917" xml:space="preserve" y="-116.2557" clip-path="url(#clipPath4)" stroke="none">Gegevensverwerking</text>
          </g>
        </g>
        <g text-rendering="geometricPrecision" shape-rendering="geometricPrecision" transform="matrix(1,0,0,1,-49,174)">
          <line y2="-108" fill="none" x1="260" clip-path="url(#clipPath4)" x2="561" y1="-108"/>
          <text stroke-linecap="butt" x="264.09" y="-91.3348" clip-path="url(#clipPath4)" font-family="sans-serif" stroke="none" stroke-miterlimit="1.45" xml:space="preserve">gegevensverwerking code: gegevensverwerking code</text>
          <line y2="-83" fill="none" x1="260" clip-path="url(#clipPath4)" x2="561" y1="-83"/>
        </g>
      </a>
    </g>
    <g id="y.node.2">
      <a target="_blank" xlink:type="simple" xlink:href="urn:fbm:facttype:Verwerkersovereenkomst" xlink:show="new">
        <g fill="rgb(255,255,199)" text-rendering="geometricPrecision" shape-rendering="geometricPrecision" transform="matrix(1,0,0,1,-49,174)" stroke="rgb(255,255,199)">
          <rect x="514.4669" width="309.5797" height="79.2734" y="241.6273" stroke="none"/>
        </g>
        <g text-rendering="geometricPrecision" stroke-miterlimit="1.45" shape-rendering="geometricPrecision" transform="matrix(1,0,0,1,-49,174)" stroke-linecap="butt">
          <rect fill="none" x="514.4669" width="309.5797" height="79.2734" y="241.6273"/>
          <text x="626.5594" xml:space="preserve" y="258.6918" clip-path="url(#clipPath5)" font-family="sans-serif" stroke="none">&lt;&lt;Objecttype&gt;&gt;</text>
        </g>
        <g>
          <g font-size="13px" stroke-linecap="butt" transform="matrix(1,0,0,1,-49,174)" text-rendering="geometricPrecision" font-family="sans-serif" shape-rendering="geometricPrecision" font-weight="bold" stroke-miterlimit="1.45">
            <text x="590.1268" xml:space="preserve" y="283.3983" clip-path="url(#clipPath5)" stroke="none">Verwerkersovereenkomst</text>
          </g>
        </g>
        <g text-rendering="geometricPrecision" shape-rendering="geometricPrecision" transform="matrix(1,0,0,1,-49,174)">
          <line y2="291" fill="none" x1="515" clip-path="url(#clipPath5)" x2="823" y1="291"/>
          <text stroke-linecap="butt" x="519.4669" y="308.3192" clip-path="url(#clipPath5)" font-family="sans-serif" stroke="none" stroke-miterlimit="1.45" xml:space="preserve">verwerkersovereenkomstcode: CharacterString</text>
          <line y2="315" fill="none" x1="515" clip-path="url(#clipPath5)" x2="823" y1="315"/>
        </g>
      </a>
    </g>
    <g id="y.node.3">
      <a target="_blank" xlink:type="simple" xlink:href="urn:fbm:facttype:Gegevensleveringsspecificatie" xlink:show="new">
        <g fill="rgb(255,255,199)" text-rendering="geometricPrecision" shape-rendering="geometricPrecision" transform="matrix(1,0,0,1,-49,174)" stroke="rgb(255,255,199)">
          <rect x="251.1046" width="319.5614" height="86.0073" y="459.358" stroke="none"/>
        </g>
        <g text-rendering="geometricPrecision" stroke-miterlimit="1.45" shape-rendering="geometricPrecision" transform="matrix(1,0,0,1,-49,174)" stroke-linecap="butt">
          <rect fill="none" x="251.1046" width="319.5614" height="86.0073" y="459.358"/>
          <text x="368.188" xml:space="preserve" y="476.4225" clip-path="url(#clipPath6)" font-family="sans-serif" stroke="none">&lt;&lt;Objecttype&gt;&gt;</text>
        </g>
        <g>
          <g font-size="13px" stroke-linecap="butt" transform="matrix(1,0,0,1,-49,174)" text-rendering="geometricPrecision" font-family="sans-serif" shape-rendering="geometricPrecision" font-weight="bold" stroke-miterlimit="1.45">
            <text x="315.864" xml:space="preserve" y="501.129" clip-path="url(#clipPath6)" stroke="none">Gegevensleveringsspecificatie</text>
          </g>
        </g>
        <g text-rendering="geometricPrecision" shape-rendering="geometricPrecision" transform="matrix(1,0,0,1,-49,174)">
          <line y2="508" fill="none" x1="252" clip-path="url(#clipPath6)" x2="569" y1="508"/>
          <text stroke-linecap="butt" x="256.1046" y="526.0499" clip-path="url(#clipPath6)" font-family="sans-serif" stroke="none" stroke-miterlimit="1.45" xml:space="preserve">gls-code: CharacterString</text>
          <line y2="533" fill="none" x1="252" clip-path="url(#clipPath6)" x2="569" y1="533"/>
        </g>
      </a>
    </g>
    <g id="y.node.4">
      <a target="_blank" xlink:type="simple" xlink:href="urn:fbm:facttype:Gegevensleveringsprotocol" xlink:show="new">
        <g fill="rgb(255,255,199)" text-rendering="geometricPrecision" shape-rendering="geometricPrecision" transform="matrix(1,0,0,1,-49,174)" stroke="rgb(255,255,199)">
          <rect x="64.1056" width="249.6893" height="82.1997" y="238.8642" stroke="none"/>
        </g>
        <g text-rendering="geometricPrecision" stroke-miterlimit="1.45" shape-rendering="geometricPrecision" transform="matrix(1,0,0,1,-49,174)" stroke-linecap="butt">
          <rect fill="none" x="64.1056" width="249.6893" height="82.1997" y="238.8642"/>
          <text x="146.2529" xml:space="preserve" y="255.9286" clip-path="url(#clipPath7)" font-family="sans-serif" stroke="none">&lt;&lt;Objecttype&gt;&gt;</text>
        </g>
        <g>
          <g font-size="13px" stroke-linecap="butt" transform="matrix(1,0,0,1,-49,174)" text-rendering="geometricPrecision" font-family="sans-serif" shape-rendering="geometricPrecision" font-weight="bold" stroke-miterlimit="1.45">
            <text x="103.3394" xml:space="preserve" y="280.6352" clip-path="url(#clipPath7)" stroke="none">Gegevensleveringsprotocol</text>
          </g>
        </g>
        <g text-rendering="geometricPrecision" shape-rendering="geometricPrecision" transform="matrix(1,0,0,1,-49,174)">
          <line y2="288" fill="none" x1="65" clip-path="url(#clipPath7)" x2="312" y1="288"/>
          <text stroke-linecap="butt" x="69.1056" y="305.5561" clip-path="url(#clipPath7)" font-family="sans-serif" stroke="none" stroke-miterlimit="1.45" xml:space="preserve">glp-code: CharacterString</text>
          <line y2="313" fill="none" x1="65" clip-path="url(#clipPath7)" x2="312" y1="313"/>
        </g>
      </a>
    </g>
    <g id="y.edge.4">
      <g text-rendering="geometricPrecision" stroke-miterlimit="1.45" shape-rendering="geometricPrecision" transform="matrix(1,0,0,1,-49,174)" stroke-linecap="butt">
        <path fill="none" d="M410.8853 19.9895 L410.8853 -53.0493"/>
        <path fill="white" d="M410.8853 -68.0493 L404.8853 -52.0493 L416.8853 -52.0493 Z" stroke="none"/>
        <path fill="none" d="M410.8853 -68.0493 L404.8853 -52.0493 L416.8853 -52.0493 Z"/>
      </g>
    </g>
    <g id="y.edge.0">
      <a target="_blank" xlink:type="simple" xlink:href="urn:fbm:facttype:Verwerkersovereenkomst_voor_Gegevensdeling" xlink:show="new">
        <g text-rendering="geometricPrecision" stroke-miterlimit="1.45" shape-rendering="geometricPrecision" transform="matrix(1,0,0,1,-49,174)" stroke-linecap="butt">
          <path fill="none" d="M625.196 241.6524 L443.1941 78.0282"/>
        </g>
        <g>
          <g text-rendering="geometricPrecision" stroke-miterlimit="1.45" shape-rendering="geometricPrecision" font-family="sans-serif" transform="matrix(1,0,0,1,-49,174)" stroke-linecap="butt">
            <text x="430.0776" xml:space="preserve" y="184.5827" stroke="none">Verwerkersovereenkomst voor Gegevensdeling</text>
          </g>
        </g>
        <g>
          <g text-rendering="geometricPrecision" stroke-miterlimit="1.45" shape-rendering="geometricPrecision" font-family="sans-serif" transform="matrix(1,0,0,1,-49,174)" stroke-linecap="butt">
            <text x="495.4821" xml:space="preserve" y="164.533" stroke="none">«Relatiesoort»</text>
          </g>
        </g>
        <g>
          <g text-rendering="geometricPrecision" stroke-miterlimit="1.45" shape-rendering="geometricPrecision" font-family="sans-serif" transform="matrix(1,0,0,1,-49,174)" stroke-linecap="butt">
            <text x="623.8502" xml:space="preserve" y="231.9906" stroke="none">0..*</text>
          </g>
        </g>
        <g>
          <g text-rendering="geometricPrecision" stroke-miterlimit="1.45" shape-rendering="geometricPrecision" font-family="sans-serif" transform="matrix(1,0,0,1,-49,174)" stroke-linecap="butt">
            <text x="473.7818" xml:space="preserve" y="97.0754" stroke="none">0..*</text>
          </g>
        </g>
      </a>
    </g>
    <g id="y.edge.1">
      <a target="_blank" xlink:type="simple" xlink:href="urn:fbm:facttype:GLS_hoort_bij_Verwerkersovereenkomst" xlink:show="new">
        <g text-rendering="geometricPrecision" stroke-miterlimit="1.45" shape-rendering="geometricPrecision" transform="matrix(1,0,0,1,-49,174)" stroke-linecap="butt">
          <path fill="none" d="M461.1277 459.3675 L622.9409 320.8981"/>
        </g>
        <g>
          <g text-rendering="geometricPrecision" stroke-miterlimit="1.45" shape-rendering="geometricPrecision" font-family="sans-serif" transform="matrix(1,0,0,1,-49,174)" stroke-linecap="butt">
            <text x="437.3283" xml:space="preserve" y="394.8433" stroke="none">GLS hoort bij Verwerkersovereenkomst</text>
          </g>
        </g>
        <g>
          <g text-rendering="geometricPrecision" stroke-miterlimit="1.45" shape-rendering="geometricPrecision" font-family="sans-serif" transform="matrix(1,0,0,1,-49,174)" stroke-linecap="butt">
            <text x="520.5363" xml:space="preserve" y="380.1353" stroke="none">«Relatiesoort»</text>
          </g>
        </g>
        <g>
          <g text-rendering="geometricPrecision" stroke-miterlimit="1.45" shape-rendering="geometricPrecision" font-family="sans-serif" transform="matrix(1,0,0,1,-49,174)" stroke-linecap="butt">
            <text x="493.1426" xml:space="preserve" y="449.7213" stroke="none">0..*</text>
          </g>
        </g>
        <g>
          <g text-rendering="geometricPrecision" stroke-miterlimit="1.45" shape-rendering="geometricPrecision" font-family="sans-serif" transform="matrix(1,0,0,1,-49,174)" stroke-linecap="butt">
            <text x="621.402" xml:space="preserve" y="339.9652" stroke="none">0..*</text>
          </g>
        </g>
      </a>
    </g>
    <g id="y.edge.3">
      <a target="_blank" xlink:type="simple" xlink:href="urn:fbm:facttype:GLS_hoort_bij_GLP" xlink:show="new">
        <g text-rendering="geometricPrecision" stroke-miterlimit="1.45" shape-rendering="geometricPrecision" transform="matrix(1,0,0,1,-49,174)" stroke-linecap="butt">
          <path fill="none" d="M367.9449 459.3318 L229.9626 321.0618"/>
        </g>
        <g>
          <g text-rendering="geometricPrecision" stroke-miterlimit="1.45" shape-rendering="geometricPrecision" font-family="sans-serif" transform="matrix(1,0,0,1,-49,174)" stroke-linecap="butt">
            <text x="250.2764" xml:space="preserve" y="394.9248" stroke="none">GLS hoort bij GLP</text>
          </g>
        </g>
        <g>
          <g text-rendering="geometricPrecision" stroke-miterlimit="1.45" shape-rendering="geometricPrecision" font-family="sans-serif" transform="matrix(1,0,0,1,-49,174)" stroke-linecap="butt">
            <text x="246.2179" xml:space="preserve" y="380.8351" stroke="none">«Relatiesoort»</text>
          </g>
        </g>
        <g>
          <g text-rendering="geometricPrecision" stroke-miterlimit="1.45" shape-rendering="geometricPrecision" font-family="sans-serif" transform="matrix(1,0,0,1,-49,174)" stroke-linecap="butt">
            <text x="367.1006" xml:space="preserve" y="449.7213" stroke="none">0..*</text>
          </g>
        </g>
        <g>
          <g text-rendering="geometricPrecision" stroke-miterlimit="1.45" shape-rendering="geometricPrecision" font-family="sans-serif" transform="matrix(1,0,0,1,-49,174)" stroke-linecap="butt">
            <text x="257.7355" xml:space="preserve" y="340.1283" stroke="none">0..*</text>
          </g>
        </g>
      </a>
    </g>
    <g id="y.edge.2">
      <a target="_blank" xlink:type="simple" xlink:href="urn:fbm:facttype:GLP_voor_Gegevensdeling" xlink:show="new">
        <g text-rendering="geometricPrecision" stroke-miterlimit="1.45" shape-rendering="geometricPrecision" transform="matrix(1,0,0,1,-49,174)" stroke-linecap="butt">
          <path fill="none" d="M228.4228 238.8823 L382.9769 78.0278"/>
        </g>
        <g>
          <g text-rendering="geometricPrecision" stroke-miterlimit="1.45" shape-rendering="geometricPrecision" font-family="sans-serif" transform="matrix(1,0,0,1,-49,174)" stroke-linecap="butt">
            <text x="222.5476" xml:space="preserve" y="176.465" stroke="none">GLP voor Gegevensdeling</text>
          </g>
        </g>
        <g>
          <g text-rendering="geometricPrecision" stroke-miterlimit="1.45" shape-rendering="geometricPrecision" font-family="sans-serif" transform="matrix(1,0,0,1,-49,174)" stroke-linecap="butt">
            <text x="279.2806" xml:space="preserve" y="150.3986" stroke="none">«Relatiesoort»</text>
          </g>
        </g>
        <g>
          <g text-rendering="geometricPrecision" stroke-miterlimit="1.45" shape-rendering="geometricPrecision" font-family="sans-serif" transform="matrix(1,0,0,1,-49,174)" stroke-linecap="butt">
            <text x="255.2933" xml:space="preserve" y="229.2274" stroke="none">0..*</text>
          </g>
        </g>
        <g>
          <g text-rendering="geometricPrecision" stroke-miterlimit="1.45" shape-rendering="geometricPrecision" font-family="sans-serif" transform="matrix(1,0,0,1,-49,174)" stroke-linecap="butt">
            <text x="382.2691" xml:space="preserve" y="97.0754" stroke="none">0..*</text>
          </g>
        </g>
      </a>
    </g>
  </g>
</svg>
