<svg xmlns="http://www.w3.org/2000/svg" xmlns:xlink="http://www.w3.org/1999/xlink" contentStyleType="text/css" data-diagram-type="CLASS" height="301px" preserveAspectRatio="none" style="width:926px;height:301px;" version="1.1" viewBox="0 0 926 301" width="926px" zoomAndPan="magnify"><defs/><g><!--class DPIA--><a href="#DPIA" target="_top" title="#DPIA" xlink:actuate="onRequest" xlink:href="#DPIA" xlink:show="new" xlink:title="#DPIA" xlink:type="simple"><g id="elem_DPIA"><rect codeLine="32" fill="#FFFFFF" height="63.2801" id="DPIA" rx="4" ry="4" style="stroke:#000000;stroke-width:0.5;" width="220.104" x="452.75" y="113"/><text fill="#080000" font-family="Times New Roman" font-size="11" font-weight="bold" lengthAdjust="spacing" textLength="2.75" x="547.9832" y="128.2695">&#160;</text><text fill="#080000" font-family="Times New Roman" font-size="11" font-weight="bold" lengthAdjust="spacing" textLength="26.8877" x="550.7332" y="128.2695">DPIA</text><line style="stroke:#000000;stroke-width:0.5;" x1="453.75" x2="671.854" y1="135.6489" y2="135.6489"/><ellipse cx="463.75" cy="147.4734" fill="#FFFFFF" fill-opacity="0.00000" rx="3" ry="3" style="stroke:#038048;stroke-width:1;"/><text fill="#080000" font-family="Times New Roman" font-size="11" lengthAdjust="spacing" textLength="65.377" x="470.75" y="149.9185">Stroomschema</text><text fill="#080000" font-family="Times New Roman" font-size="11" lengthAdjust="spacing" textLength="2.75" x="536.127" y="149.9185">&#160;</text><text fill="#080000" font-family="Times New Roman" font-size="11" lengthAdjust="spacing" textLength="101.4009" x="538.877" y="149.9185">gegevensverwerkingen</text><text fill="#080000" font-family="Times New Roman" font-size="11" lengthAdjust="spacing" textLength="2.75" x="640.2778" y="149.9185">&#160;</text><text fill="#080000" font-family="Times New Roman" font-size="11" lengthAdjust="spacing" textLength="23.8262" x="643.0278" y="149.9185">[0..*]</text><ellipse cx="463.75" cy="160.1223" fill="#FFFFFF" fill-opacity="0.00000" rx="3" ry="3" style="stroke:#038048;stroke-width:1;"/><path d="M476.7917,154.8634 C475.5267,154.8634 474.5,155.8901 474.5,157.1551 C474.5,157.3018 474.5,157.4484 474.5275,157.5859 L471.75,160.3634 L471.75,162.1968 L474.5,162.1968 L474.5,160.3634 L476.3333,160.3634 L476.3333,159.4468 L476.3608,159.4193 C476.4983,159.4468 476.645,159.4468 476.7917,159.4468 C478.0567,159.4468 479.0833,158.4201 479.0833,157.1551 C479.0833,155.8901 478.0567,154.8634 476.7917,154.8634 M477.25,155.7801 C477.7542,155.7801 478.1667,156.1926 478.1667,156.6968 C478.1667,157.2009 477.7542,157.6134 477.25,157.6134 C476.7458,157.6134 476.3333,157.2009 476.3333,156.6968 C476.3333,156.1926 476.7458,155.7801 477.25,155.7801 " fill="#FFA500"/><text fill="#080000" font-family="Times New Roman" font-size="11" lengthAdjust="spacing" textLength="18.9385" x="480.0833" y="162.5674">dpia</text><text fill="#080000" font-family="Times New Roman" font-size="11" lengthAdjust="spacing" textLength="2.75" x="499.0218" y="162.5674">&#160;</text><text fill="#080000" font-family="Times New Roman" font-size="11" lengthAdjust="spacing" textLength="20.7646" x="501.7718" y="162.5674">code</text><path d="M471.75,165.8634 L471.75,166.7801 L479.0833,166.7801 L479.0833,165.8634 L471.75,165.8634 M471.75,168.5859 L471.75,169.5026 L479.0833,169.5026 L479.0833,168.5859 L471.75,168.5859 M471.75,171.3359 L471.75,172.2526 L479.0833,172.2526 L479.0833,171.3359 L471.75,171.3359 " fill="#080000"/></g></a><!--class Gegevenssetspecificatie__gegevensverwerking__persoonsgegevens--><a href="#Gegevenssetspecificatie+gegevensverwerking+persoonsgegevens" target="_top" title="#Gegevenssetspecificatie+gegevensverwerking+persoonsgegevens" xlink:actuate="onRequest" xlink:href="#Gegevenssetspecificatie+gegevensverwerking+persoonsgegevens" xlink:show="new" xlink:title="#Gegevenssetspecificatie+gegevensverwerking+persoonsgegevens" xlink:type="simple"><g id="elem_Gegevenssetspecificatie__gegevensverwerking__persoonsgegevens"><rect codeLine="38" fill="#FFFFFF" height="55.9468" id="Gegevenssetspecificatie__gegevensverwerking__persoonsgegevens" rx="4" ry="4" style="stroke:#000000;stroke-width:0.5;" width="302.0171" x="494.75" y="239"/><text fill="#080000" font-family="Times New Roman" font-size="11" font-weight="bold" lengthAdjust="spacing" textLength="2.75" x="497.75" y="254.2695">&#160;</text><text fill="#080000" font-family="Times New Roman" font-size="11" font-weight="bold" lengthAdjust="spacing" textLength="109.3501" x="500.5" y="254.2695">Gegevenssetspecificatie</text><text fill="#080000" font-family="Times New Roman" font-size="11" font-weight="bold" lengthAdjust="spacing" textLength="2.75" x="609.8501" y="254.2695">&#160;</text><text fill="#080000" font-family="Times New Roman" font-size="11" font-weight="bold" lengthAdjust="spacing" textLength="95.3101" x="612.6001" y="254.2695">gegevensverwerking</text><text fill="#080000" font-family="Times New Roman" font-size="11" font-weight="bold" lengthAdjust="spacing" textLength="2.75" x="707.9102" y="254.2695">&#160;</text><text fill="#080000" font-family="Times New Roman" font-size="11" font-weight="bold" lengthAdjust="spacing" textLength="83.1069" x="710.6602" y="254.2695">persoonsgegevens</text><line style="stroke:#000000;stroke-width:0.5;" x1="495.75" x2="795.7671" y1="261.6489" y2="261.6489"/><ellipse cx="505.75" cy="273.4734" fill="#FFFFFF" fill-opacity="0.00000" rx="3" ry="3" style="stroke:#038048;stroke-width:1;"/><path d="M518.7917,268.2145 C517.5267,268.2145 516.5,269.2412 516.5,270.5062 C516.5,270.6529 516.5,270.7995 516.5275,270.937 L513.75,273.7145 L513.75,275.5479 L516.5,275.5479 L516.5,273.7145 L518.3333,273.7145 L518.3333,272.7979 L518.3608,272.7704 C518.4983,272.7979 518.645,272.7979 518.7917,272.7979 C520.0567,272.7979 521.0833,271.7712 521.0833,270.5062 C521.0833,269.2412 520.0567,268.2145 518.7917,268.2145 M519.25,269.1312 C519.7542,269.1312 520.1667,269.5437 520.1667,270.0479 C520.1667,270.552 519.7542,270.9645 519.25,270.9645 C518.7458,270.9645 518.3333,270.552 518.3333,270.0479 C518.3333,269.5437 518.7458,269.1312 519.25,269.1312 " fill="#FFA500"/><text fill="#080000" font-family="Times New Roman" font-size="11" font-style="italic" lengthAdjust="spacing" textLength="92.2378" x="522.0833" y="275.9185">Gegevensverwerking</text><text fill="#080000" font-family="Times New Roman" font-size="11" font-style="italic" lengthAdjust="spacing" textLength="2.75" x="614.3211" y="275.9185">&#160;</text><text fill="#080000" font-family="Times New Roman" font-size="11" font-style="italic" lengthAdjust="spacing" textLength="80.0347" x="617.0711" y="275.9185">persoonsgegevens</text><text fill="#080000" font-family="Times New Roman" font-size="11" lengthAdjust="spacing" textLength="2.75" x="697.1058" y="275.9185">&#160;</text><path d="M700.9383,268.2145 C700.8833,268.2145 700.8558,268.2512 700.8558,268.297 L700.8558,275.4562 C700.8558,275.502 700.8925,275.5387 700.9383,275.5387 L707.1808,275.5387 C707.2266,275.5387 707.2633,275.502 707.2633,275.4562 L707.2633,268.297 C707.2633,268.242 707.2266,268.2145 707.1808,268.2145 L700.9383,268.2145 M701.7725,269.1312 L706.3558,269.1312 L706.3558,270.9645 L701.7725,270.9645 L701.7725,269.1312 M701.7725,271.8812 L702.6891,271.8812 L702.6891,272.7979 L701.7725,272.7979 L701.7725,271.8812 M703.6058,271.8812 L704.5225,271.8812 L704.5225,272.7979 L703.6058,272.7979 L703.6058,271.8812 M705.4391,271.8812 L706.3558,271.8812 L706.3558,274.6312 L705.4391,274.6312 L705.4391,271.8812 M701.7725,273.7145 L702.6891,273.7145 L702.6891,274.6312 L701.7725,274.6312 L701.7725,273.7145 M703.6058,273.7145 L704.5225,273.7145 L704.5225,274.6312 L703.6058,274.6312 L703.6058,273.7145 " fill="#080000"/><ellipse cx="505.75" cy="286.1223" fill="#FFFFFF" fill-opacity="0.00000" rx="3" ry="3" style="stroke:#038048;stroke-width:1;"/><path d="M518.7917,280.8634 C517.5267,280.8634 516.5,281.8901 516.5,283.1551 C516.5,283.3018 516.5,283.4484 516.5275,283.5859 L513.75,286.3634 L513.75,288.1968 L516.5,288.1968 L516.5,286.3634 L518.3333,286.3634 L518.3333,285.4468 L518.3608,285.4193 C518.4983,285.4468 518.645,285.4468 518.7917,285.4468 C520.0567,285.4468 521.0833,284.4201 521.0833,283.1551 C521.0833,281.8901 520.0567,280.8634 518.7917,280.8634 M519.25,281.7801 C519.7542,281.7801 520.1667,282.1926 520.1667,282.6968 C520.1667,283.2009 519.7542,283.6134 519.25,283.6134 C518.7458,283.6134 518.3333,283.2009 518.3333,282.6968 C518.3333,282.1926 518.7458,281.7801 519.25,281.7801 " fill="#FFA500"/><text fill="#080000" font-family="Times New Roman" font-size="11" font-style="italic" lengthAdjust="spacing" textLength="76.9731" x="522.0833" y="288.5674">Persoonsgegeven</text><text fill="#080000" font-family="Times New Roman" font-size="11" lengthAdjust="spacing" textLength="2.75" x="599.0565" y="288.5674">&#160;</text><path d="M602.889,280.8634 C602.834,280.8634 602.8065,280.9001 602.8065,280.9459 L602.8065,288.1051 C602.8065,288.1509 602.8431,288.1876 602.889,288.1876 L609.1315,288.1876 C609.1773,288.1876 609.214,288.1509 609.214,288.1051 L609.214,280.9459 C609.214,280.8909 609.1773,280.8634 609.1315,280.8634 L602.889,280.8634 M603.7231,281.7801 L608.3065,281.7801 L608.3065,283.6134 L603.7231,283.6134 L603.7231,281.7801 M603.7231,284.5301 L604.6398,284.5301 L604.6398,285.4468 L603.7231,285.4468 L603.7231,284.5301 M605.5565,284.5301 L606.4731,284.5301 L606.4731,285.4468 L605.5565,285.4468 L605.5565,284.5301 M607.3898,284.5301 L608.3065,284.5301 L608.3065,287.2801 L607.3898,287.2801 L607.3898,284.5301 M603.7231,286.3634 L604.6398,286.3634 L604.6398,287.2801 L603.7231,287.2801 L603.7231,286.3634 M605.5565,286.3634 L606.4731,286.3634 L606.4731,287.2801 L605.5565,287.2801 L605.5565,286.3634 " fill="#080000"/></g></a><!--class Gegevenstype--><a href="#Gegevenstype" target="_top" title="#Gegevenstype" xlink:actuate="onRequest" xlink:href="#Gegevenstype" xlink:show="new" xlink:title="#Gegevenstype" xlink:type="simple"><g id="elem_Gegevenstype"><rect codeLine="43" fill="#FFFFFF" height="50.6312" id="Gegevenstype" rx="4" ry="4" style="stroke:#000000;stroke-width:0.5;" width="116.7142" x="781.25" y="119"/><text fill="#080000" font-family="Times New Roman" font-size="11" font-weight="bold" lengthAdjust="spacing" textLength="2.75" x="805.8498" y="134.2695">&#160;</text><text fill="#080000" font-family="Times New Roman" font-size="11" font-weight="bold" lengthAdjust="spacing" textLength="64.7646" x="808.5998" y="134.2695">Gegevenstype</text><line style="stroke:#000000;stroke-width:0.5;" x1="782.25" x2="896.9642" y1="141.6489" y2="141.6489"/><ellipse cx="792.25" cy="153.4734" fill="#FFFFFF" fill-opacity="0.00000" rx="3" ry="3" style="stroke:#038048;stroke-width:1;"/><path d="M805.2917,148.2145 C804.0267,148.2145 803,149.2412 803,150.5062 C803,150.6529 803,150.7995 803.0275,150.937 L800.25,153.7145 L800.25,155.5479 L803,155.5479 L803,153.7145 L804.8333,153.7145 L804.8333,152.7979 L804.8608,152.7704 C804.9983,152.7979 805.145,152.7979 805.2917,152.7979 C806.5567,152.7979 807.5833,151.7712 807.5833,150.5062 C807.5833,149.2412 806.5567,148.2145 805.2917,148.2145 M805.75,149.1312 C806.2542,149.1312 806.6667,149.5437 806.6667,150.0479 C806.6667,150.552 806.2542,150.9645 805.75,150.9645 C805.2458,150.9645 804.8333,150.552 804.8333,150.0479 C804.8333,149.5437 805.2458,149.1312 805.75,149.1312 " fill="#FFA500"/><text fill="#080000" font-family="Times New Roman" font-size="11" lengthAdjust="spacing" textLength="59.8662" x="808.5833" y="155.9185">gegevenstype</text><text fill="#080000" font-family="Times New Roman" font-size="11" lengthAdjust="spacing" textLength="2.75" x="868.4495" y="155.9185">&#160;</text><text fill="#080000" font-family="Times New Roman" font-size="11" lengthAdjust="spacing" textLength="20.7646" x="871.1995" y="155.9185">code</text><path d="M800.25,159.2145 L800.25,160.1312 L807.5833,160.1312 L807.5833,159.2145 L800.25,159.2145 M800.25,161.937 L800.25,162.8537 L807.5833,162.8537 L807.5833,161.937 L800.25,161.937 M800.25,164.687 L800.25,165.6037 L807.5833,165.6037 L807.5833,164.687 L800.25,164.687 " fill="#080000"/></g></a><!--class Gegevensverwerking--><a href="#Gegevensverwerking" target="_top" title="#Gegevensverwerking" xlink:actuate="onRequest" xlink:href="#Gegevensverwerking" xlink:show="new" xlink:title="#Gegevensverwerking" xlink:type="simple"><g id="elem_Gegevensverwerking"><rect codeLine="48" fill="#FFFFFF" height="68.5957" id="Gegevensverwerking" rx="4" ry="4" style="stroke:#000000;stroke-width:0.5;" width="199.3232" x="147.25" y="110"/><text fill="#080000" font-family="Times New Roman" font-size="11" font-weight="bold" lengthAdjust="spacing" textLength="2.75" x="196.3535" y="125.2695">&#160;</text><text fill="#080000" font-family="Times New Roman" font-size="11" font-weight="bold" lengthAdjust="spacing" textLength="98.3662" x="199.1035" y="125.2695">Gegevensverwerking</text><line style="stroke:#000000;stroke-width:0.5;" x1="148.25" x2="345.5732" y1="132.6489" y2="132.6489"/><ellipse cx="158.25" cy="144.4734" fill="#FFFFFF" fill-opacity="0.00000" rx="3" ry="3" style="stroke:#038048;stroke-width:1;"/><text fill="#080000" font-family="Times New Roman" font-size="11" lengthAdjust="spacing" textLength="93.4624" x="165.25" y="146.9185">Gegevensverwerking</text><text fill="#080000" font-family="Times New Roman" font-size="11" lengthAdjust="spacing" textLength="2.75" x="258.7124" y="146.9185">&#160;</text><text fill="#080000" font-family="Times New Roman" font-size="11" lengthAdjust="spacing" textLength="21.9839" x="261.4624" y="146.9185">heeft</text><text fill="#080000" font-family="Times New Roman" font-size="11" lengthAdjust="spacing" textLength="2.75" x="283.4463" y="146.9185">&#160;</text><text fill="#080000" font-family="Times New Roman" font-size="11" lengthAdjust="spacing" textLength="54.377" x="286.1963" y="146.9185">beschrijving</text><ellipse cx="158.25" cy="157.1223" fill="#FFFFFF" fill-opacity="0.00000" rx="3" ry="3" style="stroke:#038048;stroke-width:1;"/><text fill="#080000" font-family="Times New Roman" font-size="11" lengthAdjust="spacing" textLength="93.4624" x="165.25" y="159.5674">Gegevensverwerking</text><text fill="#080000" font-family="Times New Roman" font-size="11" lengthAdjust="spacing" textLength="2.75" x="258.7124" y="159.5674">&#160;</text><text fill="#080000" font-family="Times New Roman" font-size="11" lengthAdjust="spacing" textLength="21.9839" x="261.4624" y="159.5674">heeft</text><text fill="#080000" font-family="Times New Roman" font-size="11" lengthAdjust="spacing" textLength="2.75" x="283.4463" y="159.5674">&#160;</text><text fill="#080000" font-family="Times New Roman" font-size="11" lengthAdjust="spacing" textLength="23.8208" x="286.1963" y="159.5674">naam</text><ellipse cx="158.25" cy="169.7712" fill="#FFFFFF" fill-opacity="0.00000" rx="3" ry="3" style="stroke:#038048;stroke-width:1;"/><path d="M171.2917,164.5124 C170.0267,164.5124 169,165.539 169,166.804 C169,166.9507 169,167.0974 169.0275,167.2349 L166.25,170.0124 L166.25,171.8457 L169,171.8457 L169,170.0124 L170.8333,170.0124 L170.8333,169.0957 L170.8608,169.0682 C170.9983,169.0957 171.145,169.0957 171.2917,169.0957 C172.5567,169.0957 173.5833,168.069 173.5833,166.804 C173.5833,165.539 172.5567,164.5124 171.2917,164.5124 M171.75,165.429 C172.2542,165.429 172.6667,165.8415 172.6667,166.3457 C172.6667,166.8499 172.2542,167.2624 171.75,167.2624 C171.2458,167.2624 170.8333,166.8499 170.8333,166.3457 C170.8333,165.8415 171.2458,165.429 171.75,165.429 " fill="#FFA500"/><text fill="#080000" font-family="Times New Roman" font-size="11" lengthAdjust="spacing" textLength="91.0186" x="174.5833" y="172.2163">gegevensverwerking</text><text fill="#080000" font-family="Times New Roman" font-size="11" lengthAdjust="spacing" textLength="2.75" x="265.6019" y="172.2163">&#160;</text><text fill="#080000" font-family="Times New Roman" font-size="11" lengthAdjust="spacing" textLength="20.7646" x="268.3519" y="172.2163">code</text></g></a><!--class Gegevensverwerking__persoonsgegevens--><a href="#Gegevensverwerking+persoonsgegevens" target="_top" title="#Gegevensverwerking+persoonsgegevens" xlink:actuate="onRequest" xlink:href="#Gegevensverwerking+persoonsgegevens" xlink:show="new" xlink:title="#Gegevensverwerking+persoonsgegevens" xlink:type="simple"><g id="elem_Gegevensverwerking__persoonsgegevens"><rect codeLine="54" fill="#FFFFFF" height="22.6489" id="Gegevensverwerking__persoonsgegevens" rx="4" ry="4" style="stroke:#000000;stroke-width:0.5;" width="192.9731" x="266.25" y="255.5"/><text fill="#080000" font-family="Times New Roman" font-size="11" font-weight="bold" lengthAdjust="spacing" textLength="2.75" x="269.25" y="270.7695">&#160;</text><text fill="#080000" font-family="Times New Roman" font-size="11" font-weight="bold" lengthAdjust="spacing" textLength="98.3662" x="272" y="270.7695">Gegevensverwerking</text><text fill="#080000" font-family="Times New Roman" font-size="11" font-weight="bold" lengthAdjust="spacing" textLength="2.75" x="370.3662" y="270.7695">&#160;</text><text fill="#080000" font-family="Times New Roman" font-size="11" font-weight="bold" lengthAdjust="spacing" textLength="83.1069" x="373.1162" y="270.7695">persoonsgegevens</text></g></a><!--class Organisatorische__activiteit--><a href="#Organisatorische+activiteit" target="_top" title="#Organisatorische+activiteit" xlink:actuate="onRequest" xlink:href="#Organisatorische+activiteit" xlink:show="new" xlink:title="#Organisatorische+activiteit" xlink:type="simple"><g id="elem_Organisatorische__activiteit"><rect codeLine="57" fill="#FFFFFF" height="43.2979" id="Organisatorische__activiteit" rx="4" ry="4" style="stroke:#000000;stroke-width:0.5;" width="170.1673" x="161.75" y="7"/><text fill="#080000" font-family="Times New Roman" font-size="11" font-weight="bold" lengthAdjust="spacing" textLength="2.75" x="183.2936" y="22.2695">&#160;</text><text fill="#080000" font-family="Times New Roman" font-size="11" font-weight="bold" lengthAdjust="spacing" textLength="80.6577" x="186.0436" y="22.2695">Organisatorische</text><text fill="#080000" font-family="Times New Roman" font-size="11" font-weight="bold" lengthAdjust="spacing" textLength="2.75" x="266.7013" y="22.2695">&#160;</text><text fill="#080000" font-family="Times New Roman" font-size="11" font-weight="bold" lengthAdjust="spacing" textLength="40.9224" x="269.4513" y="22.2695">activiteit</text><line style="stroke:#000000;stroke-width:0.5;" x1="162.75" x2="330.9173" y1="29.6489" y2="29.6489"/><ellipse cx="172.75" cy="41.4734" fill="#FFFFFF" fill-opacity="0.00000" rx="3" ry="3" style="stroke:#038048;stroke-width:1;"/><path d="M185.7917,36.2145 C184.5267,36.2145 183.5,37.2412 183.5,38.5062 C183.5,38.6529 183.5,38.7995 183.5275,38.937 L180.75,41.7145 L180.75,43.5479 L183.5,43.5479 L183.5,41.7145 L185.3333,41.7145 L185.3333,40.7979 L185.3608,40.7704 C185.4983,40.7979 185.645,40.7979 185.7917,40.7979 C187.0567,40.7979 188.0833,39.7712 188.0833,38.5062 C188.0833,37.2412 187.0567,36.2145 185.7917,36.2145 M186.25,37.1312 C186.7542,37.1312 187.1667,37.5437 187.1667,38.0479 C187.1667,38.552 186.7542,38.9645 186.25,38.9645 C185.7458,38.9645 185.3333,38.552 185.3333,38.0479 C185.3333,37.5437 185.7458,37.1312 186.25,37.1312 " fill="#FFA500"/><text fill="#080000" font-family="Times New Roman" font-size="11" lengthAdjust="spacing" textLength="72.0854" x="189.0833" y="43.9185">organisatorische</text><text fill="#080000" font-family="Times New Roman" font-size="11" lengthAdjust="spacing" textLength="2.75" x="261.1688" y="43.9185">&#160;</text><text fill="#080000" font-family="Times New Roman" font-size="11" lengthAdjust="spacing" textLength="38.4839" x="263.9188" y="43.9185">activiteit</text><text fill="#080000" font-family="Times New Roman" font-size="11" lengthAdjust="spacing" textLength="2.75" x="302.4027" y="43.9185">&#160;</text><text fill="#080000" font-family="Times New Roman" font-size="11" lengthAdjust="spacing" textLength="20.7646" x="305.1527" y="43.9185">code</text></g></a><!--class Organisatorische__activiteit__persoonsgegevens--><a href="#Organisatorische+activiteit+persoonsgegevens" target="_top" title="#Organisatorische+activiteit+persoonsgegevens" xlink:actuate="onRequest" xlink:href="#Organisatorische+activiteit+persoonsgegevens" xlink:show="new" xlink:title="#Organisatorische+activiteit+persoonsgegevens" xlink:type="simple"><g id="elem_Organisatorische__activiteit__persoonsgegevens"><rect codeLine="61" fill="#FFFFFF" height="22.6489" id="Organisatorische__activiteit__persoonsgegevens" rx="4" ry="4" style="stroke:#000000;stroke-width:0.5;" width="218.937" x="367.25" y="17"/><text fill="#080000" font-family="Times New Roman" font-size="11" font-weight="bold" lengthAdjust="spacing" textLength="2.75" x="370.25" y="32.2695">&#160;</text><text fill="#080000" font-family="Times New Roman" font-size="11" font-weight="bold" lengthAdjust="spacing" textLength="80.6577" x="373" y="32.2695">Organisatorische</text><text fill="#080000" font-family="Times New Roman" font-size="11" font-weight="bold" lengthAdjust="spacing" textLength="2.75" x="453.6577" y="32.2695">&#160;</text><text fill="#080000" font-family="Times New Roman" font-size="11" font-weight="bold" lengthAdjust="spacing" textLength="40.9224" x="456.4077" y="32.2695">activiteit</text><text fill="#080000" font-family="Times New Roman" font-size="11" font-weight="bold" lengthAdjust="spacing" textLength="2.75" x="497.3301" y="32.2695">&#160;</text><text fill="#080000" font-family="Times New Roman" font-size="11" font-weight="bold" lengthAdjust="spacing" textLength="83.1069" x="500.0801" y="32.2695">persoonsgegevens</text></g></a><!--class Persoonsgegeven--><a href="#Persoonsgegeven" target="_top" title="#Persoonsgegeven" xlink:actuate="onRequest" xlink:href="#Persoonsgegeven" xlink:show="new" xlink:title="#Persoonsgegeven" xlink:type="simple"><g id="elem_Persoonsgegeven"><rect codeLine="64" fill="#FFFFFF" height="22.6489" id="Persoonsgegeven" rx="4" ry="4" style="stroke:#000000;stroke-width:0.5;" width="88.1777" x="831.75" y="255.5"/><text fill="#080000" font-family="Times New Roman" font-size="11" font-weight="bold" lengthAdjust="spacing" textLength="2.75" x="834.75" y="270.7695">&#160;</text><text fill="#080000" font-family="Times New Roman" font-size="11" font-weight="bold" lengthAdjust="spacing" textLength="79.4277" x="837.5" y="270.7695">Persoonsgegeven</text></g></a><!--reverse link Gegevenstype to Persoonsgegeven--><g id="link_Gegevenstype_Persoonsgegeven"><path codeLine="68" d="M865,188.18 C865,214.42 865,235.99 865,255.41 " fill="#FFFFFF" fill-opacity="0.00000" id="Gegevenstype-backto-Persoonsgegeven" style="stroke:#000000;stroke-width:1;"/><polygon fill="#FFFFFF" fill-opacity="0.00000" points="865,170.18,859,188.18,871,188.18,865,170.18" style="stroke:#000000;stroke-width:1;"/></g><!--reverse link Gegevensverwerking to Gegevensverwerking__persoonsgegevens--><g id="link_Gegevensverwerking_Gegevensverwerking__persoonsgegevens"><path codeLine="69" d="M319.58,197.28 C319.58,222.88 319.58,238.13 319.58,255.42 " fill="#FFFFFF" fill-opacity="0.00000" id="Gegevensverwerking-backto-Gegevensverwerking__persoonsgegevens" style="stroke:#000000;stroke-width:1;"/><polygon fill="#FFFFFF" fill-opacity="0.00000" points="319.58,179.28,313.58,197.28,325.58,197.28,319.58,179.28" style="stroke:#000000;stroke-width:1;"/></g><!--reverse link Organisatorische__activiteit to Organisatorische__activiteit__persoonsgegevens--><g id="link_Organisatorische__activiteit_Organisatorische__activiteit__persoonsgegevens"><path codeLine="70" d="M350.07,29 C361.44,29 355.24,29 366.96,29 " fill="#FFFFFF" fill-opacity="0.00000" id="Organisatorische__activiteit-backto-Organisatorische__activiteit__persoonsgegevens" style="stroke:#000000;stroke-width:1;"/><polygon fill="#FFFFFF" fill-opacity="0.00000" points="332.07,29,350.07,35,350.07,23,332.07,29" style="stroke:#000000;stroke-width:1;"/></g><!--link DPIA to Gegevensverwerking__persoonsgegevens--><g id="link_DPIA_Gegevensverwerking__persoonsgegevens"><path codeLine="73" d="M477,176.21 C477,211.61 477,264 477,264 C477,264 470.08,264 459.65,264 " fill="#FFFFFF" fill-opacity="0.00000" id="DPIA-Gegevensverwerking__persoonsgegevens" style="stroke:#000000;stroke-width:1;"/><text fill="#080000" font-family="Times New Roman" font-size="11" lengthAdjust="spacing" textLength="210.1548" x="266" y="226.0495">DPIA heeft betrekking op Gegevensverwerking</text><text fill="#080000" font-family="Times New Roman" font-size="11" lengthAdjust="spacing" textLength="16.5" x="440.5355" y="194.7689">0..*</text><text fill="#080000" font-family="Times New Roman" font-size="11" lengthAdjust="spacing" textLength="16.5" x="467.3729" y="261.6453">1..*</text></g><!--reverse link Organisatorische__activiteit__persoonsgegevens to DPIA--><g id="link_Organisatorische__activiteit__persoonsgegevens_DPIA"><path codeLine="74" d="M519.5,46.05 C519.5,62.89 519.5,88.83 519.5,112.98 " fill="#FFFFFF" fill-opacity="0.00000" id="Organisatorische__activiteit__persoonsgegevens-backto-DPIA" style="stroke:#000000;stroke-width:1;"/><polygon fill="#000000" points="519.5,40.05,515.5,49.05,519.5,45.05,523.5,49.05,519.5,40.05" style="stroke:#000000;stroke-width:1;"/><text fill="#080000" font-family="Times New Roman" font-size="11" lengthAdjust="spacing" textLength="164.6509" x="354.5" y="73.7795">DPIA voor organisatorische activiteit</text><text fill="#080000" font-family="Times New Roman" font-size="11" lengthAdjust="spacing" textLength="5.5" x="531.2192" y="57.7652">1</text><text fill="#080000" font-family="Times New Roman" font-size="11" lengthAdjust="spacing" textLength="16.5" x="491.6942" y="102.6157">0..1</text></g><!--link Gegevensverwerking to Gegevenstype--><g id="link_Gegevensverwerking_Gegevenstype"><path codeLine="75" d="M292.92,179.02 C292.92,194.35 292.92,209 292.92,209 C292.92,209 789,209 789,209 C789,209 789,194.31 789,176.36 " fill="#FFFFFF" fill-opacity="0.00000" id="Gegevensverwerking-to-Gegevenstype" style="stroke:#000000;stroke-width:1;"/><polygon fill="#000000" points="789,170.36,785,179.36,789,175.36,793,179.36,789,170.36" style="stroke:#000000;stroke-width:1;"/><text fill="#080000" font-family="Times New Roman" font-size="11" lengthAdjust="spacing" textLength="105.6709" x="439.28" y="206.2695">Gegevenssetspecificatie</text><text fill="#080000" font-family="Times New Roman" font-size="11" lengthAdjust="spacing" textLength="16.5" x="283.9739" y="196.8575">0..*</text><text fill="#080000" font-family="Times New Roman" font-size="11" lengthAdjust="spacing" textLength="16.5" x="760.2344" y="187.7102">1..*</text></g><!--reverse link Gegevensverwerking__persoonsgegevens to Gegevenssetspecificatie__gegevensverwerking__persoonsgegevens--><g id="link_Gegevensverwerking__persoonsgegevens_Gegevenssetspecificatie__gegevensverwerking__persoonsgegevens"><path codeLine="76" d="M465.35,271 C476.8,271 482.69,271 494.66,271 " fill="#FFFFFF" fill-opacity="0.00000" id="Gegevensverwerking__persoonsgegevens-backto-Gegevenssetspecificatie__gegevensverwerking__persoonsgegevens" style="stroke:#000000;stroke-width:1;"/><polygon fill="#000000" points="459.35,271,468.35,275,464.35,271,468.35,267,459.35,271" style="stroke:#000000;stroke-width:1;"/><text fill="#080000" font-family="Times New Roman" font-size="11" lengthAdjust="spacing" textLength="5.5" x="467.268" y="282.1063">1</text><text fill="#080000" font-family="Times New Roman" font-size="11" lengthAdjust="spacing" textLength="16.5" x="470.4694" y="269.1845">1..*</text></g><!--link Gegevenssetspecificatie__gegevensverwerking__persoonsgegevens to Persoonsgegeven--><g id="link_Gegevenssetspecificatie__gegevensverwerking__persoonsgegevens_Persoonsgegeven"><path codeLine="77" d="M796.92,267 C809.24,267 814.94,267 825.38,267 " fill="#FFFFFF" fill-opacity="0.00000" id="Gegevenssetspecificatie__gegevensverwerking__persoonsgegevens-to-Persoonsgegeven" style="stroke:#000000;stroke-width:1;"/><polygon fill="#000000" points="831.38,267,822.38,263,826.38,267,822.38,271,831.38,267" style="stroke:#000000;stroke-width:1;"/><text fill="#080000" font-family="Times New Roman" font-size="11" lengthAdjust="spacing" textLength="16.5" x="804.6415" y="264.9959">0..*</text><text fill="#080000" font-family="Times New Roman" font-size="11" lengthAdjust="spacing" textLength="5.5" x="818.3519" y="264.3242">1</text></g><!--link Organisatorische__activiteit to Gegevensverwerking--><g id="link_Organisatorische__activiteit_Gegevensverwerking"><path codeLine="78" d="M246.75,50.05 C246.75,66.82 246.75,90.43 246.75,109.85 " fill="#FFFFFF" fill-opacity="0.00000" id="Organisatorische__activiteit-Gegevensverwerking" style="stroke:#000000;stroke-width:1;"/><text fill="#080000" font-family="Times New Roman" font-size="11" lengthAdjust="spacing" textLength="236.7095" x="9.75" y="77.2195">Organisatorische activiteit heeft Gegevensverwerking</text><text fill="#080000" font-family="Times New Roman" font-size="11" lengthAdjust="spacing" textLength="16.5" x="228.4489" y="68.4639">0..*</text><text fill="#080000" font-family="Times New Roman" font-size="11" lengthAdjust="spacing" textLength="16.5" x="229.1182" y="99.8441">0..*</text></g><!--link Organisatorische__activiteit__persoonsgegevens to Gegevensverwerking__persoonsgegevens--><g id="link_Organisatorische__activiteit__persoonsgegevens_Gegevensverwerking__persoonsgegevens"><path codeLine="79" d="M410,40 C410,80.29 410,208.79 410,249.33 " fill="#FFFFFF" fill-opacity="0.00000" id="Organisatorische__activiteit__persoonsgegevens-to-Gegevensverwerking__persoonsgegevens" style="stroke:#000000;stroke-width:1;"/><polygon fill="#000000" points="410,255.33,414,246.33,410,250.33,406,246.33,410,255.33" style="stroke:#000000;stroke-width:1;"/><text fill="#080000" font-family="Times New Roman" font-size="11" lengthAdjust="spacing" textLength="402.2788" x="7" y="144.9395">Organisatorische activiteit persoonsgegevens heeft Gegevensverwerking persoonsgegevens</text><text fill="#080000" font-family="Times New Roman" font-size="11" lengthAdjust="spacing" textLength="16.5" x="363.2817" y="57.6945">0..*</text><text fill="#080000" font-family="Times New Roman" font-size="11" lengthAdjust="spacing" textLength="16.5" x="413.2628" y="245.2292">1..*</text></g><!--SRC=[lLLTQzim57tFhxYaq452ceH1wOe9T1qjU-dACjX3AK6HRsqjjcGaEQ7R-jydonzL7DjnDvYVx7klpZdtwiXI6yOJ8aaCViBWm_b0LG4fKkvJ8JbAk1Y4p4UWJD88ytUbKQBGpqdnZN6Ydo76U8rIEJ0HuvXLWP0w54vY9qdodVawXFUpcHDV4xe9BFcrY8G4BGbN9eLSErKg9BxOCHx03OaKEXaYfTZbIqzczd6IFZwHDDBmQm1m8xY-8p72DnQZWZlSmLSH4rwabkmdmdnUV9M05nOGuAEGFifz6XEjQJ-viS_WnP5m9pJkyrz9HYANzRoHr0MvZeXI_xiBW9V1W5hcuMW4d-u_Ny5eD0IYydTuU3Z9NXuVmKeRBxKK8bOqn9X0W05kaQijoXrAqqc071vcPsUZnwpMevPBcDqESE6TRl1vuKrjS66yIO0A7qsXTneZJnTrCRS5kaAj4gJiYL6Y6JQmGc8CAWHNPQhieGLYjJh4MAqEGBBcMn36Xm3Z-lfgPjDfroHkZxSpdPePKHBHD2BQB3aEUh-Fq03GE6fxgckpip5t55cWwgrBHE0YzDjhPmWr6Kx65VCQhYGrh0WHdpIiqVXMiXzR4-eiv8J4VPjp5XSj7clic5bxUxA7z_QqV941uKnb3c3P2GP2DTioZKoN6kebgvLJat7N2yQl-LwU41qQckRNfRbja5rDj8oqewr-iwqTk59AFPnnrM8E7C0xMAQ6Bpin2WZtGQLh-s5oUmVI-pqnboMVr1cSEiToLNKVZnc8JXiOCCc2K4_UEEYyl_oQasX-HCmaGvQeIvEmjyqmkpg608LO6CxjTw-3SPb3b2TTIzpOraNIiFv8YmtmmxdHvLN2Z50Ji8m5yLPOoxUwjRw1HMy6CpAA2yp6PWr3ootaOFxT3LUAo3KimBRPqoF_o5nkTMwbWhgNcQkb-uFhzEnbvuyaDqsZJMxVCaPlaYRz13KQ-4t_kZRD1vL_0000]--></g></svg>