<svg xmlns="http://www.w3.org/2000/svg" xmlns:xlink="http://www.w3.org/1999/xlink" contentStyleType="text/css" data-diagram-type="CLASS" height="175px" preserveAspectRatio="none" style="width:516px;height:175px;" version="1.1" viewBox="0 0 516 175" width="516px" zoomAndPan="magnify"><defs/><g><!--class DPIA--><a href="#DPIA" target="_top" title="#DPIA" xlink:actuate="onRequest" xlink:href="#DPIA" xlink:show="new" xlink:title="#DPIA" xlink:type="simple"><g id="elem_DPIA"><rect codeLine="32" fill="#FFFFFF" height="50.6312" id="DPIA" rx="4" ry="4" style="stroke:#000000;stroke-width:0.5;" width="75.7865" x="180" y="7"/><text fill="#080000" font-family="Times New Roman" font-size="11" font-weight="bold" lengthAdjust="spacing" textLength="2.75" x="203.0744" y="22.2695">&#160;</text><text fill="#080000" font-family="Times New Roman" font-size="11" font-weight="bold" lengthAdjust="spacing" textLength="26.8877" x="205.8244" y="22.2695">DPIA</text><line style="stroke:#000000;stroke-width:0.5;" x1="181" x2="254.7865" y1="29.6489" y2="29.6489"/><ellipse cx="191" cy="41.4734" fill="#FFFFFF" fill-opacity="0.00000" rx="3" ry="3" style="stroke:#038048;stroke-width:1;"/><path d="M204.0417,36.2145 C202.7767,36.2145 201.75,37.2412 201.75,38.5062 C201.75,38.6529 201.75,38.7995 201.7775,38.937 L199,41.7145 L199,43.5479 L201.75,43.5479 L201.75,41.7145 L203.5833,41.7145 L203.5833,40.7979 L203.6108,40.7704 C203.7483,40.7979 203.895,40.7979 204.0417,40.7979 C205.3067,40.7979 206.3333,39.7712 206.3333,38.5062 C206.3333,37.2412 205.3067,36.2145 204.0417,36.2145 M204.5,37.1312 C205.0042,37.1312 205.4167,37.5437 205.4167,38.0479 C205.4167,38.552 205.0042,38.9645 204.5,38.9645 C203.9958,38.9645 203.5833,38.552 203.5833,38.0479 C203.5833,37.5437 203.9958,37.1312 204.5,37.1312 " fill="#FFA500"/><text fill="#080000" font-family="Times New Roman" font-size="11" lengthAdjust="spacing" textLength="18.9385" x="207.3333" y="43.9185">dpia</text><text fill="#080000" font-family="Times New Roman" font-size="11" lengthAdjust="spacing" textLength="2.75" x="226.2718" y="43.9185">&#160;</text><text fill="#080000" font-family="Times New Roman" font-size="11" lengthAdjust="spacing" textLength="20.7646" x="229.0218" y="43.9185">code</text><path d="M199,47.2145 L199,48.1312 L206.3333,48.1312 L206.3333,47.2145 L199,47.2145 M199,49.937 L199,50.8537 L206.3333,50.8537 L206.3333,49.937 L199,49.937 M199,52.687 L199,53.6037 L206.3333,53.6037 L206.3333,52.687 L199,52.687 " fill="#080000"/></g></a><!--class Gegevensverwerking--><a href="#Gegevensverwerking" target="_top" title="#Gegevensverwerking" xlink:actuate="onRequest" xlink:href="#Gegevensverwerking" xlink:show="new" xlink:title="#Gegevensverwerking" xlink:type="simple"><g id="elem_Gegevensverwerking"><rect codeLine="37" fill="#FFFFFF" height="50.6312" id="Gegevensverwerking" rx="4" ry="4" style="stroke:#000000;stroke-width:0.5;" width="147.8665" x="362" y="118"/><text fill="#080000" font-family="Times New Roman" font-size="11" font-weight="bold" lengthAdjust="spacing" textLength="2.75" x="385.3752" y="133.2695">&#160;</text><text fill="#080000" font-family="Times New Roman" font-size="11" font-weight="bold" lengthAdjust="spacing" textLength="98.3662" x="388.1252" y="133.2695">Gegevensverwerking</text><line style="stroke:#000000;stroke-width:0.5;" x1="363" x2="508.8665" y1="140.6489" y2="140.6489"/><ellipse cx="373" cy="152.4734" fill="#FFFFFF" fill-opacity="0.00000" rx="3" ry="3" style="stroke:#038048;stroke-width:1;"/><path d="M386.0417,147.2145 C384.7767,147.2145 383.75,148.2412 383.75,149.5062 C383.75,149.6529 383.75,149.7995 383.7775,149.937 L381,152.7145 L381,154.5479 L383.75,154.5479 L383.75,152.7145 L385.5833,152.7145 L385.5833,151.7979 L385.6108,151.7704 C385.7483,151.7979 385.895,151.7979 386.0417,151.7979 C387.3067,151.7979 388.3333,150.7712 388.3333,149.5062 C388.3333,148.2412 387.3067,147.2145 386.0417,147.2145 M386.5,148.1312 C387.0042,148.1312 387.4167,148.5437 387.4167,149.0479 C387.4167,149.552 387.0042,149.9645 386.5,149.9645 C385.9958,149.9645 385.5833,149.552 385.5833,149.0479 C385.5833,148.5437 385.9958,148.1312 386.5,148.1312 " fill="#FFA500"/><text fill="#080000" font-family="Times New Roman" font-size="11" lengthAdjust="spacing" textLength="91.0186" x="389.3333" y="154.9185">gegevensverwerking</text><text fill="#080000" font-family="Times New Roman" font-size="11" lengthAdjust="spacing" textLength="2.75" x="480.3519" y="154.9185">&#160;</text><text fill="#080000" font-family="Times New Roman" font-size="11" lengthAdjust="spacing" textLength="20.7646" x="483.1019" y="154.9185">code</text><path d="M381,158.2145 L381,159.1312 L388.3333,159.1312 L388.3333,158.2145 L381,158.2145 M381,160.937 L381,161.8537 L388.3333,161.8537 L388.3333,160.937 L381,160.937 M381,163.687 L381,164.6037 L388.3333,164.6037 L388.3333,163.687 L381,163.687 " fill="#080000"/></g></a><!--class Gegevensverwerking__persoonsgegevens--><a href="#Gegevensverwerking+persoonsgegevens" target="_top" title="#Gegevensverwerking+persoonsgegevens" xlink:actuate="onRequest" xlink:href="#Gegevensverwerking+persoonsgegevens" xlink:show="new" xlink:title="#Gegevensverwerking+persoonsgegevens" xlink:type="simple"><g id="elem_Gegevensverwerking__persoonsgegevens"><rect codeLine="42" fill="#FFFFFF" height="50.6312" id="Gegevensverwerking__persoonsgegevens" rx="4" ry="4" style="stroke:#000000;stroke-width:0.5;" width="217.3433" x="109.5" y="118"/><text fill="#080000" font-family="Times New Roman" font-size="11" font-weight="bold" lengthAdjust="spacing" textLength="2.75" x="124.6851" y="133.2695">&#160;</text><text fill="#080000" font-family="Times New Roman" font-size="11" font-weight="bold" lengthAdjust="spacing" textLength="98.3662" x="127.4351" y="133.2695">Gegevensverwerking</text><text fill="#080000" font-family="Times New Roman" font-size="11" font-weight="bold" lengthAdjust="spacing" textLength="2.75" x="225.8013" y="133.2695">&#160;</text><text fill="#080000" font-family="Times New Roman" font-size="11" font-weight="bold" lengthAdjust="spacing" textLength="83.1069" x="228.5513" y="133.2695">persoonsgegevens</text><line style="stroke:#000000;stroke-width:0.5;" x1="110.5" x2="325.8433" y1="140.6489" y2="140.6489"/><ellipse cx="120.5" cy="152.4734" fill="#FFFFFF" fill-opacity="0.00000" rx="3" ry="3" style="stroke:#038048;stroke-width:1;"/><text fill="#080000" font-family="Times New Roman" font-size="11" lengthAdjust="spacing" textLength="99.5747" x="127.5" y="154.9185">Verwerkingsdoeleinde</text><text fill="#080000" font-family="Times New Roman" font-size="11" lengthAdjust="spacing" textLength="2.75" x="227.0747" y="154.9185">&#160;</text><text fill="#080000" font-family="Times New Roman" font-size="11" lengthAdjust="spacing" textLength="91.0186" x="229.8247" y="154.9185">gegevensverwerking</text><path d="M128.5,158.2145 L128.5,159.1312 L135.8333,159.1312 L135.8333,158.2145 L128.5,158.2145 M128.5,160.937 L128.5,161.8537 L135.8333,161.8537 L135.8333,160.937 L128.5,160.937 M128.5,163.687 L128.5,164.6037 L135.8333,164.6037 L135.8333,163.687 L128.5,163.687 " fill="#080000"/></g></a><!--link Gegevensverwerking__persoonsgegevens to Gegevensverwerking--><g id="link_Gegevensverwerking__persoonsgegevens_Gegevensverwerking"><path codeLine="48" d="M326.68,144 C338.63,144 332.58,144 343.96,144 " fill="#FFFFFF" fill-opacity="0.00000" id="Gegevensverwerking__persoonsgegevens-to-Gegevensverwerking" style="stroke:#000000;stroke-width:1;"/><polygon fill="#FFFFFF" fill-opacity="0.00000" points="361.96,144,343.96,138,343.96,150,361.96,144" style="stroke:#000000;stroke-width:1;"/></g><!--link DPIA to Gegevensverwerking__persoonsgegevens--><g id="link_DPIA_Gegevensverwerking__persoonsgegevens"><path codeLine="51" d="M218,58.24 C218,76.18 218,99.99 218,117.89 " fill="#FFFFFF" fill-opacity="0.00000" id="DPIA-Gegevensverwerking__persoonsgegevens" style="stroke:#000000;stroke-width:1;"/><text fill="#080000" font-family="Times New Roman" font-size="11" lengthAdjust="spacing" textLength="210.1548" x="7" y="85.3395">DPIA heeft betrekking op Gegevensverwerking</text><text fill="#080000" font-family="Times New Roman" font-size="11" lengthAdjust="spacing" textLength="16.5" x="200.2325" y="75.9671">0..*</text><text fill="#080000" font-family="Times New Roman" font-size="11" lengthAdjust="spacing" textLength="16.5" x="199.8711" y="107.8011">1..*</text></g><!--SRC=[lLDHQzim47xthpWIw20bNSAWTCK4kewClOInZksXbA9OLrjOrfcJN9Dj_U-JvJIeYGVfI_Mak-_qVTz99rigKmiM5SXQmSVpnEuIJ8sH6R51XekaK18XKvnfxFVM8IEvJRsDiQhT1YgiriWsej7AO5S5nAwW26XPrB-KT0LycCsY_5faPHx4hqaJWsDXh8VGkAZA5a9IgqmEIw4jHeXWfhO_Efw55O4I7qIZ7Vn909Pat4fK23zKXHPMsC9tgeJPGZVgDy9ylesU2Iy28S0dOedyKiPdzxoFbs4bJv655JbygN_5IkXOzNnGD2QvriBQj-u2u2b9ig0ycapWyxUlLp2PZ43OVW-tj-DkStS7mTffceNpv5ymnqLwKk9caRuFoOMVDm4PIVI5wKc5fbdi2tp171_Hs4Va5hdi7dihDu1queVfewpaXsolDbRxgISozfdh_qxlxmzgXxsVxjVjclcvgx6IKACo_WCUTh7V0C0xk6ayQ_SVBGWZmJRh47XieAdqxrJZWviUrKNFtmycenPEUR1GjRtqG9YFqUpipDyAJFtFDLE0qJp4HrtHPKzHeFS3QtICPR18zS3vVm00]--></g></svg>