<svg xmlns="http://www.w3.org/2000/svg" xmlns:xlink="http://www.w3.org/1999/xlink" contentStyleType="text/css" data-diagram-type="CLASS" height="193px" preserveAspectRatio="none" style="width:433px;height:193px;" version="1.1" viewBox="0 0 433 193" width="433px" zoomAndPan="magnify"><defs/><g><!--class Betrokken__partij__bij__DPIA--><a href="#Betrokken+partij+bij+DPIA" target="_top" title="#Betrokken+partij+bij+DPIA" xlink:actuate="onRequest" xlink:href="#Betrokken+partij+bij+DPIA" xlink:show="new" xlink:title="#Betrokken+partij+bij+DPIA" xlink:type="simple"><g id="elem_Betrokken__partij__bij__DPIA"><rect codeLine="32" fill="#FFFFFF" height="68.5957" id="Betrokken__partij__bij__DPIA" rx="4" ry="4" style="stroke:#000000;stroke-width:0.5;" width="173.064" x="253" y="118"/><text fill="#080000" font-family="Times New Roman" font-size="11" font-weight="bold" lengthAdjust="spacing" textLength="2.75" x="275.9785" y="133.2695">&#160;</text><text fill="#080000" font-family="Times New Roman" font-size="11" font-weight="bold" lengthAdjust="spacing" textLength="49.5" x="278.7285" y="133.2695">Betrokken</text><text fill="#080000" font-family="Times New Roman" font-size="11" font-weight="bold" lengthAdjust="spacing" textLength="2.75" x="328.2285" y="133.2695">&#160;</text><text fill="#080000" font-family="Times New Roman" font-size="11" font-weight="bold" lengthAdjust="spacing" textLength="26.8823" x="330.9785" y="133.2695">partij</text><text fill="#080000" font-family="Times New Roman" font-size="11" font-weight="bold" lengthAdjust="spacing" textLength="2.75" x="357.8608" y="133.2695">&#160;</text><text fill="#080000" font-family="Times New Roman" font-size="11" font-weight="bold" lengthAdjust="spacing" textLength="12.8369" x="360.6108" y="133.2695">bij</text><text fill="#080000" font-family="Times New Roman" font-size="11" font-weight="bold" lengthAdjust="spacing" textLength="2.75" x="373.4478" y="133.2695">&#160;</text><text fill="#080000" font-family="Times New Roman" font-size="11" font-weight="bold" lengthAdjust="spacing" textLength="26.8877" x="376.1978" y="133.2695">DPIA</text><line style="stroke:#000000;stroke-width:0.5;" x1="254" x2="425.064" y1="140.6489" y2="140.6489"/><ellipse cx="264" cy="152.4734" fill="#FFFFFF" fill-opacity="0.00000" rx="3" ry="3" style="stroke:#038048;stroke-width:1;"/><text fill="#080000" font-family="Times New Roman" font-size="11" lengthAdjust="spacing" textLength="31.1577" x="271" y="154.9185">Belang</text><text fill="#080000" font-family="Times New Roman" font-size="11" lengthAdjust="spacing" textLength="2.75" x="302.1577" y="154.9185">&#160;</text><text fill="#080000" font-family="Times New Roman" font-size="11" lengthAdjust="spacing" textLength="15.8823" x="304.9077" y="154.9185">van</text><text fill="#080000" font-family="Times New Roman" font-size="11" lengthAdjust="spacing" textLength="2.75" x="320.79" y="154.9185">&#160;</text><text fill="#080000" font-family="Times New Roman" font-size="11" lengthAdjust="spacing" textLength="43.9839" x="323.54" y="154.9185">betrokken</text><text fill="#080000" font-family="Times New Roman" font-size="11" lengthAdjust="spacing" textLength="2.75" x="367.5239" y="154.9185">&#160;</text><text fill="#080000" font-family="Times New Roman" font-size="11" lengthAdjust="spacing" textLength="23.2139" x="370.2739" y="154.9185">partij</text><text fill="#080000" font-family="Times New Roman" font-size="11" lengthAdjust="spacing" textLength="2.75" x="393.4878" y="154.9185">&#160;</text><text fill="#080000" font-family="Times New Roman" font-size="11" lengthAdjust="spacing" textLength="23.8262" x="396.2378" y="154.9185">[1..*]</text><ellipse cx="264" cy="165.1223" fill="#FFFFFF" fill-opacity="0.00000" rx="3" ry="3" style="stroke:#038048;stroke-width:1;"/><path d="M277.0417,159.8634 C275.7767,159.8634 274.75,160.8901 274.75,162.1551 C274.75,162.3018 274.75,162.4484 274.7775,162.5859 L272,165.3634 L272,167.1968 L274.75,167.1968 L274.75,165.3634 L276.5833,165.3634 L276.5833,164.4468 L276.6108,164.4193 C276.7483,164.4468 276.895,164.4468 277.0417,164.4468 C278.3067,164.4468 279.3333,163.4201 279.3333,162.1551 C279.3333,160.8901 278.3067,159.8634 277.0417,159.8634 M277.5,160.7801 C278.0042,160.7801 278.4167,161.1926 278.4167,161.6968 C278.4167,162.2009 278.0042,162.6134 277.5,162.6134 C276.9958,162.6134 276.5833,162.2009 276.5833,161.6968 C276.5833,161.1926 276.9958,160.7801 277.5,160.7801 " fill="#FFA500"/><text fill="#080000" font-family="Times New Roman" font-size="11" font-style="italic" lengthAdjust="spacing" textLength="25.0454" x="280.3333" y="167.5674">DPIA</text><text fill="#080000" font-family="Times New Roman" font-size="11" lengthAdjust="spacing" textLength="2.75" x="305.3787" y="167.5674">&#160;</text><path d="M309.2112,159.8634 C309.1562,159.8634 309.1287,159.9001 309.1287,159.9459 L309.1287,167.1051 C309.1287,167.1509 309.1654,167.1876 309.2112,167.1876 L315.4537,167.1876 C315.4996,167.1876 315.5362,167.1509 315.5362,167.1051 L315.5362,159.9459 C315.5362,159.8909 315.4996,159.8634 315.4537,159.8634 L309.2112,159.8634 M310.0454,160.7801 L314.6287,160.7801 L314.6287,162.6134 L310.0454,162.6134 L310.0454,160.7801 M310.0454,163.5301 L310.9621,163.5301 L310.9621,164.4468 L310.0454,164.4468 L310.0454,163.5301 M311.8787,163.5301 L312.7954,163.5301 L312.7954,164.4468 L311.8787,164.4468 L311.8787,163.5301 M313.7121,163.5301 L314.6287,163.5301 L314.6287,166.2801 L313.7121,166.2801 L313.7121,163.5301 M310.0454,165.3634 L310.9621,165.3634 L310.9621,166.2801 L310.0454,166.2801 L310.0454,165.3634 M311.8787,165.3634 L312.7954,165.3634 L312.7954,166.2801 L311.8787,166.2801 L311.8787,165.3634 " fill="#080000"/><ellipse cx="264" cy="177.7712" fill="#FFFFFF" fill-opacity="0.00000" rx="3" ry="3" style="stroke:#038048;stroke-width:1;"/><path d="M277.0417,172.5124 C275.7767,172.5124 274.75,173.539 274.75,174.804 C274.75,174.9507 274.75,175.0974 274.7775,175.2349 L272,178.0124 L272,179.8457 L274.75,179.8457 L274.75,178.0124 L276.5833,178.0124 L276.5833,177.0957 L276.6108,177.0682 C276.7483,177.0957 276.895,177.0957 277.0417,177.0957 C278.3067,177.0957 279.3333,176.069 279.3333,174.804 C279.3333,173.539 278.3067,172.5124 277.0417,172.5124 M277.5,173.429 C278.0042,173.429 278.4167,173.8415 278.4167,174.3457 C278.4167,174.8499 278.0042,175.2624 277.5,175.2624 C276.9958,175.2624 276.5833,174.8499 276.5833,174.3457 C276.5833,173.8415 276.9958,173.429 277.5,173.429 " fill="#FFA500"/><text fill="#080000" font-family="Times New Roman" font-size="11" font-style="italic" lengthAdjust="spacing" textLength="25.6685" x="280.3333" y="180.2163">Partij</text><text fill="#080000" font-family="Times New Roman" font-size="11" lengthAdjust="spacing" textLength="2.75" x="306.0018" y="180.2163">&#160;</text><path d="M309.8343,172.5124 C309.7793,172.5124 309.7518,172.549 309.7518,172.5949 L309.7518,179.754 C309.7518,179.7999 309.7885,179.8365 309.8343,179.8365 L316.0768,179.8365 C316.1226,179.8365 316.1593,179.7999 316.1593,179.754 L316.1593,172.5949 C316.1593,172.5399 316.1226,172.5124 316.0768,172.5124 L309.8343,172.5124 M310.6685,173.429 L315.2518,173.429 L315.2518,175.2624 L310.6685,175.2624 L310.6685,173.429 M310.6685,176.179 L311.5851,176.179 L311.5851,177.0957 L310.6685,177.0957 L310.6685,176.179 M312.5018,176.179 L313.4185,176.179 L313.4185,177.0957 L312.5018,177.0957 L312.5018,176.179 M314.3351,176.179 L315.2518,176.179 L315.2518,178.929 L314.3351,178.929 L314.3351,176.179 M310.6685,178.0124 L311.5851,178.0124 L311.5851,178.929 L310.6685,178.929 L310.6685,178.0124 M312.5018,178.0124 L313.4185,178.0124 L313.4185,178.929 L312.5018,178.929 L312.5018,178.0124 " fill="#080000"/></g></a><!--class DPIA--><a href="#DPIA" target="_top" title="#DPIA" xlink:actuate="onRequest" xlink:href="#DPIA" xlink:show="new" xlink:title="#DPIA" xlink:type="simple"><g id="elem_DPIA"><rect codeLine="38" fill="#FFFFFF" height="63.2801" id="DPIA" rx="4" ry="4" style="stroke:#000000;stroke-width:0.5;" width="210.6455" x="7" y="121"/><text fill="#080000" font-family="Times New Roman" font-size="11" font-weight="bold" lengthAdjust="spacing" textLength="2.75" x="97.5039" y="136.2695">&#160;</text><text fill="#080000" font-family="Times New Roman" font-size="11" font-weight="bold" lengthAdjust="spacing" textLength="26.8877" x="100.2539" y="136.2695">DPIA</text><line style="stroke:#000000;stroke-width:0.5;" x1="8" x2="216.6455" y1="143.6489" y2="143.6489"/><ellipse cx="18" cy="155.4734" fill="#FFFFFF" fill-opacity="0.00000" rx="3" ry="3" style="stroke:#038048;stroke-width:1;"/><text fill="#080000" font-family="Times New Roman" font-size="11" lengthAdjust="spacing" textLength="50.7085" x="25" y="157.9185">Toelichting</text><text fill="#080000" font-family="Times New Roman" font-size="11" lengthAdjust="spacing" textLength="2.75" x="75.7085" y="157.9185">&#160;</text><text fill="#080000" font-family="Times New Roman" font-size="11" lengthAdjust="spacing" textLength="47.6523" x="78.4585" y="157.9185">consultatie</text><text fill="#080000" font-family="Times New Roman" font-size="11" lengthAdjust="spacing" textLength="2.75" x="126.1108" y="157.9185">&#160;</text><text fill="#080000" font-family="Times New Roman" font-size="11" lengthAdjust="spacing" textLength="54.3662" x="128.8608" y="157.9185">betrokkenen</text><text fill="#080000" font-family="Times New Roman" font-size="11" lengthAdjust="spacing" textLength="2.75" x="183.2271" y="157.9185">&#160;</text><text fill="#080000" font-family="Times New Roman" font-size="11" lengthAdjust="spacing" textLength="25.6685" x="185.9771" y="157.9185">DPIA</text><ellipse cx="18" cy="168.1223" fill="#FFFFFF" fill-opacity="0.00000" rx="3" ry="3" style="stroke:#038048;stroke-width:1;"/><path d="M31.0417,162.8634 C29.7767,162.8634 28.75,163.8901 28.75,165.1551 C28.75,165.3018 28.75,165.4484 28.7775,165.5859 L26,168.3634 L26,170.1968 L28.75,170.1968 L28.75,168.3634 L30.5833,168.3634 L30.5833,167.4468 L30.6108,167.4193 C30.7483,167.4468 30.895,167.4468 31.0417,167.4468 C32.3067,167.4468 33.3333,166.4201 33.3333,165.1551 C33.3333,163.8901 32.3067,162.8634 31.0417,162.8634 M31.5,163.7801 C32.0042,163.7801 32.4167,164.1926 32.4167,164.6968 C32.4167,165.2009 32.0042,165.6134 31.5,165.6134 C30.9958,165.6134 30.5833,165.2009 30.5833,164.6968 C30.5833,164.1926 30.9958,163.7801 31.5,163.7801 " fill="#FFA500"/><text fill="#080000" font-family="Times New Roman" font-size="11" lengthAdjust="spacing" textLength="18.9385" x="34.3333" y="170.5674">dpia</text><text fill="#080000" font-family="Times New Roman" font-size="11" lengthAdjust="spacing" textLength="2.75" x="53.2718" y="170.5674">&#160;</text><text fill="#080000" font-family="Times New Roman" font-size="11" lengthAdjust="spacing" textLength="20.7646" x="56.0218" y="170.5674">code</text><path d="M26,173.8634 L26,174.7801 L33.3333,174.7801 L33.3333,173.8634 L26,173.8634 M26,176.5859 L26,177.5026 L33.3333,177.5026 L33.3333,176.5859 L26,176.5859 M26,179.3359 L26,180.2526 L33.3333,180.2526 L33.3333,179.3359 L26,179.3359 " fill="#080000"/></g></a><!--class Partij--><a href="#Partij" target="_top" title="#Partij" xlink:actuate="onRequest" xlink:href="#Partij" xlink:show="new" xlink:title="#Partij" xlink:type="simple"><g id="elem_Partij"><rect codeLine="44" fill="#FFFFFF" height="50.6312" id="Partij" rx="4" ry="4" style="stroke:#000000;stroke-width:0.5;" width="67.8534" x="305.5" y="7"/><text fill="#080000" font-family="Times New Roman" font-size="11" font-weight="bold" lengthAdjust="spacing" textLength="2.75" x="324.3097" y="22.2695">&#160;</text><text fill="#080000" font-family="Times New Roman" font-size="11" font-weight="bold" lengthAdjust="spacing" textLength="27.4839" x="327.0597" y="22.2695">Partij</text><line style="stroke:#000000;stroke-width:0.5;" x1="306.5" x2="372.3534" y1="29.6489" y2="29.6489"/><ellipse cx="316.5" cy="41.4734" fill="#FFFFFF" fill-opacity="0.00000" rx="3" ry="3" style="stroke:#038048;stroke-width:1;"/><path d="M329.5417,36.2145 C328.2767,36.2145 327.25,37.2412 327.25,38.5062 C327.25,38.6529 327.25,38.7995 327.2775,38.937 L324.5,41.7145 L324.5,43.5479 L327.25,43.5479 L327.25,41.7145 L329.0833,41.7145 L329.0833,40.7979 L329.1108,40.7704 C329.2483,40.7979 329.395,40.7979 329.5417,40.7979 C330.8067,40.7979 331.8333,39.7712 331.8333,38.5062 C331.8333,37.2412 330.8067,36.2145 329.5417,36.2145 M330,37.1312 C330.5042,37.1312 330.9167,37.5437 330.9167,38.0479 C330.9167,38.552 330.5042,38.9645 330,38.9645 C329.4958,38.9645 329.0833,38.552 329.0833,38.0479 C329.0833,37.5437 329.4958,37.1312 330,37.1312 " fill="#FFA500"/><text fill="#080000" font-family="Times New Roman" font-size="11" lengthAdjust="spacing" textLength="23.2139" x="332.8333" y="43.9185">partij</text><text fill="#080000" font-family="Times New Roman" font-size="11" lengthAdjust="spacing" textLength="2.75" x="356.0472" y="43.9185">&#160;</text><text fill="#080000" font-family="Times New Roman" font-size="11" lengthAdjust="spacing" textLength="8.5562" x="358.7972" y="43.9185">id</text><path d="M324.5,47.2145 L324.5,48.1312 L331.8333,48.1312 L331.8333,47.2145 L324.5,47.2145 M324.5,49.937 L324.5,50.8537 L331.8333,50.8537 L331.8333,49.937 L324.5,49.937 M324.5,52.687 L324.5,53.6037 L331.8333,53.6037 L331.8333,52.687 L324.5,52.687 " fill="#080000"/></g></a><!--reverse link DPIA to Betrokken__partij__bij__DPIA--><g id="link_DPIA_Betrokken__partij__bij__DPIA"><path codeLine="52" d="M224.03,153 C235.72,153 241.53,153 252.95,153 " fill="#FFFFFF" fill-opacity="0.00000" id="DPIA-backto-Betrokken__partij__bij__DPIA" style="stroke:#000000;stroke-width:1;"/><polygon fill="#000000" points="218.03,153,227.03,157,223.03,153,227.03,149,218.03,153" style="stroke:#000000;stroke-width:1;"/><text fill="#080000" font-family="Times New Roman" font-size="11" lengthAdjust="spacing" textLength="5.5" x="225.6559" y="150.8958">1</text><text fill="#080000" font-family="Times New Roman" font-size="11" lengthAdjust="spacing" textLength="16.5" x="228.5486" y="150.8266">1..*</text></g><!--reverse link Partij to Betrokken__partij__bij__DPIA--><g id="link_Partij_Betrokken__partij__bij__DPIA"><path codeLine="53" d="M339.5,64.24 C339.5,81.6 339.5,98.7 339.5,117.69 " fill="#FFFFFF" fill-opacity="0.00000" id="Partij-backto-Betrokken__partij__bij__DPIA" style="stroke:#000000;stroke-width:1;"/><polygon fill="#000000" points="339.5,58.24,335.5,67.24,339.5,63.24,343.5,67.24,339.5,58.24" style="stroke:#000000;stroke-width:1;"/><text fill="#080000" font-family="Times New Roman" font-size="11" lengthAdjust="spacing" textLength="5.5" x="333.9966" y="75.9671">1</text><text fill="#080000" font-family="Times New Roman" font-size="11" lengthAdjust="spacing" textLength="16.5" x="321.895" y="107.6511">0..*</text></g><!--SRC=[lLDHQzim47xthpWIoC2XTSAWTCC4cex0Na9P2ti88PojQwnPbemaBsIZ_tsIxAHELjAt6coik-_k-pxfP4ekQzHO0QivVBc9p36WLIDPhhGa3RTHmHb1pdKkgFqtbZGfkw-xDLMrtKD5LKRQzDe8BicZG6bRg5vYfx7-oPajuFDaqejdc9VRG7wlXD9WDKhZKYHj3sKAP6h7vHOMA0prCgYrshMbmqbuUab6pzW82tyZW8MITeaLmHEloC2ITl13LIYxr2F_Gp2TTgj3mzlG462kD2DzIkEYPzg7Y_14Bpq9IsNfbFzESnHzrfitIVjDxWKQyz4k05wYA0_CWpY6ELcjof8aE4sM_uBClTyUljz170y0pIjWisaHcqtcFm43gzNm21Yt-R5BZtrslOPWRZmdWUwCVwE4x9nkDRs-ZjSUbIHf7fGgDojRcgMZalQpD0d1cM-O992ESXHv8z2wsFjL3u7aZRgJFUZRFTewSV2aIF2yi7vKSoMDcpwqd5xjE4E-m6ClwN7t4rq3HWwOZYgIpNzYMia7ETtA2sf_Zv8kqNHxozav3S0dU6ngqluo6q39m3HPMBJ9TYIrEp3BdS-2r-Qh7wPBGp3mHpW0k1BqRAzcu0A3msvSBfnqXKrzA6jD_WC0]--></g></svg>