<svg xmlns="http://www.w3.org/2000/svg" xmlns:xlink="http://www.w3.org/1999/xlink" contentStyleType="text/css" data-diagram-type="CLASS" height="380px" preserveAspectRatio="none" style="width:733px;height:380px;" version="1.1" viewBox="0 0 733 380" width="733px" zoomAndPan="magnify"><defs/><g><!--class DPIA--><a href="#DPIA" target="_top" title="#DPIA" xlink:actuate="onRequest" xlink:href="#DPIA" xlink:show="new" xlink:title="#DPIA" xlink:type="simple"><g id="elem_DPIA"><rect codeLine="32" fill="#FFFFFF" height="50.6312" id="DPIA" rx="4" ry="4" style="stroke:#000000;stroke-width:0.5;" width="75.7865" x="124.24" y="7"/><text fill="#080000" font-family="Times New Roman" font-size="11" font-weight="bold" lengthAdjust="spacing" textLength="2.75" x="147.3144" y="22.2695">&#160;</text><text fill="#080000" font-family="Times New Roman" font-size="11" font-weight="bold" lengthAdjust="spacing" textLength="26.8877" x="150.0644" y="22.2695">DPIA</text><line style="stroke:#000000;stroke-width:0.5;" x1="125.24" x2="199.0265" y1="29.6489" y2="29.6489"/><ellipse cx="135.24" cy="41.4734" fill="#FFFFFF" fill-opacity="0.00000" rx="3" ry="3" style="stroke:#038048;stroke-width:1;"/><path d="M148.2817,36.2145 C147.0167,36.2145 145.99,37.2412 145.99,38.5062 C145.99,38.6529 145.99,38.7995 146.0175,38.937 L143.24,41.7145 L143.24,43.5479 L145.99,43.5479 L145.99,41.7145 L147.8233,41.7145 L147.8233,40.7979 L147.8508,40.7704 C147.9883,40.7979 148.135,40.7979 148.2817,40.7979 C149.5467,40.7979 150.5733,39.7712 150.5733,38.5062 C150.5733,37.2412 149.5467,36.2145 148.2817,36.2145 M148.74,37.1312 C149.2442,37.1312 149.6567,37.5437 149.6567,38.0479 C149.6567,38.552 149.2442,38.9645 148.74,38.9645 C148.2358,38.9645 147.8233,38.552 147.8233,38.0479 C147.8233,37.5437 148.2358,37.1312 148.74,37.1312 " fill="#FFA500"/><text fill="#080000" font-family="Times New Roman" font-size="11" lengthAdjust="spacing" textLength="18.9385" x="151.5733" y="43.9185">dpia</text><text fill="#080000" font-family="Times New Roman" font-size="11" lengthAdjust="spacing" textLength="2.75" x="170.5118" y="43.9185">&#160;</text><text fill="#080000" font-family="Times New Roman" font-size="11" lengthAdjust="spacing" textLength="20.7646" x="173.2618" y="43.9185">code</text><path d="M143.24,47.2145 L143.24,48.1312 L150.5733,48.1312 L150.5733,47.2145 L143.24,47.2145 M143.24,49.937 L143.24,50.8537 L150.5733,50.8537 L150.5733,49.937 L143.24,49.937 M143.24,52.687 L143.24,53.6037 L150.5733,53.6037 L150.5733,52.687 L143.24,52.687 " fill="#080000"/></g></a><!--class Derde__land--><a href="#Derde+land" target="_top" title="#Derde+land" xlink:actuate="onRequest" xlink:href="#Derde+land" xlink:show="new" xlink:title="#Derde+land" xlink:type="simple"><g id="elem_Derde__land"><rect codeLine="37" fill="#FFFFFF" height="22.6489" id="Derde__land" rx="4" ry="4" style="stroke:#000000;stroke-width:0.5;" width="61" x="466.74" y="141"/><text fill="#080000" font-family="Times New Roman" font-size="11" font-weight="bold" lengthAdjust="spacing" textLength="2.75" x="469.74" y="156.2695">&#160;</text><text fill="#080000" font-family="Times New Roman" font-size="11" font-weight="bold" lengthAdjust="spacing" textLength="28.7085" x="472.49" y="156.2695">Derde</text><text fill="#080000" font-family="Times New Roman" font-size="11" font-weight="bold" lengthAdjust="spacing" textLength="2.75" x="501.1985" y="156.2695">&#160;</text><text fill="#080000" font-family="Times New Roman" font-size="11" font-weight="bold" lengthAdjust="spacing" textLength="20.7915" x="503.9485" y="156.2695">land</text></g></a><!--class Gegevensverwerking--><a href="#Gegevensverwerking" target="_top" title="#Gegevensverwerking" xlink:actuate="onRequest" xlink:href="#Gegevensverwerking" xlink:show="new" xlink:title="#Gegevensverwerking" xlink:type="simple"><g id="elem_Gegevensverwerking"><rect codeLine="40" fill="#FFFFFF" height="50.6312" id="Gegevensverwerking" rx="4" ry="4" style="stroke:#000000;stroke-width:0.5;" width="147.8665" x="578.24" y="7"/><text fill="#080000" font-family="Times New Roman" font-size="11" font-weight="bold" lengthAdjust="spacing" textLength="2.75" x="601.6152" y="22.2695">&#160;</text><text fill="#080000" font-family="Times New Roman" font-size="11" font-weight="bold" lengthAdjust="spacing" textLength="98.3662" x="604.3652" y="22.2695">Gegevensverwerking</text><line style="stroke:#000000;stroke-width:0.5;" x1="579.24" x2="725.1065" y1="29.6489" y2="29.6489"/><ellipse cx="589.24" cy="41.4734" fill="#FFFFFF" fill-opacity="0.00000" rx="3" ry="3" style="stroke:#038048;stroke-width:1;"/><path d="M602.2817,36.2145 C601.0167,36.2145 599.99,37.2412 599.99,38.5062 C599.99,38.6529 599.99,38.7995 600.0175,38.937 L597.24,41.7145 L597.24,43.5479 L599.99,43.5479 L599.99,41.7145 L601.8233,41.7145 L601.8233,40.7979 L601.8508,40.7704 C601.9883,40.7979 602.135,40.7979 602.2817,40.7979 C603.5467,40.7979 604.5733,39.7712 604.5733,38.5062 C604.5733,37.2412 603.5467,36.2145 602.2817,36.2145 M602.74,37.1312 C603.2442,37.1312 603.6567,37.5437 603.6567,38.0479 C603.6567,38.552 603.2442,38.9645 602.74,38.9645 C602.2358,38.9645 601.8233,38.552 601.8233,38.0479 C601.8233,37.5437 602.2358,37.1312 602.74,37.1312 " fill="#FFA500"/><text fill="#080000" font-family="Times New Roman" font-size="11" lengthAdjust="spacing" textLength="91.0186" x="605.5733" y="43.9185">gegevensverwerking</text><text fill="#080000" font-family="Times New Roman" font-size="11" lengthAdjust="spacing" textLength="2.75" x="696.5919" y="43.9185">&#160;</text><text fill="#080000" font-family="Times New Roman" font-size="11" lengthAdjust="spacing" textLength="20.7646" x="699.3419" y="43.9185">code</text><path d="M597.24,47.2145 L597.24,48.1312 L604.5733,48.1312 L604.5733,47.2145 L597.24,47.2145 M597.24,49.937 L597.24,50.8537 L604.5733,50.8537 L604.5733,49.937 L597.24,49.937 M597.24,52.687 L597.24,53.6037 L604.5733,53.6037 L604.5733,52.687 L597.24,52.687 " fill="#080000"/></g></a><!--class Gegevensverwerking__persoonsgegevens--><a href="#Gegevensverwerking+persoonsgegevens" target="_top" title="#Gegevensverwerking+persoonsgegevens" xlink:actuate="onRequest" xlink:href="#Gegevensverwerking+persoonsgegevens" xlink:show="new" xlink:title="#Gegevensverwerking+persoonsgegevens" xlink:type="simple"><g id="elem_Gegevensverwerking__persoonsgegevens"><rect codeLine="45" fill="#FFFFFF" height="22.6489" id="Gegevensverwerking__persoonsgegevens" rx="4" ry="4" style="stroke:#000000;stroke-width:0.5;" width="192.9731" x="235.74" y="21"/><text fill="#080000" font-family="Times New Roman" font-size="11" font-weight="bold" lengthAdjust="spacing" textLength="2.75" x="238.74" y="36.2695">&#160;</text><text fill="#080000" font-family="Times New Roman" font-size="11" font-weight="bold" lengthAdjust="spacing" textLength="98.3662" x="241.49" y="36.2695">Gegevensverwerking</text><text fill="#080000" font-family="Times New Roman" font-size="11" font-weight="bold" lengthAdjust="spacing" textLength="2.75" x="339.8562" y="36.2695">&#160;</text><text fill="#080000" font-family="Times New Roman" font-size="11" font-weight="bold" lengthAdjust="spacing" textLength="83.1069" x="342.6062" y="36.2695">persoonsgegevens</text></g></a><!--class Inherent__risico__voor__betrokkenen--><a href="#Inherent+risico+voor+betrokkenen" target="_top" title="#Inherent+risico+voor+betrokkenen" xlink:actuate="onRequest" xlink:href="#Inherent+risico+voor+betrokkenen" xlink:show="new" xlink:title="#Inherent+risico+voor+betrokkenen" xlink:type="simple"><g id="elem_Inherent__risico__voor__betrokkenen"><rect codeLine="48" fill="#FFFFFF" height="22.6489" id="Inherent__risico__voor__betrokkenen" rx="4" ry="4" style="stroke:#000000;stroke-width:0.5;" width="164.2646" x="281.24" y="247"/><text fill="#080000" font-family="Times New Roman" font-size="11" font-weight="bold" lengthAdjust="spacing" textLength="2.75" x="284.24" y="262.2695">&#160;</text><text fill="#080000" font-family="Times New Roman" font-size="11" font-weight="bold" lengthAdjust="spacing" textLength="40.9438" x="286.99" y="262.2695">Inherent</text><text fill="#080000" font-family="Times New Roman" font-size="11" font-weight="bold" lengthAdjust="spacing" textLength="2.75" x="327.9338" y="262.2695">&#160;</text><text fill="#080000" font-family="Times New Roman" font-size="11" font-weight="bold" lengthAdjust="spacing" textLength="25.6577" x="330.6838" y="262.2695">risico</text><text fill="#080000" font-family="Times New Roman" font-size="11" font-weight="bold" lengthAdjust="spacing" textLength="2.75" x="356.3416" y="262.2695">&#160;</text><text fill="#080000" font-family="Times New Roman" font-size="11" font-weight="bold" lengthAdjust="spacing" textLength="21.3823" x="359.0916" y="262.2695">voor</text><text fill="#080000" font-family="Times New Roman" font-size="11" font-weight="bold" lengthAdjust="spacing" textLength="2.75" x="380.4739" y="262.2695">&#160;</text><text fill="#080000" font-family="Times New Roman" font-size="11" font-weight="bold" lengthAdjust="spacing" textLength="59.2808" x="383.2239" y="262.2695">betrokkenen</text></g></a><!--class Land--><a href="#Land" target="_top" title="#Land" xlink:actuate="onRequest" xlink:href="#Land" xlink:show="new" xlink:title="#Land" xlink:type="simple"><g id="elem_Land"><rect codeLine="51" fill="#FFFFFF" height="43.2979" id="Land" rx="4" ry="4" style="stroke:#000000;stroke-width:0.5;" width="78.8426" x="463.74" y="11"/><text fill="#080000" font-family="Times New Roman" font-size="11" font-weight="bold" lengthAdjust="spacing" textLength="2.75" x="489.2502" y="26.2695">&#160;</text><text fill="#080000" font-family="Times New Roman" font-size="11" font-weight="bold" lengthAdjust="spacing" textLength="25.0723" x="492.0002" y="26.2695">Land</text><line style="stroke:#000000;stroke-width:0.5;" x1="464.74" x2="541.5826" y1="33.6489" y2="33.6489"/><ellipse cx="474.74" cy="45.4734" fill="#FFFFFF" fill-opacity="0.00000" rx="3" ry="3" style="stroke:#038048;stroke-width:1;"/><path d="M487.7817,40.2145 C486.5167,40.2145 485.49,41.2412 485.49,42.5062 C485.49,42.6529 485.49,42.7995 485.5175,42.937 L482.74,45.7145 L482.74,47.5479 L485.49,47.5479 L485.49,45.7145 L487.3233,45.7145 L487.3233,44.7979 L487.3508,44.7704 C487.4883,44.7979 487.635,44.7979 487.7817,44.7979 C489.0467,44.7979 490.0733,43.7712 490.0733,42.5062 C490.0733,41.2412 489.0467,40.2145 487.7817,40.2145 M488.24,41.1312 C488.7442,41.1312 489.1567,41.5437 489.1567,42.0479 C489.1567,42.552 488.7442,42.9645 488.24,42.9645 C487.7358,42.9645 487.3233,42.552 487.3233,42.0479 C487.3233,41.5437 487.7358,41.1312 488.24,41.1312 " fill="#FFA500"/><text fill="#080000" font-family="Times New Roman" font-size="11" lengthAdjust="spacing" textLength="18.9385" x="491.0733" y="47.9185">land</text><text fill="#080000" font-family="Times New Roman" font-size="11" lengthAdjust="spacing" textLength="2.75" x="510.0118" y="47.9185">&#160;</text><text fill="#080000" font-family="Times New Roman" font-size="11" lengthAdjust="spacing" textLength="23.8208" x="512.7618" y="47.9185">naam</text></g></a><!--class Risico__op__basis__van__doorgifte--><a href="#Risico+op+basis+van+doorgifte" target="_top" title="#Risico+op+basis+van+doorgifte" xlink:actuate="onRequest" xlink:href="#Risico+op+basis+van+doorgifte" xlink:show="new" xlink:title="#Risico+op+basis+van+doorgifte" xlink:type="simple"><g id="elem_Risico__op__basis__van__doorgifte"><rect codeLine="55" fill="#FFFFFF" height="43.2979" id="Risico__op__basis__van__doorgifte" rx="4" ry="4" style="stroke:#000000;stroke-width:0.5;" width="249.124" x="238.74" y="330"/><text fill="#080000" font-family="Times New Roman" font-size="11" font-weight="bold" lengthAdjust="spacing" textLength="2.75" x="294.6997" y="345.2695">&#160;</text><text fill="#080000" font-family="Times New Roman" font-size="11" font-weight="bold" lengthAdjust="spacing" textLength="28.7192" x="297.4497" y="345.2695">Risico</text><text fill="#080000" font-family="Times New Roman" font-size="11" font-weight="bold" lengthAdjust="spacing" textLength="2.75" x="326.169" y="345.2695">&#160;</text><text fill="#080000" font-family="Times New Roman" font-size="11" font-weight="bold" lengthAdjust="spacing" textLength="11.6177" x="328.919" y="345.2695">op</text><text fill="#080000" font-family="Times New Roman" font-size="11" font-weight="bold" lengthAdjust="spacing" textLength="2.75" x="340.5366" y="345.2695">&#160;</text><text fill="#080000" font-family="Times New Roman" font-size="11" font-weight="bold" lengthAdjust="spacing" textLength="23.2354" x="343.2866" y="345.2695">basis</text><text fill="#080000" font-family="Times New Roman" font-size="11" font-weight="bold" lengthAdjust="spacing" textLength="2.75" x="366.522" y="345.2695">&#160;</text><text fill="#080000" font-family="Times New Roman" font-size="11" font-weight="bold" lengthAdjust="spacing" textLength="17.1177" x="369.272" y="345.2695">van</text><text fill="#080000" font-family="Times New Roman" font-size="11" font-weight="bold" lengthAdjust="spacing" textLength="2.75" x="386.3897" y="345.2695">&#160;</text><text fill="#080000" font-family="Times New Roman" font-size="11" font-weight="bold" lengthAdjust="spacing" textLength="42.7646" x="389.1397" y="345.2695">doorgifte</text><line style="stroke:#000000;stroke-width:0.5;" x1="239.74" x2="486.864" y1="352.6489" y2="352.6489"/><ellipse cx="249.74" cy="364.4734" fill="#FFFFFF" fill-opacity="0.00000" rx="3" ry="3" style="stroke:#038048;stroke-width:1;"/><text fill="#080000" font-family="Times New Roman" font-size="11" lengthAdjust="spacing" textLength="44.5854" x="256.74" y="366.9185">Maatregel</text><text fill="#080000" font-family="Times New Roman" font-size="11" lengthAdjust="spacing" textLength="2.75" x="301.3254" y="366.9185">&#160;</text><text fill="#080000" font-family="Times New Roman" font-size="11" lengthAdjust="spacing" textLength="23.8208" x="304.0754" y="366.9185">tegen</text><text fill="#080000" font-family="Times New Roman" font-size="11" lengthAdjust="spacing" textLength="2.75" x="327.8963" y="366.9185">&#160;</text><text fill="#080000" font-family="Times New Roman" font-size="11" lengthAdjust="spacing" textLength="24.4385" x="330.6463" y="366.9185">risico</text><text fill="#080000" font-family="Times New Roman" font-size="11" lengthAdjust="spacing" textLength="2.75" x="355.0847" y="366.9185">&#160;</text><text fill="#080000" font-family="Times New Roman" font-size="11" lengthAdjust="spacing" textLength="11" x="357.8347" y="366.9185">op</text><text fill="#080000" font-family="Times New Roman" font-size="11" lengthAdjust="spacing" textLength="2.75" x="368.8347" y="366.9185">&#160;</text><text fill="#080000" font-family="Times New Roman" font-size="11" lengthAdjust="spacing" textLength="22" x="371.5847" y="366.9185">basis</text><text fill="#080000" font-family="Times New Roman" font-size="11" lengthAdjust="spacing" textLength="2.75" x="393.5847" y="366.9185">&#160;</text><text fill="#080000" font-family="Times New Roman" font-size="11" lengthAdjust="spacing" textLength="15.8823" x="396.3347" y="366.9185">van</text><text fill="#080000" font-family="Times New Roman" font-size="11" lengthAdjust="spacing" textLength="2.75" x="412.2171" y="366.9185">&#160;</text><text fill="#080000" font-family="Times New Roman" font-size="11" lengthAdjust="spacing" textLength="40.3208" x="414.9671" y="366.9185">doorgifte</text><text fill="#080000" font-family="Times New Roman" font-size="11" lengthAdjust="spacing" textLength="2.75" x="455.2879" y="366.9185">&#160;</text><text fill="#080000" font-family="Times New Roman" font-size="11" lengthAdjust="spacing" textLength="23.8262" x="458.0379" y="366.9185">[1..*]</text></g></a><!--class Risico__voor__betrokkenen--><a href="#Risico+voor+betrokkenen" target="_top" title="#Risico+voor+betrokkenen" xlink:actuate="onRequest" xlink:href="#Risico+voor+betrokkenen" xlink:show="new" xlink:title="#Risico+voor+betrokkenen" xlink:type="simple"><g id="elem_Risico__voor__betrokkenen"><rect codeLine="59" fill="#FFFFFF" height="63.2801" id="Risico__voor__betrokkenen" rx="4" ry="4" style="stroke:#000000;stroke-width:0.5;" width="123.6323" x="301.24" y="121"/><text fill="#080000" font-family="Times New Roman" font-size="11" font-weight="bold" lengthAdjust="spacing" textLength="2.75" x="304.24" y="136.2695">&#160;</text><text fill="#080000" font-family="Times New Roman" font-size="11" font-weight="bold" lengthAdjust="spacing" textLength="28.7192" x="306.99" y="136.2695">Risico</text><text fill="#080000" font-family="Times New Roman" font-size="11" font-weight="bold" lengthAdjust="spacing" textLength="2.75" x="335.7092" y="136.2695">&#160;</text><text fill="#080000" font-family="Times New Roman" font-size="11" font-weight="bold" lengthAdjust="spacing" textLength="21.3823" x="338.4592" y="136.2695">voor</text><text fill="#080000" font-family="Times New Roman" font-size="11" font-weight="bold" lengthAdjust="spacing" textLength="2.75" x="359.8416" y="136.2695">&#160;</text><text fill="#080000" font-family="Times New Roman" font-size="11" font-weight="bold" lengthAdjust="spacing" textLength="59.2808" x="362.5916" y="136.2695">betrokkenen</text><line style="stroke:#000000;stroke-width:0.5;" x1="302.24" x2="423.8723" y1="143.6489" y2="143.6489"/><ellipse cx="312.24" cy="155.4734" fill="#FFFFFF" fill-opacity="0.00000" rx="3" ry="3" style="stroke:#038048;stroke-width:1;"/><path d="M325.2817,150.2145 C324.0167,150.2145 322.99,151.2412 322.99,152.5062 C322.99,152.6529 322.99,152.7995 323.0175,152.937 L320.24,155.7145 L320.24,157.5479 L322.99,157.5479 L322.99,155.7145 L324.8233,155.7145 L324.8233,154.7979 L324.8508,154.7704 C324.9883,154.7979 325.135,154.7979 325.2817,154.7979 C326.5467,154.7979 327.5733,153.7712 327.5733,152.5062 C327.5733,151.2412 326.5467,150.2145 325.2817,150.2145 M325.74,151.1312 C326.2442,151.1312 326.6567,151.5437 326.6567,152.0479 C326.6567,152.552 326.2442,152.9645 325.74,152.9645 C325.2358,152.9645 324.8233,152.552 324.8233,152.0479 C324.8233,151.5437 325.2358,151.1312 325.74,151.1312 " fill="#FFA500"/><text fill="#080000" font-family="Times New Roman" font-size="11" lengthAdjust="spacing" textLength="25.6685" x="328.5733" y="157.9185">DPIA</text><ellipse cx="312.24" cy="168.1223" fill="#FFFFFF" fill-opacity="0.00000" rx="3" ry="3" style="stroke:#038048;stroke-width:1;"/><path d="M325.2817,162.8634 C324.0167,162.8634 322.99,163.8901 322.99,165.1551 C322.99,165.3018 322.99,165.4484 323.0175,165.5859 L320.24,168.3634 L320.24,170.1968 L322.99,170.1968 L322.99,168.3634 L324.8233,168.3634 L324.8233,167.4468 L324.8508,167.4193 C324.9883,167.4468 325.135,167.4468 325.2817,167.4468 C326.5467,167.4468 327.5733,166.4201 327.5733,165.1551 C327.5733,163.8901 326.5467,162.8634 325.2817,162.8634 M325.74,163.7801 C326.2442,163.7801 326.6567,164.1926 326.6567,164.6968 C326.6567,165.2009 326.2442,165.6134 325.74,165.6134 C325.2358,165.6134 324.8233,165.2009 324.8233,164.6968 C324.8233,164.1926 325.2358,163.7801 325.74,163.7801 " fill="#FFA500"/><text fill="#080000" font-family="Times New Roman" font-size="11" lengthAdjust="spacing" textLength="78.8154" x="328.5733" y="170.5674">risicobeschrijving</text><path d="M320.24,173.8634 L320.24,174.7801 L327.5733,174.7801 L327.5733,173.8634 L320.24,173.8634 M320.24,176.5859 L320.24,177.5026 L327.5733,177.5026 L327.5733,176.5859 L320.24,176.5859 M320.24,179.3359 L320.24,180.2526 L327.5733,180.2526 L327.5733,179.3359 L320.24,179.3359 " fill="#080000"/></g></a><!--class Verwerkingslocatie__buiten__de__EER--><a href="#Verwerkingslocatie+buiten+de+EER" target="_top" title="#Verwerkingslocatie+buiten+de+EER" xlink:actuate="onRequest" xlink:href="#Verwerkingslocatie+buiten+de+EER" xlink:show="new" xlink:title="#Verwerkingslocatie+buiten+de+EER" xlink:type="simple"><g id="elem_Verwerkingslocatie__buiten__de__EER"><rect codeLine="65" fill="#FFFFFF" height="68.5957" id="Verwerkingslocatie__buiten__de__EER" rx="4" ry="4" style="stroke:#000000;stroke-width:0.5;" width="208.1802" x="58.24" y="118"/><text fill="#080000" font-family="Times New Roman" font-size="11" font-weight="bold" lengthAdjust="spacing" textLength="2.75" x="79.5293" y="133.2695">&#160;</text><text fill="#080000" font-family="Times New Roman" font-size="11" font-weight="bold" lengthAdjust="spacing" textLength="91.0293" x="82.2793" y="133.2695">Verwerkingslocatie</text><text fill="#080000" font-family="Times New Roman" font-size="11" font-weight="bold" lengthAdjust="spacing" textLength="2.75" x="173.3086" y="133.2695">&#160;</text><text fill="#080000" font-family="Times New Roman" font-size="11" font-weight="bold" lengthAdjust="spacing" textLength="29.9546" x="176.0586" y="133.2695">buiten</text><text fill="#080000" font-family="Times New Roman" font-size="11" font-weight="bold" lengthAdjust="spacing" textLength="2.75" x="206.0132" y="133.2695">&#160;</text><text fill="#080000" font-family="Times New Roman" font-size="11" font-weight="bold" lengthAdjust="spacing" textLength="11" x="208.7632" y="133.2695">de</text><text fill="#080000" font-family="Times New Roman" font-size="11" font-weight="bold" lengthAdjust="spacing" textLength="2.75" x="219.7632" y="133.2695">&#160;</text><text fill="#080000" font-family="Times New Roman" font-size="11" font-weight="bold" lengthAdjust="spacing" textLength="22.6177" x="222.5132" y="133.2695">EER</text><line style="stroke:#000000;stroke-width:0.5;" x1="59.24" x2="265.4202" y1="140.6489" y2="140.6489"/><ellipse cx="69.24" cy="152.4734" fill="#FFFFFF" fill-opacity="0.00000" rx="3" ry="3" style="stroke:#038048;stroke-width:1;"/><path d="M82.2817,147.2145 C81.0167,147.2145 79.99,148.2412 79.99,149.5062 C79.99,149.6529 79.99,149.7995 80.0175,149.937 L77.24,152.7145 L77.24,154.5479 L79.99,154.5479 L79.99,152.7145 L81.8233,152.7145 L81.8233,151.7979 L81.8508,151.7704 C81.9883,151.7979 82.135,151.7979 82.2817,151.7979 C83.5467,151.7979 84.5733,150.7712 84.5733,149.5062 C84.5733,148.2412 83.5467,147.2145 82.2817,147.2145 M82.74,148.1312 C83.2442,148.1312 83.6567,148.5437 83.6567,149.0479 C83.6567,149.552 83.2442,149.9645 82.74,149.9645 C82.2358,149.9645 81.8233,149.552 81.8233,149.0479 C81.8233,148.5437 82.2358,148.1312 82.74,148.1312 " fill="#FFA500"/><text fill="#080000" font-family="Times New Roman" font-size="11" font-style="italic" lengthAdjust="spacing" textLength="25.0454" x="85.5733" y="154.9185">DPIA</text><text fill="#080000" font-family="Times New Roman" font-size="11" lengthAdjust="spacing" textLength="2.75" x="110.6187" y="154.9185">&#160;</text><path d="M114.4512,147.2145 C114.3962,147.2145 114.3687,147.2512 114.3687,147.297 L114.3687,154.4562 C114.3687,154.502 114.4054,154.5387 114.4512,154.5387 L120.6937,154.5387 C120.7396,154.5387 120.7762,154.502 120.7762,154.4562 L120.7762,147.297 C120.7762,147.242 120.7396,147.2145 120.6937,147.2145 L114.4512,147.2145 M115.2854,148.1312 L119.8687,148.1312 L119.8687,149.9645 L115.2854,149.9645 L115.2854,148.1312 M115.2854,150.8812 L116.2021,150.8812 L116.2021,151.7979 L115.2854,151.7979 L115.2854,150.8812 M117.1187,150.8812 L118.0354,150.8812 L118.0354,151.7979 L117.1187,151.7979 L117.1187,150.8812 M118.9521,150.8812 L119.8687,150.8812 L119.8687,153.6312 L118.9521,153.6312 L118.9521,150.8812 M115.2854,152.7145 L116.2021,152.7145 L116.2021,153.6312 L115.2854,153.6312 L115.2854,152.7145 M117.1187,152.7145 L118.0354,152.7145 L118.0354,153.6312 L117.1187,153.6312 L117.1187,152.7145 " fill="#080000"/><ellipse cx="69.24" cy="165.1223" fill="#FFFFFF" fill-opacity="0.00000" rx="3" ry="3" style="stroke:#038048;stroke-width:1;"/><path d="M82.2817,159.8634 C81.0167,159.8634 79.99,160.8901 79.99,162.1551 C79.99,162.3018 79.99,162.4484 80.0175,162.5859 L77.24,165.3634 L77.24,167.1968 L79.99,167.1968 L79.99,165.3634 L81.8233,165.3634 L81.8233,164.4468 L81.8508,164.4193 C81.9883,164.4468 82.135,164.4468 82.2817,164.4468 C83.5467,164.4468 84.5733,163.4201 84.5733,162.1551 C84.5733,160.8901 83.5467,159.8634 82.2817,159.8634 M82.74,160.7801 C83.2442,160.7801 83.6567,161.1926 83.6567,161.6968 C83.6567,162.2009 83.2442,162.6134 82.74,162.6134 C82.2358,162.6134 81.8233,162.2009 81.8233,161.6968 C81.8233,161.1926 82.2358,160.7801 82.74,160.7801 " fill="#FFA500"/><text fill="#080000" font-family="Times New Roman" font-size="11" font-style="italic" lengthAdjust="spacing" textLength="27.4893" x="85.5733" y="167.5674">Derde</text><text fill="#080000" font-family="Times New Roman" font-size="11" font-style="italic" lengthAdjust="spacing" textLength="2.75" x="113.0626" y="167.5674">&#160;</text><text fill="#080000" font-family="Times New Roman" font-size="11" font-style="italic" lengthAdjust="spacing" textLength="19.5562" x="115.8126" y="167.5674">land</text><text fill="#080000" font-family="Times New Roman" font-size="11" lengthAdjust="spacing" textLength="2.75" x="135.3687" y="167.5674">&#160;</text><path d="M139.2012,159.8634 C139.1462,159.8634 139.1187,159.9001 139.1187,159.9459 L139.1187,167.1051 C139.1187,167.1509 139.1554,167.1876 139.2012,167.1876 L145.4437,167.1876 C145.4896,167.1876 145.5262,167.1509 145.5262,167.1051 L145.5262,159.9459 C145.5262,159.8909 145.4896,159.8634 145.4437,159.8634 L139.2012,159.8634 M140.0354,160.7801 L144.6187,160.7801 L144.6187,162.6134 L140.0354,162.6134 L140.0354,160.7801 M140.0354,163.5301 L140.9521,163.5301 L140.9521,164.4468 L140.0354,164.4468 L140.0354,163.5301 M141.8687,163.5301 L142.7854,163.5301 L142.7854,164.4468 L141.8687,164.4468 L141.8687,163.5301 M143.7021,163.5301 L144.6187,163.5301 L144.6187,166.2801 L143.7021,166.2801 L143.7021,163.5301 M140.0354,165.3634 L140.9521,165.3634 L140.9521,166.2801 L140.0354,166.2801 L140.0354,165.3634 M141.8687,165.3634 L142.7854,165.3634 L142.7854,166.2801 L141.8687,166.2801 L141.8687,165.3634 " fill="#080000"/><ellipse cx="69.24" cy="177.7712" fill="#FFFFFF" fill-opacity="0.00000" rx="3" ry="3" style="stroke:#038048;stroke-width:1;"/><text fill="#080000" font-family="Times New Roman" font-size="11" lengthAdjust="spacing" textLength="97.7432" x="76.24" y="180.2163">Doorgiftemechanisme</text><text fill="#080000" font-family="Times New Roman" font-size="11" lengthAdjust="spacing" textLength="2.75" x="173.9832" y="180.2163">&#160;</text><text fill="#080000" font-family="Times New Roman" font-size="11" lengthAdjust="spacing" textLength="83.687" x="176.7332" y="180.2163">verwerkingslocatie</text></g></a><!--link Gegevensverwerking__persoonsgegevens to Gegevensverwerking--><g id="link_Gegevensverwerking__persoonsgegevens_Gegevensverwerking"><path codeLine="72" d="M383.91,44.27 C383.91,60.56 383.91,88 383.91,88 C383.91,88 652.24,88 652.24,88 C652.24,88 652.24,90.79 652.24,76.3 " fill="#FFFFFF" fill-opacity="0.00000" id="Gegevensverwerking__persoonsgegevens-to-Gegevensverwerking" style="stroke:#000000;stroke-width:1;"/><polygon fill="#FFFFFF" fill-opacity="0.00000" points="652.24,58.3,646.24,76.3,658.24,76.3,652.24,58.3" style="stroke:#000000;stroke-width:1;"/></g><!--reverse link Inherent__risico__voor__betrokkenen to Risico__op__basis__van__doorgifte--><g id="link_Inherent__risico__voor__betrokkenen_Risico__op__basis__van__doorgifte"><path codeLine="73" d="M363.24,288.28 C363.24,303.23 363.24,311.33 363.24,329.9 " fill="#FFFFFF" fill-opacity="0.00000" id="Inherent__risico__voor__betrokkenen-backto-Risico__op__basis__van__doorgifte" style="stroke:#000000;stroke-width:1;"/><polygon fill="#FFFFFF" fill-opacity="0.00000" points="363.24,270.28,357.24,288.28,369.24,288.28,363.24,270.28" style="stroke:#000000;stroke-width:1;"/></g><!--reverse link Land to Derde__land--><g id="link_Land_Derde__land"><path codeLine="74" d="M497.24,72.23 C497.24,97.63 497.24,120.72 497.24,140.76 " fill="#FFFFFF" fill-opacity="0.00000" id="Land-backto-Derde__land" style="stroke:#000000;stroke-width:1;"/><polygon fill="#FFFFFF" fill-opacity="0.00000" points="497.24,54.23,491.24,72.23,503.24,72.23,497.24,54.23" style="stroke:#000000;stroke-width:1;"/></g><!--reverse link Risico__voor__betrokkenen to Inherent__risico__voor__betrokkenen--><g id="link_Risico__voor__betrokkenen_Inherent__risico__voor__betrokkenen"><path codeLine="75" d="M363.24,202.02 C363.24,223.13 363.24,231.72 363.24,246.75 " fill="#FFFFFF" fill-opacity="0.00000" id="Risico__voor__betrokkenen-backto-Inherent__risico__voor__betrokkenen" style="stroke:#000000;stroke-width:1;"/><polygon fill="#FFFFFF" fill-opacity="0.00000" points="363.24,184.02,357.24,202.02,369.24,202.02,363.24,184.02" style="stroke:#000000;stroke-width:1;"/></g><!--link DPIA to Gegevensverwerking__persoonsgegevens--><g id="link_DPIA_Gegevensverwerking__persoonsgegevens"><path codeLine="78" d="M200.39,33 C211.06,33 223.17,33 235.61,33 " fill="#FFFFFF" fill-opacity="0.00000" id="DPIA-Gegevensverwerking__persoonsgegevens" style="stroke:#000000;stroke-width:1;"/><text fill="#080000" font-family="Times New Roman" font-size="11" lengthAdjust="spacing" textLength="210.1548" x="7" y="44.2695">DPIA heeft betrekking op Gegevensverwerking</text><text fill="#080000" font-family="Times New Roman" font-size="11" lengthAdjust="spacing" textLength="16.5" x="208.0927" y="30.4429">0..*</text><text fill="#080000" font-family="Times New Roman" font-size="11" lengthAdjust="spacing" textLength="16.5" x="211.2933" y="30.8711">1..*</text></g><!--link DPIA to Land--><g id="link_DPIA_Land"><path codeLine="79" d="M200.37,48 C265.45,48 391.37,48 457.52,48 " fill="#FFFFFF" fill-opacity="0.00000" id="DPIA-to-Land" style="stroke:#000000;stroke-width:1;"/><polygon fill="#000000" points="463.52,48,454.52,44,458.52,48,454.52,52,463.52,48" style="stroke:#000000;stroke-width:1;"/><text fill="#080000" font-family="Times New Roman" font-size="11" lengthAdjust="spacing" textLength="258.1025" x="202.94" y="59.2695">Locatie monitoring en evaluatie van maatregelen bij DPIA</text><text fill="#080000" font-family="Times New Roman" font-size="11" lengthAdjust="spacing" textLength="16.5" x="208.0694" y="61.9148">0..*</text><text fill="#080000" font-family="Times New Roman" font-size="11" lengthAdjust="spacing" textLength="5.5" x="450.2726" y="48.1744">1</text></g><!--reverse link DPIA to Risico__voor__betrokkenen--><g id="link_DPIA_Risico__voor__betrokkenen"><path codeLine="80" d="M206.49,51 C259.42,51 342.57,51 342.57,51 C342.57,51 342.57,91.15 342.57,120.94 " fill="#FFFFFF" fill-opacity="0.00000" id="DPIA-backto-Risico__voor__betrokkenen" style="stroke:#000000;stroke-width:1;"/><polygon fill="#000000" points="200.49,51,209.49,55,205.49,51,209.49,47,200.49,51" style="stroke:#000000;stroke-width:1;"/><text fill="#080000" font-family="Times New Roman" font-size="11" lengthAdjust="spacing" textLength="5.5" x="207.9017" y="69.8663">1</text><text fill="#080000" font-family="Times New Roman" font-size="11" lengthAdjust="spacing" textLength="16.5" x="320.0404" y="110.5664">0..*</text></g><!--reverse link DPIA to Verwerkingslocatie__buiten__de__EER--><g id="link_DPIA_Verwerkingslocatie__buiten__de__EER"><path codeLine="81" d="M162.24,64.24 C162.24,81.6 162.24,98.7 162.24,117.69 " fill="#FFFFFF" fill-opacity="0.00000" id="DPIA-backto-Verwerkingslocatie__buiten__de__EER" style="stroke:#000000;stroke-width:1;"/><polygon fill="#000000" points="162.24,58.24,158.24,67.24,162.24,63.24,166.24,67.24,162.24,58.24" style="stroke:#000000;stroke-width:1;"/><text fill="#080000" font-family="Times New Roman" font-size="11" lengthAdjust="spacing" textLength="5.5" x="156.7444" y="75.9671">1</text><text fill="#080000" font-family="Times New Roman" font-size="11" lengthAdjust="spacing" textLength="16.5" x="144.623" y="107.6511">0..*</text></g><!--link Verwerkingslocatie__buiten__de__EER to Derde__land--><g id="link_Verwerkingslocatie__buiten__de__EER_Derde__land"><path codeLine="82" d="M252.49,187.02 C252.49,202.35 252.49,217 252.49,217 C252.49,217 477.24,217 477.24,217 C477.24,217 477.24,188.58 477.24,170.03 " fill="#FFFFFF" fill-opacity="0.00000" id="Verwerkingslocatie__buiten__de__EER-to-Derde__land" style="stroke:#000000;stroke-width:1;"/><polygon fill="#000000" points="477.24,164.03,473.24,173.03,477.24,169.03,481.24,173.03,477.24,164.03" style="stroke:#000000;stroke-width:1;"/><text fill="#080000" font-family="Times New Roman" font-size="11" lengthAdjust="spacing" textLength="16.5" x="251.6843" y="204.8575">0..*</text><text fill="#080000" font-family="Times New Roman" font-size="11" lengthAdjust="spacing" textLength="5.5" x="463.0619" y="181.7369">1</text></g><!--link Gegevensverwerking__persoonsgegevens to Land--><g id="link_Gegevensverwerking__persoonsgegevens_Land"><path codeLine="83" d="M429.23,33 C441.29,33 453.04,33 463.5,33 " fill="#FFFFFF" fill-opacity="0.00000" id="Gegevensverwerking__persoonsgegevens-Land" style="stroke:#000000;stroke-width:1;"/><text fill="#080000" font-family="Times New Roman" font-size="11" lengthAdjust="spacing" textLength="198.5317" x="247.37" y="44.2695">Verwerkingslocatie van gegevensverwerking</text><text fill="#080000" font-family="Times New Roman" font-size="11" lengthAdjust="spacing" textLength="16.5" x="436.6306" y="30.918">0..*</text><text fill="#080000" font-family="Times New Roman" font-size="11" lengthAdjust="spacing" textLength="16.5" x="439.3512" y="30.3544">1..*</text></g><!--SRC=[lLLjQzim4FwUNt6aq45CcuJ1w4e8T7qPXQoCT6mVIZ6AVOtLs9AHv8Hkwt_VINwPKzj9OB1y2DRTSs-FxavwnKNA54iWJ3by_D3JbK39J8I1L08LdFKY7Y84N0Knvj_Qe49fNjBYZ4bgNY31P85Arzp4NA15WLGcaZN5Hh7q1mzD1Ez7evfymOBLqWM_bB5KO1GJcbGeJ0sb8nRA3HTBk66nnfg6AIKtkUdHoFrgoX2VM1OR-DK3k972tB44uHjFKCCTRc0k4oOArJt_YJ0U5wVIuPbp2F19gX3LTXYIlidzwCRzUg-r5EwamUtu5ugpk1xrGslGkfFBc6dzlwi0UEtr0XUvFnZ0rTVR2nWC-i1q_WqF3qVsu_4HN6hU973sacvmYTF9yGfVffEX4qwftnW4CaG2JeuJ5Dcq4G0fEuYP2AimLkBxJkIYsRDdZsNCBGUVSObh57gDQeDgPRkbSDIYiVwQueDgMJQzxQwi9NnAOoEbqAMlxanzlu5jpzrxYsibwLP4Q8SB5DSyaB2MLEO2ZPAh5GeKPI8bplTpeEzRfE_NeJQF4kVbCC-Yl1geDObPxP9dvUtEQlUwat_N3uAnvAtRULwIJ6chQAvXpGI4bC-IFz4G5l7cHJaofM8iZ2fZmlV_0cqoESgJgUSm7a6y2b5b-OKneuZj60pzYvBJZWGUngUdWyUEfBlkORwJ_VbkqdVIQ6Tt7oOlQ84wY1H_NbENTNVvzweJTIm3PZZ28kE6CgMnlhwUbnKrSLIN0z8bqBU5sjgQE2-7URG425GLEHpkAtCufAG35WTPp0p93h2gbb6RxLLvfma64HDSqq9UDzBD2G9u1_SPpQPz5ZNOtjNPmXr8rx8Q9hzFOdmo9mVj0d9noAIIJte_nSd-xYU7RY8hYzeI9jryVuW3yibPoLyrXSGhfv8YdkfpKhZ7fJ-YMUa3d2Y-Z8WBw8-TuA3zU9xxY91eT3E5AySipMNJlYFYr8RivroSmwnew4GAJarWdL79k6PnvkHsq9Do6P1cmP-XcAzkngg8MLg6AsmE6P7AsZNBFzXlrRjzsmUntNLL1NKjQy6orNn4_m00]--></g></svg>