<svg xmlns="http://www.w3.org/2000/svg" xmlns:xlink="http://www.w3.org/1999/xlink" contentStyleType="text/css" data-diagram-type="CLASS" height="213px" preserveAspectRatio="none" style="width:705px;height:213px;" version="1.1" viewBox="0 0 705 213" width="705px" zoomAndPan="magnify"><defs/><g><!--class Beleid--><a href="#Beleid" target="_top" title="#Beleid" xlink:actuate="onRequest" xlink:href="#Beleid" xlink:show="new" xlink:title="#Beleid" xlink:type="simple"><g id="elem_Beleid"><rect codeLine="32" fill="#FFFFFF" height="68.5957" id="Beleid" rx="4" ry="4" style="stroke:#000000;stroke-width:0.5;" width="101.4281" x="597.25" y="128"/><text fill="#080000" font-family="Times New Roman" font-size="11" font-weight="bold" lengthAdjust="spacing" textLength="2.75" x="631.9233" y="143.2695">&#160;</text><text fill="#080000" font-family="Times New Roman" font-size="11" font-weight="bold" lengthAdjust="spacing" textLength="29.3315" x="634.6733" y="143.2695">Beleid</text><line style="stroke:#000000;stroke-width:0.5;" x1="598.25" x2="697.6781" y1="150.6489" y2="150.6489"/><ellipse cx="608.25" cy="162.4734" fill="#FFFFFF" fill-opacity="0.00000" rx="3" ry="3" style="stroke:#038048;stroke-width:1;"/><path d="M621.2917,157.2145 C620.0267,157.2145 619,158.2412 619,159.5062 C619,159.6529 619,159.7995 619.0275,159.937 L616.25,162.7145 L616.25,164.5479 L619,164.5479 L619,162.7145 L620.8333,162.7145 L620.8333,161.7979 L620.8608,161.7704 C620.9983,161.7979 621.145,161.7979 621.2917,161.7979 C622.5567,161.7979 623.5833,160.7712 623.5833,159.5062 C623.5833,158.2412 622.5567,157.2145 621.2917,157.2145 M621.75,158.1312 C622.2542,158.1312 622.6667,158.5437 622.6667,159.0479 C622.6667,159.552 622.2542,159.9645 621.75,159.9645 C621.2458,159.9645 620.8333,159.552 620.8333,159.0479 C620.8333,158.5437 621.2458,158.1312 621.75,158.1312 " fill="#FFA500"/><text fill="#080000" font-family="Times New Roman" font-size="11" lengthAdjust="spacing" textLength="26.877" x="624.5833" y="164.9185">beleid</text><text fill="#080000" font-family="Times New Roman" font-size="11" lengthAdjust="spacing" textLength="2.75" x="651.4603" y="164.9185">&#160;</text><text fill="#080000" font-family="Times New Roman" font-size="11" lengthAdjust="spacing" textLength="23.8208" x="654.2103" y="164.9185">naam</text><ellipse cx="608.25" cy="175.1223" fill="#FFFFFF" fill-opacity="0.00000" rx="3" ry="3" style="stroke:#038048;stroke-width:1;"/><path d="M621.2917,169.8634 C620.0267,169.8634 619,170.8901 619,172.1551 C619,172.3018 619,172.4484 619.0275,172.5859 L616.25,175.3634 L616.25,177.1968 L619,177.1968 L619,175.3634 L620.8333,175.3634 L620.8333,174.4468 L620.8608,174.4193 C620.9983,174.4468 621.145,174.4468 621.2917,174.4468 C622.5567,174.4468 623.5833,173.4201 623.5833,172.1551 C623.5833,170.8901 622.5567,169.8634 621.2917,169.8634 M621.75,170.7801 C622.2542,170.7801 622.6667,171.1926 622.6667,171.6968 C622.6667,172.2009 622.2542,172.6134 621.75,172.6134 C621.2458,172.6134 620.8333,172.2009 620.8333,171.6968 C620.8333,171.1926 621.2458,170.7801 621.75,170.7801 " fill="#FFA500"/><text fill="#080000" font-family="Times New Roman" font-size="11" lengthAdjust="spacing" textLength="29.3208" x="624.5833" y="177.5674">pagina</text><text fill="#080000" font-family="Times New Roman" font-size="11" lengthAdjust="spacing" textLength="2.75" x="653.9041" y="177.5674">&#160;</text><text fill="#080000" font-family="Times New Roman" font-size="11" lengthAdjust="spacing" textLength="23.8262" x="656.6541" y="177.5674">[0..1]</text><ellipse cx="608.25" cy="187.7712" fill="#FFFFFF" fill-opacity="0.00000" rx="3" ry="3" style="stroke:#038048;stroke-width:1;"/><path d="M621.2917,182.5124 C620.0267,182.5124 619,183.539 619,184.804 C619,184.9507 619,185.0974 619.0275,185.2349 L616.25,188.0124 L616.25,189.8457 L619,189.8457 L619,188.0124 L620.8333,188.0124 L620.8333,187.0957 L620.8608,187.0682 C620.9983,187.0957 621.145,187.0957 621.2917,187.0957 C622.5567,187.0957 623.5833,186.069 623.5833,184.804 C623.5833,183.539 622.5567,182.5124 621.2917,182.5124 M621.75,183.429 C622.2542,183.429 622.6667,183.8415 622.6667,184.3457 C622.6667,184.8499 622.2542,185.2624 621.75,185.2624 C621.2458,185.2624 620.8333,184.8499 620.8333,184.3457 C620.8333,183.8415 621.2458,183.429 621.75,183.429 " fill="#FFA500"/><text fill="#080000" font-family="Times New Roman" font-size="11" lengthAdjust="spacing" textLength="41.5186" x="624.5833" y="190.2163">paragraaf</text><text fill="#080000" font-family="Times New Roman" font-size="11" lengthAdjust="spacing" textLength="2.75" x="666.1019" y="190.2163">&#160;</text><text fill="#080000" font-family="Times New Roman" font-size="11" lengthAdjust="spacing" textLength="23.8262" x="668.8519" y="190.2163">[0..1]</text></g></a><!--class DPIA--><a href="#DPIA" target="_top" title="#DPIA" xlink:actuate="onRequest" xlink:href="#DPIA" xlink:show="new" xlink:title="#DPIA" xlink:type="simple"><g id="elem_DPIA"><rect codeLine="38" fill="#FFFFFF" height="50.6312" id="DPIA" rx="4" ry="4" style="stroke:#000000;stroke-width:0.5;" width="75.7865" x="172.75" y="7"/><text fill="#080000" font-family="Times New Roman" font-size="11" font-weight="bold" lengthAdjust="spacing" textLength="2.75" x="195.8244" y="22.2695">&#160;</text><text fill="#080000" font-family="Times New Roman" font-size="11" font-weight="bold" lengthAdjust="spacing" textLength="26.8877" x="198.5744" y="22.2695">DPIA</text><line style="stroke:#000000;stroke-width:0.5;" x1="173.75" x2="247.5365" y1="29.6489" y2="29.6489"/><ellipse cx="183.75" cy="41.4734" fill="#FFFFFF" fill-opacity="0.00000" rx="3" ry="3" style="stroke:#038048;stroke-width:1;"/><path d="M196.7917,36.2145 C195.5267,36.2145 194.5,37.2412 194.5,38.5062 C194.5,38.6529 194.5,38.7995 194.5275,38.937 L191.75,41.7145 L191.75,43.5479 L194.5,43.5479 L194.5,41.7145 L196.3333,41.7145 L196.3333,40.7979 L196.3608,40.7704 C196.4983,40.7979 196.645,40.7979 196.7917,40.7979 C198.0567,40.7979 199.0833,39.7712 199.0833,38.5062 C199.0833,37.2412 198.0567,36.2145 196.7917,36.2145 M197.25,37.1312 C197.7542,37.1312 198.1667,37.5437 198.1667,38.0479 C198.1667,38.552 197.7542,38.9645 197.25,38.9645 C196.7458,38.9645 196.3333,38.552 196.3333,38.0479 C196.3333,37.5437 196.7458,37.1312 197.25,37.1312 " fill="#FFA500"/><text fill="#080000" font-family="Times New Roman" font-size="11" lengthAdjust="spacing" textLength="18.9385" x="200.0833" y="43.9185">dpia</text><text fill="#080000" font-family="Times New Roman" font-size="11" lengthAdjust="spacing" textLength="2.75" x="219.0218" y="43.9185">&#160;</text><text fill="#080000" font-family="Times New Roman" font-size="11" lengthAdjust="spacing" textLength="20.7646" x="221.7718" y="43.9185">code</text><path d="M191.75,47.2145 L191.75,48.1312 L199.0833,48.1312 L199.0833,47.2145 L191.75,47.2145 M191.75,49.937 L191.75,50.8537 L199.0833,50.8537 L199.0833,49.937 L191.75,49.937 M191.75,52.687 L191.75,53.6037 L199.0833,53.6037 L199.0833,52.687 L191.75,52.687 " fill="#080000"/></g></a><!--class Gegevensverwerking--><a href="#Gegevensverwerking" target="_top" title="#Gegevensverwerking" xlink:actuate="onRequest" xlink:href="#Gegevensverwerking" xlink:show="new" xlink:title="#Gegevensverwerking" xlink:type="simple"><g id="elem_Gegevensverwerking"><rect codeLine="43" fill="#FFFFFF" height="50.6312" id="Gegevensverwerking" rx="4" ry="4" style="stroke:#000000;stroke-width:0.5;" width="147.8665" x="283.75" y="7"/><text fill="#080000" font-family="Times New Roman" font-size="11" font-weight="bold" lengthAdjust="spacing" textLength="2.75" x="307.1252" y="22.2695">&#160;</text><text fill="#080000" font-family="Times New Roman" font-size="11" font-weight="bold" lengthAdjust="spacing" textLength="98.3662" x="309.8752" y="22.2695">Gegevensverwerking</text><line style="stroke:#000000;stroke-width:0.5;" x1="284.75" x2="430.6165" y1="29.6489" y2="29.6489"/><ellipse cx="294.75" cy="41.4734" fill="#FFFFFF" fill-opacity="0.00000" rx="3" ry="3" style="stroke:#038048;stroke-width:1;"/><path d="M307.7917,36.2145 C306.5267,36.2145 305.5,37.2412 305.5,38.5062 C305.5,38.6529 305.5,38.7995 305.5275,38.937 L302.75,41.7145 L302.75,43.5479 L305.5,43.5479 L305.5,41.7145 L307.3333,41.7145 L307.3333,40.7979 L307.3608,40.7704 C307.4983,40.7979 307.645,40.7979 307.7917,40.7979 C309.0567,40.7979 310.0833,39.7712 310.0833,38.5062 C310.0833,37.2412 309.0567,36.2145 307.7917,36.2145 M308.25,37.1312 C308.7542,37.1312 309.1667,37.5437 309.1667,38.0479 C309.1667,38.552 308.7542,38.9645 308.25,38.9645 C307.7458,38.9645 307.3333,38.552 307.3333,38.0479 C307.3333,37.5437 307.7458,37.1312 308.25,37.1312 " fill="#FFA500"/><text fill="#080000" font-family="Times New Roman" font-size="11" lengthAdjust="spacing" textLength="91.0186" x="311.0833" y="43.9185">gegevensverwerking</text><text fill="#080000" font-family="Times New Roman" font-size="11" lengthAdjust="spacing" textLength="2.75" x="402.1019" y="43.9185">&#160;</text><text fill="#080000" font-family="Times New Roman" font-size="11" lengthAdjust="spacing" textLength="20.7646" x="404.8519" y="43.9185">code</text><path d="M302.75,47.2145 L302.75,48.1312 L310.0833,48.1312 L310.0833,47.2145 L302.75,47.2145 M302.75,49.937 L302.75,50.8537 L310.0833,50.8537 L310.0833,49.937 L302.75,49.937 M302.75,52.687 L302.75,53.6037 L310.0833,53.6037 L310.0833,52.687 L302.75,52.687 " fill="#080000"/></g></a><!--class Gegevensverwerking__persoonsgegevens--><a href="#Gegevensverwerking+persoonsgegevens" target="_top" title="#Gegevensverwerking+persoonsgegevens" xlink:actuate="onRequest" xlink:href="#Gegevensverwerking+persoonsgegevens" xlink:show="new" xlink:title="#Gegevensverwerking+persoonsgegevens" xlink:type="simple"><g id="elem_Gegevensverwerking__persoonsgegevens"><rect codeLine="48" fill="#FFFFFF" height="22.6489" id="Gegevensverwerking__persoonsgegevens" rx="4" ry="4" style="stroke:#000000;stroke-width:0.5;" width="192.9731" x="187.25" y="151"/><text fill="#080000" font-family="Times New Roman" font-size="11" font-weight="bold" lengthAdjust="spacing" textLength="2.75" x="190.25" y="166.2695">&#160;</text><text fill="#080000" font-family="Times New Roman" font-size="11" font-weight="bold" lengthAdjust="spacing" textLength="98.3662" x="193" y="166.2695">Gegevensverwerking</text><text fill="#080000" font-family="Times New Roman" font-size="11" font-weight="bold" lengthAdjust="spacing" textLength="2.75" x="291.3662" y="166.2695">&#160;</text><text fill="#080000" font-family="Times New Roman" font-size="11" font-weight="bold" lengthAdjust="spacing" textLength="83.1069" x="294.1162" y="166.2695">persoonsgegevens</text></g></a><!--class Wet__en__Regelgeving--><a href="#Wet-+en+Regelgeving" target="_top" title="#Wet-+en+Regelgeving" xlink:actuate="onRequest" xlink:href="#Wet-+en+Regelgeving" xlink:show="new" xlink:title="#Wet-+en+Regelgeving" xlink:type="simple"><g id="elem_Wet__en__Regelgeving"><rect codeLine="51" fill="#FFFFFF" height="88.578" id="Wet__en__Regelgeving" rx="4" ry="4" style="stroke:#000000;stroke-width:0.5;" width="147.2542" x="415.25" y="118"/><text fill="#080000" font-family="Times New Roman" font-size="11" font-weight="bold" lengthAdjust="spacing" textLength="2.75" x="439.2375" y="133.2695">&#160;</text><text fill="#080000" font-family="Times New Roman" font-size="11" font-weight="bold" lengthAdjust="spacing" textLength="23.2085" x="441.9875" y="133.2695">Wet-</text><text fill="#080000" font-family="Times New Roman" font-size="11" font-weight="bold" lengthAdjust="spacing" textLength="2.75" x="465.196" y="133.2695">&#160;</text><text fill="#080000" font-family="Times New Roman" font-size="11" font-weight="bold" lengthAdjust="spacing" textLength="11" x="467.946" y="133.2695">en</text><text fill="#080000" font-family="Times New Roman" font-size="11" font-weight="bold" lengthAdjust="spacing" textLength="2.75" x="478.946" y="133.2695">&#160;</text><text fill="#080000" font-family="Times New Roman" font-size="11" font-weight="bold" lengthAdjust="spacing" textLength="56.8208" x="481.696" y="133.2695">Regelgeving</text><line style="stroke:#000000;stroke-width:0.5;" x1="416.25" x2="561.5042" y1="140.6489" y2="140.6489"/><ellipse cx="426.25" cy="152.4734" fill="#FFFFFF" fill-opacity="0.00000" rx="3" ry="3" style="stroke:#038048;stroke-width:1;"/><path d="M439.2917,147.2145 C438.0267,147.2145 437,148.2412 437,149.5062 C437,149.6529 437,149.7995 437.0275,149.937 L434.25,152.7145 L434.25,154.5479 L437,154.5479 L437,152.7145 L438.8333,152.7145 L438.8333,151.7979 L438.8608,151.7704 C438.9983,151.7979 439.145,151.7979 439.2917,151.7979 C440.5567,151.7979 441.5833,150.7712 441.5833,149.5062 C441.5833,148.2412 440.5567,147.2145 439.2917,147.2145 M439.75,148.1312 C440.2542,148.1312 440.6667,148.5437 440.6667,149.0479 C440.6667,149.552 440.2542,149.9645 439.75,149.9645 C439.2458,149.9645 438.8333,149.552 438.8333,149.0479 C438.8333,148.5437 439.2458,148.1312 439.75,148.1312 " fill="#FFA500"/><text fill="#080000" font-family="Times New Roman" font-size="11" lengthAdjust="spacing" textLength="28.0962" x="442.5833" y="154.9185">artikel</text><text fill="#080000" font-family="Times New Roman" font-size="11" lengthAdjust="spacing" textLength="2.75" x="470.6795" y="154.9185">&#160;</text><text fill="#080000" font-family="Times New Roman" font-size="11" lengthAdjust="spacing" textLength="23.8262" x="473.4295" y="154.9185">[0..1]</text><ellipse cx="426.25" cy="165.1223" fill="#FFFFFF" fill-opacity="0.00000" rx="3" ry="3" style="stroke:#038048;stroke-width:1;"/><path d="M439.2917,159.8634 C438.0267,159.8634 437,160.8901 437,162.1551 C437,162.3018 437,162.4484 437.0275,162.5859 L434.25,165.3634 L434.25,167.1968 L437,167.1968 L437,165.3634 L438.8333,165.3634 L438.8333,164.4468 L438.8608,164.4193 C438.9983,164.4468 439.145,164.4468 439.2917,164.4468 C440.5567,164.4468 441.5833,163.4201 441.5833,162.1551 C441.5833,160.8901 440.5567,159.8634 439.2917,159.8634 M439.75,160.7801 C440.2542,160.7801 440.6667,161.1926 440.6667,161.6968 C440.6667,162.2009 440.2542,162.6134 439.75,162.6134 C439.2458,162.6134 438.8333,162.2009 438.8333,161.6968 C438.8333,161.1926 439.2458,160.7801 439.75,160.7801 " fill="#FFA500"/><text fill="#080000" font-family="Times New Roman" font-size="11" lengthAdjust="spacing" textLength="11.6123" x="442.5833" y="167.5674">lid</text><text fill="#080000" font-family="Times New Roman" font-size="11" lengthAdjust="spacing" textLength="2.75" x="454.1956" y="167.5674">&#160;</text><text fill="#080000" font-family="Times New Roman" font-size="11" lengthAdjust="spacing" textLength="23.8262" x="456.9456" y="167.5674">[0..1]</text><ellipse cx="426.25" cy="177.7712" fill="#FFFFFF" fill-opacity="0.00000" rx="3" ry="3" style="stroke:#038048;stroke-width:1;"/><path d="M439.2917,172.5124 C438.0267,172.5124 437,173.539 437,174.804 C437,174.9507 437,175.0974 437.0275,175.2349 L434.25,178.0124 L434.25,179.8457 L437,179.8457 L437,178.0124 L438.8333,178.0124 L438.8333,177.0957 L438.8608,177.0682 C438.9983,177.0957 439.145,177.0957 439.2917,177.0957 C440.5567,177.0957 441.5833,176.069 441.5833,174.804 C441.5833,173.539 440.5567,172.5124 439.2917,172.5124 M439.75,173.429 C440.2542,173.429 440.6667,173.8415 440.6667,174.3457 C440.6667,174.8499 440.2542,175.2624 439.75,175.2624 C439.2458,175.2624 438.8333,174.8499 438.8333,174.3457 C438.8333,173.8415 439.2458,173.429 439.75,173.429 " fill="#FFA500"/><text fill="#080000" font-family="Times New Roman" font-size="11" lengthAdjust="spacing" textLength="15.2808" x="442.5833" y="180.2163">sub</text><text fill="#080000" font-family="Times New Roman" font-size="11" lengthAdjust="spacing" textLength="2.75" x="457.8641" y="180.2163">&#160;</text><text fill="#080000" font-family="Times New Roman" font-size="11" lengthAdjust="spacing" textLength="23.8262" x="460.6141" y="180.2163">[0..1]</text><ellipse cx="426.25" cy="190.4202" fill="#FFFFFF" fill-opacity="0.00000" rx="3" ry="3" style="stroke:#038048;stroke-width:1;"/><path d="M439.2917,185.1613 C438.0267,185.1613 437,186.188 437,187.453 C437,187.5996 437,187.7463 437.0275,187.8838 L434.25,190.6613 L434.25,192.4946 L437,192.4946 L437,190.6613 L438.8333,190.6613 L438.8333,189.7446 L438.8608,189.7171 C438.9983,189.7446 439.145,189.7446 439.2917,189.7446 C440.5567,189.7446 441.5833,188.718 441.5833,187.453 C441.5833,186.188 440.5567,185.1613 439.2917,185.1613 M439.75,186.078 C440.2542,186.078 440.6667,186.4905 440.6667,186.9946 C440.6667,187.4988 440.2542,187.9113 439.75,187.9113 C439.2458,187.9113 438.8333,187.4988 438.8333,186.9946 C438.8333,186.4905 439.2458,186.078 439.75,186.078 " fill="#FFA500"/><text fill="#080000" font-family="Times New Roman" font-size="11" lengthAdjust="spacing" textLength="19.5454" x="442.5833" y="192.8652">wet-</text><text fill="#080000" font-family="Times New Roman" font-size="11" lengthAdjust="spacing" textLength="2.75" x="462.1287" y="192.8652">&#160;</text><text fill="#080000" font-family="Times New Roman" font-size="11" lengthAdjust="spacing" textLength="10.3823" x="464.8787" y="192.8652">en</text><text fill="#080000" font-family="Times New Roman" font-size="11" lengthAdjust="spacing" textLength="2.75" x="475.2611" y="192.8652">&#160;</text><text fill="#080000" font-family="Times New Roman" font-size="11" lengthAdjust="spacing" textLength="51.9224" x="478.0111" y="192.8652">regelgeving</text><text fill="#080000" font-family="Times New Roman" font-size="11" lengthAdjust="spacing" textLength="2.75" x="529.9334" y="192.8652">&#160;</text><text fill="#080000" font-family="Times New Roman" font-size="11" lengthAdjust="spacing" textLength="23.8208" x="532.6834" y="192.8652">naam</text><path d="M434.25,196.1613 L434.25,197.078 L441.5833,197.078 L441.5833,196.1613 L434.25,196.1613 M434.25,198.8838 L434.25,199.8005 L441.5833,199.8005 L441.5833,198.8838 L434.25,198.8838 M434.25,201.6338 L434.25,202.5505 L441.5833,202.5505 L441.5833,201.6338 L434.25,201.6338 " fill="#080000"/></g></a><!--reverse link Gegevensverwerking to Gegevensverwerking__persoonsgegevens--><g id="link_Gegevensverwerking_Gegevensverwerking__persoonsgegevens"><path codeLine="60" d="M315.92,76.18 C315.92,104.3 315.92,130.14 315.92,150.88 " fill="#FFFFFF" fill-opacity="0.00000" id="Gegevensverwerking-backto-Gegevensverwerking__persoonsgegevens" style="stroke:#000000;stroke-width:1;"/><polygon fill="#FFFFFF" fill-opacity="0.00000" points="315.92,58.18,309.92,76.18,321.92,76.18,315.92,58.18" style="stroke:#000000;stroke-width:1;"/></g><!--link Gegevensverwerking__persoonsgegevens to Beleid--><g id="link_Gegevensverwerking__persoonsgegevens_Beleid"><path codeLine="63" d="M348.08,150.86 C348.08,129.91 348.08,88 348.08,88 C348.08,88 647.75,88 647.75,88 C647.75,88 647.75,108.41 647.75,127.87 " fill="#FFFFFF" fill-opacity="0.00000" id="Gegevensverwerking__persoonsgegevens-Beleid" style="stroke:#000000;stroke-width:1;"/><text fill="#080000" font-family="Times New Roman" font-size="11" lengthAdjust="spacing" textLength="85.2231" x="400.42" y="85.2695">Beleidsmatig kader</text><text fill="#080000" font-family="Times New Roman" font-size="11" lengthAdjust="spacing" textLength="16.5" x="359.6693" y="140.7738">0..*</text><text fill="#080000" font-family="Times New Roman" font-size="11" lengthAdjust="spacing" textLength="16.5" x="630.1074" y="117.8682">0..*</text></g><!--link DPIA to Gegevensverwerking__persoonsgegevens--><g id="link_DPIA_Gegevensverwerking__persoonsgegevens"><path codeLine="64" d="M218,58.18 C218,86.3 218,130.14 218,150.88 " fill="#FFFFFF" fill-opacity="0.00000" id="DPIA-Gegevensverwerking__persoonsgegevens" style="stroke:#000000;stroke-width:1;"/><text fill="#080000" font-family="Times New Roman" font-size="11" lengthAdjust="spacing" textLength="210.1548" x="7" y="101.7995">DPIA heeft betrekking op Gegevensverwerking</text><text fill="#080000" font-family="Times New Roman" font-size="11" lengthAdjust="spacing" textLength="16.5" x="201.9091" y="75.8932">0..*</text><text fill="#080000" font-family="Times New Roman" font-size="11" lengthAdjust="spacing" textLength="16.5" x="166.1753" y="140.8035">1..*</text></g><!--link Gegevensverwerking__persoonsgegevens to Wet__en__Regelgeving--><g id="link_Gegevensverwerking__persoonsgegevens_Wet__en__Regelgeving"><path codeLine="65" d="M380.55,163 C392.16,163 403.87,163 415.08,163 " fill="#FFFFFF" fill-opacity="0.00000" id="Gegevensverwerking__persoonsgegevens-Wet__en__Regelgeving" style="stroke:#000000;stroke-width:1;"/><text fill="#080000" font-family="Times New Roman" font-size="11" lengthAdjust="spacing" textLength="66.897" x="347.81" y="174.2695">Juridisch kader</text><text fill="#080000" font-family="Times New Roman" font-size="11" lengthAdjust="spacing" textLength="16.5" x="388.2656" y="160.9023">0..*</text><text fill="#080000" font-family="Times New Roman" font-size="11" lengthAdjust="spacing" textLength="16.5" x="390.6705" y="160.7576">0..*</text></g><!--SRC=[lLHDQnin4BtxLmmsf63Zr6uXfC4Oye5BUp0bQSd1X6MyEzuLgvMMaHpZjldlrMhjL7QsP7EfJjBCqtjlz34c5wf4nWAIKi2diuvv3h1UgoJMh8ZXl9E9X20M74kgvyOIaxRRShUcehHRAAXO4fk0HWf55Geqsqm7YGrZUIyIcy77qIY8Bp7EKoz-hQLci8pAk1Gf6w1CXedU29N23AMX88FCUbDlxOty2989hN0jBVpg0CoqidCi2BwBWWpCQGEtka2rIzs9dmJZyMwr9pptX01NcXFYGnaNFVBUc_dHUGeipBMbG_rB5YX3rRD6qP3aMg8n_xiAWATE9_RAtNuVhaYIIA3VxmAQ_GeMYruzVNW0Rt0mYJsBTlUOqdHoajDsEddlWzDblKiX5gz1Iqo5GbYCJa_73w-36LD6NFt57tY_-VRbSk_SpolVrQILQ_TN46ATa0DEJWfIw-cnm6TAwP6KUIJU4EVLGzt9DMGgyPVXLbRIbsnlDbQw7wkrCdkkVpkDeXVOPk-3Ozo-c0ClzsGdFmQZqOURAP22MuUL3XuSbaD44Qae2dELf4iC1wG6GRpLUI5RaPDi-OoaUvlja6QzR8dS71RDGM6xRt1mSm3lu6xjZhDgeWPG9U2q_CBb6cvpydleEgCQjhg-ch_k9amIhN39J9Jceke3zUVikhBSRS1GqieEORzkzJekTYIcSDGfvEZQZMFsN-wPjxOBtV5RU3r5HiuIBCaovRvuNJRiRpod1j9dGopIBAYqyH5UmDSrYqIOEAlB-WC0]--></g></svg>