<svg xmlns="http://www.w3.org/2000/svg" xmlns:xlink="http://www.w3.org/1999/xlink" contentStyleType="text/css" data-diagram-type="CLASS" height="322px" preserveAspectRatio="none" style="width:999px;height:322px;" version="1.1" viewBox="0 0 999 322" width="999px" zoomAndPan="magnify"><defs/><g><!--class Afdeling__binnen__partij--><a href="#Afdeling+binnen+partij" target="_top" title="#Afdeling+binnen+partij" xlink:actuate="onRequest" xlink:href="#Afdeling+binnen+partij" xlink:show="new" xlink:title="#Afdeling+binnen+partij" xlink:type="simple"><g id="elem_Afdeling__binnen__partij"><rect codeLine="32" fill="#FFFFFF" height="55.9468" id="Afdeling__binnen__partij" rx="4" ry="4" style="stroke:#000000;stroke-width:0.5;" width="113.8784" x="793.24" y="246.5"/><text fill="#080000" font-family="Times New Roman" font-size="11" font-weight="bold" lengthAdjust="spacing" textLength="2.75" x="796.24" y="261.7695">&#160;</text><text fill="#080000" font-family="Times New Roman" font-size="11" font-weight="bold" lengthAdjust="spacing" textLength="40.3369" x="798.99" y="261.7695">Afdeling</text><text fill="#080000" font-family="Times New Roman" font-size="11" font-weight="bold" lengthAdjust="spacing" textLength="2.75" x="839.3269" y="261.7695">&#160;</text><text fill="#080000" font-family="Times New Roman" font-size="11" font-weight="bold" lengthAdjust="spacing" textLength="32.4092" x="842.0769" y="261.7695">binnen</text><text fill="#080000" font-family="Times New Roman" font-size="11" font-weight="bold" lengthAdjust="spacing" textLength="2.75" x="874.4861" y="261.7695">&#160;</text><text fill="#080000" font-family="Times New Roman" font-size="11" font-weight="bold" lengthAdjust="spacing" textLength="26.8823" x="877.2361" y="261.7695">partij</text><line style="stroke:#000000;stroke-width:0.5;" x1="794.24" x2="906.1184" y1="269.1489" y2="269.1489"/><ellipse cx="804.24" cy="280.9734" fill="#FFFFFF" fill-opacity="0.00000" rx="3" ry="3" style="stroke:#038048;stroke-width:1;"/><path d="M817.2817,275.7145 C816.0167,275.7145 814.99,276.7412 814.99,278.0062 C814.99,278.1529 814.99,278.2995 815.0175,278.437 L812.24,281.2145 L812.24,283.0479 L814.99,283.0479 L814.99,281.2145 L816.8233,281.2145 L816.8233,280.2979 L816.8508,280.2704 C816.9883,280.2979 817.135,280.2979 817.2817,280.2979 C818.5467,280.2979 819.5733,279.2712 819.5733,278.0062 C819.5733,276.7412 818.5467,275.7145 817.2817,275.7145 M817.74,276.6312 C818.2442,276.6312 818.6567,277.0437 818.6567,277.5479 C818.6567,278.052 818.2442,278.4645 817.74,278.4645 C817.2358,278.4645 816.8233,278.052 816.8233,277.5479 C816.8233,277.0437 817.2358,276.6312 817.74,276.6312 " fill="#FFA500"/><text fill="#080000" font-family="Times New Roman" font-size="11" lengthAdjust="spacing" textLength="23.8315" x="820.5733" y="283.4185">Partij</text><ellipse cx="804.24" cy="293.6223" fill="#FFFFFF" fill-opacity="0.00000" rx="3" ry="3" style="stroke:#038048;stroke-width:1;"/><text fill="#080000" font-family="Times New Roman" font-size="11" lengthAdjust="spacing" textLength="64.1416" x="811.24" y="296.0674">afdelingsnaam</text></g></a><!--class Bewaartermijn__van__persoonsgegeven__in__gegevensverwerking--><a href="#Bewaartermijn+van+persoonsgegeven+in+gegevensverwerking" target="_top" title="#Bewaartermijn+van+persoonsgegeven+in+gegevensverwerking" xlink:actuate="onRequest" xlink:href="#Bewaartermijn+van+persoonsgegeven+in+gegevensverwerking" xlink:show="new" xlink:title="#Bewaartermijn+van+persoonsgegeven+in+gegevensverwerking" xlink:type="simple"><g id="elem_Bewaartermijn__van__persoonsgegeven__in__gegevensverwerking"><rect codeLine="37" fill="#FFFFFF" height="81.2446" id="Bewaartermijn__van__persoonsgegeven__in__gegevensverwerking" rx="4" ry="4" style="stroke:#000000;stroke-width:0.5;" width="316.6226" x="440.74" y="234"/><text fill="#080000" font-family="Times New Roman" font-size="11" font-weight="bold" lengthAdjust="spacing" textLength="2.75" x="456.2258" y="249.2695">&#160;</text><text fill="#080000" font-family="Times New Roman" font-size="11" font-weight="bold" lengthAdjust="spacing" textLength="71.4731" x="458.9758" y="249.2695">Bewaartermijn</text><text fill="#080000" font-family="Times New Roman" font-size="11" font-weight="bold" lengthAdjust="spacing" textLength="2.75" x="530.449" y="249.2695">&#160;</text><text fill="#080000" font-family="Times New Roman" font-size="11" font-weight="bold" lengthAdjust="spacing" textLength="17.1177" x="533.199" y="249.2695">van</text><text fill="#080000" font-family="Times New Roman" font-size="11" font-weight="bold" lengthAdjust="spacing" textLength="2.75" x="550.3167" y="249.2695">&#160;</text><text fill="#080000" font-family="Times New Roman" font-size="11" font-weight="bold" lengthAdjust="spacing" textLength="78.8262" x="553.0667" y="249.2695">persoonsgegeven</text><text fill="#080000" font-family="Times New Roman" font-size="11" font-weight="bold" lengthAdjust="spacing" textLength="2.75" x="631.8928" y="249.2695">&#160;</text><text fill="#080000" font-family="Times New Roman" font-size="11" font-weight="bold" lengthAdjust="spacing" textLength="9.1738" x="634.6428" y="249.2695">in</text><text fill="#080000" font-family="Times New Roman" font-size="11" font-weight="bold" lengthAdjust="spacing" textLength="2.75" x="643.8167" y="249.2695">&#160;</text><text fill="#080000" font-family="Times New Roman" font-size="11" font-weight="bold" lengthAdjust="spacing" textLength="95.3101" x="646.5667" y="249.2695">gegevensverwerking</text><line style="stroke:#000000;stroke-width:0.5;" x1="441.74" x2="756.3626" y1="256.6489" y2="256.6489"/><ellipse cx="451.74" cy="268.4734" fill="#FFFFFF" fill-opacity="0.00000" rx="3" ry="3" style="stroke:#038048;stroke-width:1;"/><path d="M464.7817,263.2145 C463.5167,263.2145 462.49,264.2412 462.49,265.5062 C462.49,265.6529 462.49,265.7995 462.5175,265.937 L459.74,268.7145 L459.74,270.5479 L462.49,270.5479 L462.49,268.7145 L464.3233,268.7145 L464.3233,267.7979 L464.3508,267.7704 C464.4883,267.7979 464.635,267.7979 464.7817,267.7979 C466.0467,267.7979 467.0733,266.7712 467.0733,265.5062 C467.0733,264.2412 466.0467,263.2145 464.7817,263.2145 M465.24,264.1312 C465.7442,264.1312 466.1567,264.5437 466.1567,265.0479 C466.1567,265.552 465.7442,265.9645 465.24,265.9645 C464.7358,265.9645 464.3233,265.552 464.3233,265.0479 C464.3233,264.5437 464.7358,264.1312 465.24,264.1312 " fill="#FFA500"/><text fill="#080000" font-family="Times New Roman" font-size="11" lengthAdjust="spacing" textLength="105.6709" x="468.0733" y="270.9185">Gegevenssetspecificatie</text><text fill="#080000" font-family="Times New Roman" font-size="11" lengthAdjust="spacing" textLength="2.75" x="573.7442" y="270.9185">&#160;</text><text fill="#080000" font-family="Times New Roman" font-size="11" lengthAdjust="spacing" textLength="91.0186" x="576.4942" y="270.9185">gegevensverwerking</text><text fill="#080000" font-family="Times New Roman" font-size="11" lengthAdjust="spacing" textLength="2.75" x="667.5128" y="270.9185">&#160;</text><text fill="#080000" font-family="Times New Roman" font-size="11" lengthAdjust="spacing" textLength="80.0347" x="670.2628" y="270.9185">persoonsgegevens</text><ellipse cx="451.74" cy="281.1223" fill="#FFFFFF" fill-opacity="0.00000" rx="3" ry="3" style="stroke:#038048;stroke-width:1;"/><text fill="#080000" font-family="Times New Roman" font-size="11" lengthAdjust="spacing" textLength="42.77" x="458.74" y="283.5674">Motivatie</text><text fill="#080000" font-family="Times New Roman" font-size="11" lengthAdjust="spacing" textLength="2.75" x="501.51" y="283.5674">&#160;</text><text fill="#080000" font-family="Times New Roman" font-size="11" lengthAdjust="spacing" textLength="63.5239" x="504.26" y="283.5674">bewaartermijn</text><text fill="#080000" font-family="Times New Roman" font-size="11" lengthAdjust="spacing" textLength="2.75" x="567.7839" y="283.5674">&#160;</text><text fill="#080000" font-family="Times New Roman" font-size="11" lengthAdjust="spacing" textLength="75.7539" x="570.5339" y="283.5674">persoonsgegeven</text><text fill="#080000" font-family="Times New Roman" font-size="11" lengthAdjust="spacing" textLength="2.75" x="646.2879" y="283.5674">&#160;</text><text fill="#080000" font-family="Times New Roman" font-size="11" lengthAdjust="spacing" textLength="8.5562" x="649.0379" y="283.5674">in</text><text fill="#080000" font-family="Times New Roman" font-size="11" lengthAdjust="spacing" textLength="2.75" x="657.594" y="283.5674">&#160;</text><text fill="#080000" font-family="Times New Roman" font-size="11" lengthAdjust="spacing" textLength="91.0186" x="660.344" y="283.5674">gegevensverwerking</text><ellipse cx="451.74" cy="293.7712" fill="#FFFFFF" fill-opacity="0.00000" rx="3" ry="3" style="stroke:#038048;stroke-width:1;"/><text fill="#080000" font-family="Times New Roman" font-size="11" lengthAdjust="spacing" textLength="69.0239" x="458.74" y="296.2163">Toezichthouder</text><text fill="#080000" font-family="Times New Roman" font-size="11" lengthAdjust="spacing" textLength="2.75" x="527.7639" y="296.2163">&#160;</text><text fill="#080000" font-family="Times New Roman" font-size="11" lengthAdjust="spacing" textLength="63.5239" x="530.5139" y="296.2163">bewaartermijn</text><ellipse cx="451.74" cy="306.4202" fill="#FFFFFF" fill-opacity="0.00000" rx="3" ry="3" style="stroke:#038048;stroke-width:1;"/><text fill="#080000" font-family="Times New Roman" font-size="11" lengthAdjust="spacing" textLength="63.5239" x="458.74" y="308.8652">bewaartermijn</text></g></a><!--class DPIA--><a href="#DPIA" target="_top" title="#DPIA" xlink:actuate="onRequest" xlink:href="#DPIA" xlink:show="new" xlink:title="#DPIA" xlink:type="simple"><g id="elem_DPIA"><rect codeLine="44" fill="#FFFFFF" height="50.6312" id="DPIA" rx="4" ry="4" style="stroke:#000000;stroke-width:0.5;" width="75.7865" x="124.24" y="120.5"/><text fill="#080000" font-family="Times New Roman" font-size="11" font-weight="bold" lengthAdjust="spacing" textLength="2.75" x="147.3144" y="135.7695">&#160;</text><text fill="#080000" font-family="Times New Roman" font-size="11" font-weight="bold" lengthAdjust="spacing" textLength="26.8877" x="150.0644" y="135.7695">DPIA</text><line style="stroke:#000000;stroke-width:0.5;" x1="125.24" x2="199.0265" y1="143.1489" y2="143.1489"/><ellipse cx="135.24" cy="154.9734" fill="#FFFFFF" fill-opacity="0.00000" rx="3" ry="3" style="stroke:#038048;stroke-width:1;"/><path d="M148.2817,149.7145 C147.0167,149.7145 145.99,150.7412 145.99,152.0062 C145.99,152.1529 145.99,152.2995 146.0175,152.437 L143.24,155.2145 L143.24,157.0479 L145.99,157.0479 L145.99,155.2145 L147.8233,155.2145 L147.8233,154.2979 L147.8508,154.2704 C147.9883,154.2979 148.135,154.2979 148.2817,154.2979 C149.5467,154.2979 150.5733,153.2712 150.5733,152.0062 C150.5733,150.7412 149.5467,149.7145 148.2817,149.7145 M148.74,150.6312 C149.2442,150.6312 149.6567,151.0437 149.6567,151.5479 C149.6567,152.052 149.2442,152.4645 148.74,152.4645 C148.2358,152.4645 147.8233,152.052 147.8233,151.5479 C147.8233,151.0437 148.2358,150.6312 148.74,150.6312 " fill="#FFA500"/><text fill="#080000" font-family="Times New Roman" font-size="11" lengthAdjust="spacing" textLength="18.9385" x="151.5733" y="157.4185">dpia</text><text fill="#080000" font-family="Times New Roman" font-size="11" lengthAdjust="spacing" textLength="2.75" x="170.5118" y="157.4185">&#160;</text><text fill="#080000" font-family="Times New Roman" font-size="11" lengthAdjust="spacing" textLength="20.7646" x="173.2618" y="157.4185">code</text><path d="M143.24,160.7145 L143.24,161.6312 L150.5733,161.6312 L150.5733,160.7145 L143.24,160.7145 M143.24,163.437 L143.24,164.3537 L150.5733,164.3537 L150.5733,163.437 L143.24,163.437 M143.24,166.187 L143.24,167.1037 L150.5733,167.1037 L150.5733,166.187 L143.24,166.187 " fill="#080000"/></g></a><!--class Gegevenssetspecificatie__gegevensverwerking__persoonsgegevens--><a href="#Gegevenssetspecificatie+gegevensverwerking+persoonsgegevens" target="_top" title="#Gegevenssetspecificatie+gegevensverwerking+persoonsgegevens" xlink:actuate="onRequest" xlink:href="#Gegevenssetspecificatie+gegevensverwerking+persoonsgegevens" xlink:show="new" xlink:title="#Gegevenssetspecificatie+gegevensverwerking+persoonsgegevens" xlink:type="simple"><g id="elem_Gegevenssetspecificatie__gegevensverwerking__persoonsgegevens"><rect codeLine="49" fill="#FFFFFF" height="55.9468" id="Gegevenssetspecificatie__gegevensverwerking__persoonsgegevens" rx="4" ry="4" style="stroke:#000000;stroke-width:0.5;" width="302.0171" x="464.24" y="118"/><text fill="#080000" font-family="Times New Roman" font-size="11" font-weight="bold" lengthAdjust="spacing" textLength="2.75" x="467.24" y="133.2695">&#160;</text><text fill="#080000" font-family="Times New Roman" font-size="11" font-weight="bold" lengthAdjust="spacing" textLength="109.3501" x="469.99" y="133.2695">Gegevenssetspecificatie</text><text fill="#080000" font-family="Times New Roman" font-size="11" font-weight="bold" lengthAdjust="spacing" textLength="2.75" x="579.3401" y="133.2695">&#160;</text><text fill="#080000" font-family="Times New Roman" font-size="11" font-weight="bold" lengthAdjust="spacing" textLength="95.3101" x="582.0901" y="133.2695">gegevensverwerking</text><text fill="#080000" font-family="Times New Roman" font-size="11" font-weight="bold" lengthAdjust="spacing" textLength="2.75" x="677.4002" y="133.2695">&#160;</text><text fill="#080000" font-family="Times New Roman" font-size="11" font-weight="bold" lengthAdjust="spacing" textLength="83.1069" x="680.1502" y="133.2695">persoonsgegevens</text><line style="stroke:#000000;stroke-width:0.5;" x1="465.24" x2="765.2571" y1="140.6489" y2="140.6489"/><ellipse cx="475.24" cy="152.4734" fill="#FFFFFF" fill-opacity="0.00000" rx="3" ry="3" style="stroke:#038048;stroke-width:1;"/><path d="M488.2817,147.2145 C487.0167,147.2145 485.99,148.2412 485.99,149.5062 C485.99,149.6529 485.99,149.7995 486.0175,149.937 L483.24,152.7145 L483.24,154.5479 L485.99,154.5479 L485.99,152.7145 L487.8233,152.7145 L487.8233,151.7979 L487.8508,151.7704 C487.9883,151.7979 488.135,151.7979 488.2817,151.7979 C489.5467,151.7979 490.5733,150.7712 490.5733,149.5062 C490.5733,148.2412 489.5467,147.2145 488.2817,147.2145 M488.74,148.1312 C489.2442,148.1312 489.6567,148.5437 489.6567,149.0479 C489.6567,149.552 489.2442,149.9645 488.74,149.9645 C488.2358,149.9645 487.8233,149.552 487.8233,149.0479 C487.8233,148.5437 488.2358,148.1312 488.74,148.1312 " fill="#FFA500"/><text fill="#080000" font-family="Times New Roman" font-size="11" font-style="italic" lengthAdjust="spacing" textLength="92.2378" x="491.5733" y="154.9185">Gegevensverwerking</text><text fill="#080000" font-family="Times New Roman" font-size="11" font-style="italic" lengthAdjust="spacing" textLength="2.75" x="583.8111" y="154.9185">&#160;</text><text fill="#080000" font-family="Times New Roman" font-size="11" font-style="italic" lengthAdjust="spacing" textLength="80.0347" x="586.5611" y="154.9185">persoonsgegevens</text><text fill="#080000" font-family="Times New Roman" font-size="11" lengthAdjust="spacing" textLength="2.75" x="666.5958" y="154.9185">&#160;</text><path d="M670.4283,147.2145 C670.3733,147.2145 670.3458,147.2512 670.3458,147.297 L670.3458,154.4562 C670.3458,154.502 670.3825,154.5387 670.4283,154.5387 L676.6708,154.5387 C676.7166,154.5387 676.7533,154.502 676.7533,154.4562 L676.7533,147.297 C676.7533,147.242 676.7166,147.2145 676.6708,147.2145 L670.4283,147.2145 M671.2625,148.1312 L675.8458,148.1312 L675.8458,149.9645 L671.2625,149.9645 L671.2625,148.1312 M671.2625,150.8812 L672.1791,150.8812 L672.1791,151.7979 L671.2625,151.7979 L671.2625,150.8812 M673.0958,150.8812 L674.0125,150.8812 L674.0125,151.7979 L673.0958,151.7979 L673.0958,150.8812 M674.9291,150.8812 L675.8458,150.8812 L675.8458,153.6312 L674.9291,153.6312 L674.9291,150.8812 M671.2625,152.7145 L672.1791,152.7145 L672.1791,153.6312 L671.2625,153.6312 L671.2625,152.7145 M673.0958,152.7145 L674.0125,152.7145 L674.0125,153.6312 L673.0958,153.6312 L673.0958,152.7145 " fill="#080000"/><ellipse cx="475.24" cy="165.1223" fill="#FFFFFF" fill-opacity="0.00000" rx="3" ry="3" style="stroke:#038048;stroke-width:1;"/><path d="M488.2817,159.8634 C487.0167,159.8634 485.99,160.8901 485.99,162.1551 C485.99,162.3018 485.99,162.4484 486.0175,162.5859 L483.24,165.3634 L483.24,167.1968 L485.99,167.1968 L485.99,165.3634 L487.8233,165.3634 L487.8233,164.4468 L487.8508,164.4193 C487.9883,164.4468 488.135,164.4468 488.2817,164.4468 C489.5467,164.4468 490.5733,163.4201 490.5733,162.1551 C490.5733,160.8901 489.5467,159.8634 488.2817,159.8634 M488.74,160.7801 C489.2442,160.7801 489.6567,161.1926 489.6567,161.6968 C489.6567,162.2009 489.2442,162.6134 488.74,162.6134 C488.2358,162.6134 487.8233,162.2009 487.8233,161.6968 C487.8233,161.1926 488.2358,160.7801 488.74,160.7801 " fill="#FFA500"/><text fill="#080000" font-family="Times New Roman" font-size="11" font-style="italic" lengthAdjust="spacing" textLength="76.9731" x="491.5733" y="167.5674">Persoonsgegeven</text><text fill="#080000" font-family="Times New Roman" font-size="11" lengthAdjust="spacing" textLength="2.75" x="568.5465" y="167.5674">&#160;</text><path d="M572.379,159.8634 C572.324,159.8634 572.2965,159.9001 572.2965,159.9459 L572.2965,167.1051 C572.2965,167.1509 572.3331,167.1876 572.379,167.1876 L578.6215,167.1876 C578.6673,167.1876 578.704,167.1509 578.704,167.1051 L578.704,159.9459 C578.704,159.8909 578.6673,159.8634 578.6215,159.8634 L572.379,159.8634 M573.2131,160.7801 L577.7965,160.7801 L577.7965,162.6134 L573.2131,162.6134 L573.2131,160.7801 M573.2131,163.5301 L574.1298,163.5301 L574.1298,164.4468 L573.2131,164.4468 L573.2131,163.5301 M575.0465,163.5301 L575.9631,163.5301 L575.9631,164.4468 L575.0465,164.4468 L575.0465,163.5301 M576.8798,163.5301 L577.7965,163.5301 L577.7965,166.2801 L576.8798,166.2801 L576.8798,163.5301 M573.2131,165.3634 L574.1298,165.3634 L574.1298,166.2801 L573.2131,166.2801 L573.2131,165.3634 M575.0465,165.3634 L575.9631,165.3634 L575.9631,166.2801 L575.0465,166.2801 L575.0465,165.3634 " fill="#080000"/></g></a><!--class Gegevenstype--><a href="#Gegevenstype" target="_top" title="#Gegevenstype" xlink:actuate="onRequest" xlink:href="#Gegevenstype" xlink:show="new" xlink:title="#Gegevenstype" xlink:type="simple"><g id="elem_Gegevenstype"><rect codeLine="54" fill="#FFFFFF" height="50.6312" id="Gegevenstype" rx="4" ry="4" style="stroke:#000000;stroke-width:0.5;" width="116.7142" x="777.74" y="7"/><text fill="#080000" font-family="Times New Roman" font-size="11" font-weight="bold" lengthAdjust="spacing" textLength="2.75" x="802.3398" y="22.2695">&#160;</text><text fill="#080000" font-family="Times New Roman" font-size="11" font-weight="bold" lengthAdjust="spacing" textLength="64.7646" x="805.0898" y="22.2695">Gegevenstype</text><line style="stroke:#000000;stroke-width:0.5;" x1="778.74" x2="893.4542" y1="29.6489" y2="29.6489"/><ellipse cx="788.74" cy="41.4734" fill="#FFFFFF" fill-opacity="0.00000" rx="3" ry="3" style="stroke:#038048;stroke-width:1;"/><path d="M801.7817,36.2145 C800.5167,36.2145 799.49,37.2412 799.49,38.5062 C799.49,38.6529 799.49,38.7995 799.5175,38.937 L796.74,41.7145 L796.74,43.5479 L799.49,43.5479 L799.49,41.7145 L801.3233,41.7145 L801.3233,40.7979 L801.3508,40.7704 C801.4883,40.7979 801.635,40.7979 801.7817,40.7979 C803.0467,40.7979 804.0733,39.7712 804.0733,38.5062 C804.0733,37.2412 803.0467,36.2145 801.7817,36.2145 M802.24,37.1312 C802.7442,37.1312 803.1567,37.5437 803.1567,38.0479 C803.1567,38.552 802.7442,38.9645 802.24,38.9645 C801.7358,38.9645 801.3233,38.552 801.3233,38.0479 C801.3233,37.5437 801.7358,37.1312 802.24,37.1312 " fill="#FFA500"/><text fill="#080000" font-family="Times New Roman" font-size="11" lengthAdjust="spacing" textLength="59.8662" x="805.0733" y="43.9185">gegevenstype</text><text fill="#080000" font-family="Times New Roman" font-size="11" lengthAdjust="spacing" textLength="2.75" x="864.9395" y="43.9185">&#160;</text><text fill="#080000" font-family="Times New Roman" font-size="11" lengthAdjust="spacing" textLength="20.7646" x="867.6895" y="43.9185">code</text><path d="M796.74,47.2145 L796.74,48.1312 L804.0733,48.1312 L804.0733,47.2145 L796.74,47.2145 M796.74,49.937 L796.74,50.8537 L804.0733,50.8537 L804.0733,49.937 L796.74,49.937 M796.74,52.687 L796.74,53.6037 L804.0733,53.6037 L804.0733,52.687 L796.74,52.687 " fill="#080000"/></g></a><!--class Gegevensverwerking--><a href="#Gegevensverwerking" target="_top" title="#Gegevensverwerking" xlink:actuate="onRequest" xlink:href="#Gegevensverwerking" xlink:show="new" xlink:title="#Gegevensverwerking" xlink:type="simple"><g id="elem_Gegevensverwerking"><rect codeLine="59" fill="#FFFFFF" height="50.6312" id="Gegevensverwerking" rx="4" ry="4" style="stroke:#000000;stroke-width:0.5;" width="147.8665" x="482.24" y="7"/><text fill="#080000" font-family="Times New Roman" font-size="11" font-weight="bold" lengthAdjust="spacing" textLength="2.75" x="505.6152" y="22.2695">&#160;</text><text fill="#080000" font-family="Times New Roman" font-size="11" font-weight="bold" lengthAdjust="spacing" textLength="98.3662" x="508.3652" y="22.2695">Gegevensverwerking</text><line style="stroke:#000000;stroke-width:0.5;" x1="483.24" x2="629.1065" y1="29.6489" y2="29.6489"/><ellipse cx="493.24" cy="41.4734" fill="#FFFFFF" fill-opacity="0.00000" rx="3" ry="3" style="stroke:#038048;stroke-width:1;"/><path d="M506.2817,36.2145 C505.0167,36.2145 503.99,37.2412 503.99,38.5062 C503.99,38.6529 503.99,38.7995 504.0175,38.937 L501.24,41.7145 L501.24,43.5479 L503.99,43.5479 L503.99,41.7145 L505.8233,41.7145 L505.8233,40.7979 L505.8508,40.7704 C505.9883,40.7979 506.135,40.7979 506.2817,40.7979 C507.5467,40.7979 508.5733,39.7712 508.5733,38.5062 C508.5733,37.2412 507.5467,36.2145 506.2817,36.2145 M506.74,37.1312 C507.2442,37.1312 507.6567,37.5437 507.6567,38.0479 C507.6567,38.552 507.2442,38.9645 506.74,38.9645 C506.2358,38.9645 505.8233,38.552 505.8233,38.0479 C505.8233,37.5437 506.2358,37.1312 506.74,37.1312 " fill="#FFA500"/><text fill="#080000" font-family="Times New Roman" font-size="11" lengthAdjust="spacing" textLength="91.0186" x="509.5733" y="43.9185">gegevensverwerking</text><text fill="#080000" font-family="Times New Roman" font-size="11" lengthAdjust="spacing" textLength="2.75" x="600.5919" y="43.9185">&#160;</text><text fill="#080000" font-family="Times New Roman" font-size="11" lengthAdjust="spacing" textLength="20.7646" x="603.3419" y="43.9185">code</text><path d="M501.24,47.2145 L501.24,48.1312 L508.5733,48.1312 L508.5733,47.2145 L501.24,47.2145 M501.24,49.937 L501.24,50.8537 L508.5733,50.8537 L508.5733,49.937 L501.24,49.937 M501.24,52.687 L501.24,53.6037 L508.5733,53.6037 L508.5733,52.687 L501.24,52.687 " fill="#080000"/></g></a><!--class Gegevensverwerking__persoonsgegevens--><a href="#Gegevensverwerking+persoonsgegevens" target="_top" title="#Gegevensverwerking+persoonsgegevens" xlink:actuate="onRequest" xlink:href="#Gegevensverwerking+persoonsgegevens" xlink:show="new" xlink:title="#Gegevensverwerking+persoonsgegevens" xlink:type="simple"><g id="elem_Gegevensverwerking__persoonsgegevens"><rect codeLine="64" fill="#FFFFFF" height="22.6489" id="Gegevensverwerking__persoonsgegevens" rx="4" ry="4" style="stroke:#000000;stroke-width:0.5;" width="192.9731" x="235.74" y="134.5"/><text fill="#080000" font-family="Times New Roman" font-size="11" font-weight="bold" lengthAdjust="spacing" textLength="2.75" x="238.74" y="149.7695">&#160;</text><text fill="#080000" font-family="Times New Roman" font-size="11" font-weight="bold" lengthAdjust="spacing" textLength="98.3662" x="241.49" y="149.7695">Gegevensverwerking</text><text fill="#080000" font-family="Times New Roman" font-size="11" font-weight="bold" lengthAdjust="spacing" textLength="2.75" x="339.8562" y="149.7695">&#160;</text><text fill="#080000" font-family="Times New Roman" font-size="11" font-weight="bold" lengthAdjust="spacing" textLength="83.1069" x="342.6062" y="149.7695">persoonsgegevens</text></g></a><!--class Partij--><a href="#Partij" target="_top" title="#Partij" xlink:actuate="onRequest" xlink:href="#Partij" xlink:show="new" xlink:title="#Partij" xlink:type="simple"><g id="elem_Partij"><rect codeLine="67" fill="#FFFFFF" height="50.6312" id="Partij" rx="4" ry="4" style="stroke:#000000;stroke-width:0.5;" width="67.8534" x="801.24" y="120.5"/><text fill="#080000" font-family="Times New Roman" font-size="11" font-weight="bold" lengthAdjust="spacing" textLength="2.75" x="820.0497" y="135.7695">&#160;</text><text fill="#080000" font-family="Times New Roman" font-size="11" font-weight="bold" lengthAdjust="spacing" textLength="27.4839" x="822.7997" y="135.7695">Partij</text><line style="stroke:#000000;stroke-width:0.5;" x1="802.24" x2="868.0934" y1="143.1489" y2="143.1489"/><ellipse cx="812.24" cy="154.9734" fill="#FFFFFF" fill-opacity="0.00000" rx="3" ry="3" style="stroke:#038048;stroke-width:1;"/><path d="M825.2817,149.7145 C824.0167,149.7145 822.99,150.7412 822.99,152.0062 C822.99,152.1529 822.99,152.2995 823.0175,152.437 L820.24,155.2145 L820.24,157.0479 L822.99,157.0479 L822.99,155.2145 L824.8233,155.2145 L824.8233,154.2979 L824.8508,154.2704 C824.9883,154.2979 825.135,154.2979 825.2817,154.2979 C826.5467,154.2979 827.5733,153.2712 827.5733,152.0062 C827.5733,150.7412 826.5467,149.7145 825.2817,149.7145 M825.74,150.6312 C826.2442,150.6312 826.6567,151.0437 826.6567,151.5479 C826.6567,152.052 826.2442,152.4645 825.74,152.4645 C825.2358,152.4645 824.8233,152.052 824.8233,151.5479 C824.8233,151.0437 825.2358,150.6312 825.74,150.6312 " fill="#FFA500"/><text fill="#080000" font-family="Times New Roman" font-size="11" lengthAdjust="spacing" textLength="23.2139" x="828.5733" y="157.4185">partij</text><text fill="#080000" font-family="Times New Roman" font-size="11" lengthAdjust="spacing" textLength="2.75" x="851.7872" y="157.4185">&#160;</text><text fill="#080000" font-family="Times New Roman" font-size="11" lengthAdjust="spacing" textLength="8.5562" x="854.5372" y="157.4185">id</text><path d="M820.24,160.7145 L820.24,161.6312 L827.5733,161.6312 L827.5733,160.7145 L820.24,160.7145 M820.24,163.437 L820.24,164.3537 L827.5733,164.3537 L827.5733,163.437 L820.24,163.437 M820.24,166.187 L820.24,167.1037 L827.5733,167.1037 L827.5733,166.187 L820.24,166.187 " fill="#080000"/></g></a><!--class Persoonsgegeven--><a href="#Persoonsgegeven" target="_top" title="#Persoonsgegeven" xlink:actuate="onRequest" xlink:href="#Persoonsgegeven" xlink:show="new" xlink:title="#Persoonsgegeven" xlink:type="simple"><g id="elem_Persoonsgegeven"><rect codeLine="72" fill="#FFFFFF" height="22.6489" id="Persoonsgegeven" rx="4" ry="4" style="stroke:#000000;stroke-width:0.5;" width="88.1777" x="904.24" y="134.5"/><text fill="#080000" font-family="Times New Roman" font-size="11" font-weight="bold" lengthAdjust="spacing" textLength="2.75" x="907.24" y="149.7695">&#160;</text><text fill="#080000" font-family="Times New Roman" font-size="11" font-weight="bold" lengthAdjust="spacing" textLength="79.4277" x="909.99" y="149.7695">Persoonsgegeven</text></g></a><!--reverse link Gegevenstype to Persoonsgegeven--><g id="link_Gegevenstype_Persoonsgegeven"><path codeLine="76" d="M881.99,76.25 C881.99,109.74 881.99,146 881.99,146 C881.99,146 891.9,146 904.05,146 " fill="#FFFFFF" fill-opacity="0.00000" id="Gegevenstype-backto-Persoonsgegeven" style="stroke:#000000;stroke-width:1;"/><polygon fill="#FFFFFF" fill-opacity="0.00000" points="881.99,58.25,875.99,76.25,887.99,76.25,881.99,58.25" style="stroke:#000000;stroke-width:1;"/></g><!--reverse link Gegevensverwerking to Gegevensverwerking__persoonsgegevens--><g id="link_Gegevensverwerking_Gegevensverwerking__persoonsgegevens"><path codeLine="77" d="M463.96,33 C398.76,33 332.24,33 332.24,33 C332.24,33 332.24,105.46 332.24,134.33 " fill="#FFFFFF" fill-opacity="0.00000" id="Gegevensverwerking-backto-Gegevensverwerking__persoonsgegevens" style="stroke:#000000;stroke-width:1;"/><polygon fill="#FFFFFF" fill-opacity="0.00000" points="481.96,33,463.96,27,463.96,39,481.96,33" style="stroke:#000000;stroke-width:1;"/></g><!--reverse link Partij to Afdeling__binnen__partij--><g id="link_Partij_Afdeling__binnen__partij"><path codeLine="80" d="M855.64,177.7 C855.64,199.23 855.64,223.93 855.64,246.17 " fill="#FFFFFF" fill-opacity="0.00000" id="Partij-backto-Afdeling__binnen__partij" style="stroke:#000000;stroke-width:1;"/><polygon fill="#000000" points="855.64,171.7,851.64,180.7,855.64,176.7,859.64,180.7,855.64,171.7" style="stroke:#000000;stroke-width:1;"/><text fill="#080000" font-family="Times New Roman" font-size="11" lengthAdjust="spacing" textLength="5.5" x="861.0104" y="189.4178">1</text><text fill="#080000" font-family="Times New Roman" font-size="11" lengthAdjust="spacing" textLength="16.5" x="839.082" y="236.1572">0..1</text></g><!--reverse link Gegevenssetspecificatie__gegevensverwerking__persoonsgegevens to Bewaartermijn__van__persoonsgegeven__in__gegevensverwerking--><g id="link_Gegevenssetspecificatie__gegevensverwerking__persoonsgegevens_Bewaartermijn__van__persoonsgegeven__in__gegevensverwerking"><path codeLine="81" d="M610.99,180.2 C610.99,197.64 610.99,214.31 610.99,233.68 " fill="#FFFFFF" fill-opacity="0.00000" id="Gegevenssetspecificatie__gegevensverwerking__persoonsgegevens-backto-Bewaartermijn__van__persoonsgegeven__in__gegevensverwerking" style="stroke:#000000;stroke-width:1;"/><polygon fill="#000000" points="610.99,174.2,606.99,183.2,610.99,179.2,614.99,183.2,610.99,174.2" style="stroke:#000000;stroke-width:1;"/><text fill="#080000" font-family="Times New Roman" font-size="11" lengthAdjust="spacing" textLength="5.5" x="604.5663" y="192.0276">1</text><text fill="#080000" font-family="Times New Roman" font-size="11" lengthAdjust="spacing" textLength="5.5" x="607.7158" y="223.6457">1</text></g><!--link DPIA to Gegevensverwerking__persoonsgegevens--><g id="link_DPIA_Gegevensverwerking__persoonsgegevens"><path codeLine="82" d="M200.39,146 C211.06,146 223.17,146 235.61,146 " fill="#FFFFFF" fill-opacity="0.00000" id="DPIA-Gegevensverwerking__persoonsgegevens" style="stroke:#000000;stroke-width:1;"/><text fill="#080000" font-family="Times New Roman" font-size="11" lengthAdjust="spacing" textLength="210.1548" x="7" y="157.2695">DPIA heeft betrekking op Gegevensverwerking</text><text fill="#080000" font-family="Times New Roman" font-size="11" lengthAdjust="spacing" textLength="16.5" x="208.0927" y="143.3601">0..*</text><text fill="#080000" font-family="Times New Roman" font-size="11" lengthAdjust="spacing" textLength="16.5" x="211.2933" y="143.8313">1..*</text></g><!--link Gegevensverwerking to Gegevenstype--><g id="link_Gegevensverwerking_Gegevenstype"><path codeLine="83" d="M630.54,33 C676.55,33 728.81,33 771.57,33 " fill="#FFFFFF" fill-opacity="0.00000" id="Gegevensverwerking-to-Gegevenstype" style="stroke:#000000;stroke-width:1;"/><polygon fill="#000000" points="777.57,33,768.57,29,772.57,33,768.57,37,777.57,33" style="stroke:#000000;stroke-width:1;"/><text fill="#080000" font-family="Times New Roman" font-size="11" lengthAdjust="spacing" textLength="105.6709" x="651.56" y="44.2695">Gegevenssetspecificatie</text><text fill="#080000" font-family="Times New Roman" font-size="11" lengthAdjust="spacing" textLength="16.5" x="638.1562" y="30.8094">0..*</text><text fill="#080000" font-family="Times New Roman" font-size="11" lengthAdjust="spacing" textLength="16.5" x="753.0782" y="30.63">1..*</text></g><!--reverse link Gegevensverwerking__persoonsgegevens to Gegevenssetspecificatie__gegevensverwerking__persoonsgegevens--><g id="link_Gegevensverwerking__persoonsgegevens_Gegevenssetspecificatie__gegevensverwerking__persoonsgegevens"><path codeLine="84" d="M434.84,146 C446.29,146 452.18,146 464.16,146 " fill="#FFFFFF" fill-opacity="0.00000" id="Gegevensverwerking__persoonsgegevens-backto-Gegevenssetspecificatie__gegevensverwerking__persoonsgegevens" style="stroke:#000000;stroke-width:1;"/><polygon fill="#000000" points="428.84,146,437.84,150,433.84,146,437.84,142,428.84,146" style="stroke:#000000;stroke-width:1;"/><text fill="#080000" font-family="Times New Roman" font-size="11" lengthAdjust="spacing" textLength="5.5" x="436.758" y="143.8313">1</text><text fill="#080000" font-family="Times New Roman" font-size="11" lengthAdjust="spacing" textLength="16.5" x="439.9699" y="143.9783">1..*</text></g><!--link Gegevenssetspecificatie__gegevensverwerking__persoonsgegevens to Persoonsgegeven--><g id="link_Gegevenssetspecificatie__gegevensverwerking__persoonsgegevens_Persoonsgegeven"><path codeLine="85" d="M761.99,174.3 C761.99,195.91 761.99,222 761.99,222 C761.99,222 949.74,222 949.74,222 C949.74,222 949.74,184.8 949.74,163.54 " fill="#FFFFFF" fill-opacity="0.00000" id="Gegevenssetspecificatie__gegevensverwerking__persoonsgegevens-to-Persoonsgegeven" style="stroke:#000000;stroke-width:1;"/><polygon fill="#000000" points="949.74,157.54,945.74,166.54,949.74,162.54,953.74,166.54,949.74,157.54" style="stroke:#000000;stroke-width:1;"/><text fill="#080000" font-family="Times New Roman" font-size="11" lengthAdjust="spacing" textLength="16.5" x="774.3409" y="187.3308">0..*</text><text fill="#080000" font-family="Times New Roman" font-size="11" lengthAdjust="spacing" textLength="5.5" x="944.394" y="175.251">1</text></g><!--link Gegevensverwerking__persoonsgegevens to Partij--><g id="link_Gegevensverwerking__persoonsgegevens_Partij"><path codeLine="86" d="M380.49,157.78 C380.49,169.58 380.49,186 380.49,186 C380.49,186 814.84,186 814.84,186 C814.84,186 814.84,179.4 814.84,171.56 " fill="#FFFFFF" fill-opacity="0.00000" id="Gegevensverwerking__persoonsgegevens-Partij" style="stroke:#000000;stroke-width:1;"/><text fill="#080000" font-family="Times New Roman" font-size="11" lengthAdjust="spacing" textLength="173.4917" x="591.78" y="197.2695">Sub-verwerker bij gegevensverwerking</text><text fill="#080000" font-family="Times New Roman" font-size="11" lengthAdjust="spacing" textLength="16.5" x="381.2018" y="175.59">0..*</text><text fill="#080000" font-family="Times New Roman" font-size="11" lengthAdjust="spacing" textLength="16.5" x="792.3473" y="189.2455">0..*</text></g><!--link Gegevensverwerking__persoonsgegevens to Partij--><g id="link_Gegevensverwerking__persoonsgegevens_Partij"><path codeLine="88" d="M332.24,157.54 C332.24,172.86 332.24,198 332.24,198 C332.24,198 828.44,198 828.44,198 C828.44,198 828.44,184.8 828.44,171.7 " fill="#FFFFFF" fill-opacity="0.00000" id="Gegevensverwerking__persoonsgegevens-Partij-1" style="stroke:#000000;stroke-width:1;"/><text fill="#080000" font-family="Times New Roman" font-size="11" lengthAdjust="spacing" textLength="155.1548" x="417.26" y="195.2695">Verwerker bij gegevensverwerking</text><text fill="#080000" font-family="Times New Roman" font-size="11" lengthAdjust="spacing" textLength="16.5" x="313.0487" y="175.251">0..*</text><text fill="#080000" font-family="Times New Roman" font-size="11" lengthAdjust="spacing" textLength="16.5" x="828.7923" y="189.4178">0..*</text></g><!--link Gegevensverwerking__persoonsgegevens to Partij--><g id="link_Gegevensverwerking__persoonsgegevens_Partij"><path codeLine="89" d="M283.99,157.74 C283.99,176.21 283.99,210 283.99,210 C283.99,210 842.04,210 842.04,210 C842.04,210 842.04,195.47 842.04,177.66 " fill="#FFFFFF" fill-opacity="0.00000" id="Gegevensverwerking__persoonsgegevens-to-Partij" style="stroke:#000000;stroke-width:1;"/><polygon fill="#000000" points="842.04,171.66,838.04,180.66,842.04,176.66,846.04,180.66,842.04,171.66" style="stroke:#000000;stroke-width:1;"/><text fill="#080000" font-family="Times New Roman" font-size="11" lengthAdjust="spacing" textLength="244.9702" x="311.05" y="221.2695">Verwerkingsverantwoordelijke bij gegevensverwerking</text><text fill="#080000" font-family="Times New Roman" font-size="11" lengthAdjust="spacing" textLength="16.5" x="244.8955" y="175.5335">0..*</text><text fill="#080000" font-family="Times New Roman" font-size="11" lengthAdjust="spacing" textLength="16.5" x="845.5373" y="189.3686">1..*</text></g><!--link Bewaartermijn__van__persoonsgegeven__in__gegevensverwerking to Afdeling__binnen__partij--><g id="link_Bewaartermijn__van__persoonsgegeven__in__gegevensverwerking_Afdeling__binnen__partij"><path codeLine="87" d="M757.85,275 C770.24,275 776.17,275 787.11,275 " fill="#FFFFFF" fill-opacity="0.00000" id="Bewaartermijn__van__persoonsgegeven__in__gegevensverwerking-to-Afdeling__binnen__partij" style="stroke:#000000;stroke-width:1;"/><polygon fill="#000000" points="793.11,275,784.11,271,788.11,275,784.11,279,793.11,275" style="stroke:#000000;stroke-width:1;"/><text fill="#080000" font-family="Times New Roman" font-size="11" lengthAdjust="spacing" textLength="135.2979" x="707.98" y="286.2695">Toezichthouder bewaartermijn</text><text fill="#080000" font-family="Times New Roman" font-size="11" lengthAdjust="spacing" textLength="16.5" x="765.4194" y="273.0295">0..*</text><text fill="#080000" font-family="Times New Roman" font-size="11" lengthAdjust="spacing" textLength="5.5" x="779.7682" y="272.5455">1</text></g><!--SRC=[lLPjQzim4FwUNt6aq45CcdI3qfKGw0iD-x0IrgxxK8fHx4kinfQC92UqM__x9FcbjkCqNWCB1EnxUUxkkTF9SabPJ0I9m8yfV3tfo48WUC9yZmk60aux0VKHF2gy4DDdgL0WLyznzevHh9uXmcY6GfPWGihGM04NAk0bnLgG-1VrLG1VXiEIV4QyvS86l-GX5w04OLAhaAcIbGo8pzUKBU2QX19B6Y84NwUk1qFxAobzd9CaLF2x0t3DcReX4S8TZL323QxX1uy8orItz0NX-3Xxom5FBI301HS-YceOBQtbVd1jVvtNKWetN64r_hcW92n7FMaCMWQv38cK_xiAWDTEnxEHkxqUdCzz34q7PfGnPA0pK_G9Uhqk45beNJTLkswcXuU7Wrpff3edLJq-WYt96NasBjUTN-1uTBZ4v_5eO8NZgJKrLYG3aOoGg9xS1Qw9jaGHqIS6AwBJqtF9EPCBNE1AfqiPP8zoXMADOcbgoRAlkBkkzjVvLm5Sb-f_0uGfiEBlQ7UdvkrGvcpwjc9Wahb9L396ZywfHnJ5fcfgGQM1_iuLNLc7MOMZLlmOW3kEBzGBz6bEzF1KKOo-BgZqvMhwxJmdsJuRjin3gzBraYBWSH-ruUWmGfQCwm7sO2VFQmj4KxCtfaBQWhOWD7IyFXUou64mQ3C4xvGp66YEF19wIKYKTjaDEgqYD00qKctNUuqxAojJOGIjUhme8xJhzURvdJGVoyd7Jbp3xFnpOhk6hVLCjPYTIYxJobgUlYtXQVkbcwrkwcylkJOxHRoQs0QkoafP0to2sqINPPelWJ0VP3ApBrfNcQtHdxx-063zUeIINOdzmheDtMaUwHKhKCy-rSg0nl9CAxRUQztXqT5n5w2VnFqnG5S_5tVLFjT9jmQwrtRIkTYjQvBj6Ln15u7g6sGhQ3MDPob6W3XNUlqhWKkRAOyR_EjzomB1g1zgTnDvk2MoZhEbrXBcntPqdaIQGutO7Vpj6RbAV3ue6pCyVHkgjqJV8QknJRV9RFJJ6Gu_NuqpItDVQzZ6Ytsl8MqiQ-jPEOCT7n6J3t1Pi3FDWzplBZhdkVLKDX9zNwYD9M5gpSsNTKYVbhWbzby0]--></g></svg>